<svg id="Capa_1" data-name="Capa 1" xmlns="http://www.w3.org/2000/svg" viewBox="0 0 386.55 373.33"><defs><style>.cls-1{fill:#fff;}.cls-2{fill:#362045;}.cls-3{opacity:0.35;}.cls-4{opacity:0.3;}.cls-5{fill:#34a2df;}.cls-6{opacity:0.8;}.cls-7{fill:#293856;}.cls-8{fill:#21182a;}.cls-9{opacity:0.5;}</style></defs><path class="cls-1" d="M118.21,292.51c-1.71,10.42-10.11,14.57-26.65,11.3s-22.91,3.74-24,5.08c-3.72,4.56-30.57,47.8-5,60.07,18,8.65,36.85-19.63,36.85-19.63s42.49,28.5,101.44-36.29"/><path class="cls-2" d="M145.89,349.17a40,40,0,0,1-14.33-2.56c-14.31-5.49-24.87-19.4-31.38-41.34a2.73,2.73,0,0,1,5.24-1.55c6,20.23,15.45,32.94,28.09,37.79,17.64,6.76,35.76-4.15,35.94-4.27a2.73,2.73,0,1,1,2.86,4.65,54.64,54.64,0,0,1-12.7,5.29A50.14,50.14,0,0,1,145.89,349.17Z"/><g class="cls-3"><path class="cls-2" d="M62.53,369c18,8.65,36.85-19.62,36.85-19.62s42.48,28.48,101.44-36.3L146.76,299.6c-19.14,35.22-49.63,33.86-49.63,33.86s-10.39,34.91-37.36,26.37c-7.27-2.3-6.11-11.25-7.83-14.35C50.7,355.23,52.85,364.32,62.53,369Z"/></g><path class="cls-2" d="M69.67,373.33a18.94,18.94,0,0,1-8.32-1.91,20.64,20.64,0,0,1-11.79-14.71c-1.79-8,0-18.32,5.29-30.57,3.89-9,8.81-16.8,10.58-19s9.3-9.47,26.66-6c8.85,1.75,15.26,1.3,19.06-1.34,2.35-1.63,3.78-4.15,4.36-7.72a2.73,2.73,0,0,1,5.39.88c-.82,5-3.06,8.84-6.64,11.33-5.13,3.56-12.73,4.28-23.23,2.2-14.75-2.91-20.39,2.94-21.37,4.14-2.31,2.83-18.47,28.3-14.77,44.9a15.23,15.23,0,0,0,8.82,11c15.66,7.52,33.22-18.42,33.4-18.68l1.51-2.27,2.28,1.52c.09.06,10.34,6.7,27.34,5.66,15.82-1,40.91-9,70.56-41.53a2.73,2.73,0,1,1,4,3.67c-13.66,15-27.61,26.32-41.47,33.59-11.21,5.88-22.38,9.16-33.22,9.74-1.21.07-2.39.1-3.54.1a54.25,54.25,0,0,1-24.43-5.39,75.38,75.38,0,0,1-10.68,11.55C82.65,370.35,75.93,373.33,69.67,373.33Z"/><path class="cls-1" d="M193.68,186.85c-1.73-.3-38-17.37-62.36-17-20.3.29-59,68.83-52.17,86.84,6.31,16.7,41.43,31.87,41.43,31.87Z"/><path class="cls-1" d="M193.68,186.85,181.8,203.38l-61.22,85.16s-17-7.36-29.5-17.47c-5.44-4.4-10-9.33-11.92-14.4-6.81-18,31.86-86.56,52.16-86.84C155.66,169.48,192,186.55,193.68,186.85Z"/><g class="cls-3"><path class="cls-2" d="M181.8,203.38l-61.22,85.16h0l-.73-.33-.26-.12,0,0-.28-.12-.76-.36-.22-.1-.2-.09-.26-.13c-.9-.42-2-1-3.25-1.58l-.47-.23-1.46-.75-.51-.26-.61-.32-.76-.4-.22-.12-.57-.3c-.53-.3-1.07-.59-1.63-.89l0,0-1.17-.66,0,0-.86-.48-.54-.31-2.09-1.23-1.37-.83-1.25-.78-1.26-.8-1.26-.83c-.42-.28-.84-.56-1.25-.85l-1.25-.86h0l-1.24-.89-1.22-.9-.19-.14-1-.78-1.19-.95c-5.44-4.4-10-9.32-11.92-14.4-3.56-9.4,5.28-32.56,17.42-52.59-5.4,12.72-8.12,24.21-5.87,30.18a23.83,23.83,0,0,0,3.59,6.16,34.49,34.49,0,0,0,6.08,6.11C114.07,222.11,139.43,193.69,153,195c7.86.79,16.76,3.53,25.25,6.9C179.45,202.41,180.64,202.89,181.8,203.38Z"/></g><path class="cls-2" d="M121.52,291.92l-2-.87a163.89,163.89,0,0,1-18.69-9.86c-13.23-8.13-21.37-16.05-24.21-23.55-2.71-7.16.82-19.25,4.25-28.13a180.8,180.8,0,0,1,18.5-34.8c7-10.24,20.38-27.45,31.93-27.61,8.95-.13,20.45,2,34.16,6.3,11.05,3.47,20.63,7.42,25.77,9.55,1.36.56,2.65,1.09,3.07,1.24l4.16.72Zm10.53-119.37h-.7c-6.43.1-17,9.76-27.49,25.23a175,175,0,0,0-17.92,33.7c-4.3,11.13-5.85,20-4.23,24.23,2.36,6.24,9.93,13.44,21.9,20.8a164.5,164.5,0,0,0,16.06,8.62l69.74-97-.28-.12C179.83,184.15,151.76,172.55,132.05,172.55Zm62.29,11.66Z"/><path class="cls-2" d="M130,168.66c.89,1,1.74,1.92,2.6,2.89s1.7,1.94,2.53,2.92c1.68,2,3.33,3.94,4.94,6s3.18,4.07,4.68,6.2c.19.26.38.52.56.79l.55.81c.37.55.74,1.08,1.09,1.64s.7,1.1,1,1.67l1,1.73a1.56,1.56,0,0,1-2.68,1.59l0-.05a63.92,63.92,0,0,0-4.34-6.05c-1.56-2-3.21-3.88-4.89-5.77s-3.4-3.74-5.15-5.57c-.88-.92-1.76-1.83-2.65-2.73s-1.79-1.8-2.67-2.66h0a2.41,2.41,0,0,1,3.36-3.46Z"/><path class="cls-1" d="M94.24,206.55,111.39,220a4.27,4.27,0,0,1,1.29,5.07c-2.84,6.53-10.18,21.27-18.85,22-7.2.58-14.54-5-16.48-11.74-2.18-7.59,6.24-21.24,10.73-27.78A4.27,4.27,0,0,1,94.24,206.55Z"/><g class="cls-3"><path class="cls-2" d="M112.68,225.05c-2.84,6.53-10.19,21.27-18.85,22-7.2.58-14.54-5-16.49-11.75C76,230.61,78.68,223.65,82,217.46a18.11,18.11,0,0,0-.86,9.25c3.19,14.93,16.95,9,16.95,9s-.51,3.32.33,4.09c3.53,3.23,10.95-9.62,14.63-16.35A4.3,4.3,0,0,1,112.68,225.05Z"/></g><path class="cls-2" d="M92.81,249.79c-7.91,0-15.85-5.94-18.09-13.76-2.32-8.1,4.76-20.83,11.11-30.08a7,7,0,0,1,10.09-1.55h0l17.16,13.44a7,7,0,0,1,2.1,8.3,77.9,77.9,0,0,1-7.52,13.67c-4.44,6.22-9,9.56-13.61,9.93C93.63,249.77,93.22,249.79,92.81,249.79ZM91.6,208.37l-.23,0a1.53,1.53,0,0,0-1,.65c-7.8,11.37-11.68,20.89-10.36,25.48a14.13,14.13,0,0,0,12.82,9.81c.27,0,.55,0,.82,0,5.9-.47,12.43-10.82,16.57-20.34a1.55,1.55,0,0,0-.47-1.83L92.55,208.7A1.54,1.54,0,0,0,91.6,208.37Z"/><path class="cls-2" d="M83.47,241.18h.07l.16,0,.35,0c.24,0,.49,0,.75,0a12,12,0,0,0,1.56-.17,12.43,12.43,0,0,0,1.58-.36,15.33,15.33,0,0,0,1.57-.54,20.24,20.24,0,0,0,5.76-3.67,28.45,28.45,0,0,0,2.5-2.53l.58-.68.58-.71.56-.72c.19-.24.38-.48.56-.73.74-1,1.44-2,2.08-3,.32-.51.63-1,.91-1.56.15-.26.28-.53.41-.79l.18-.4a1.08,1.08,0,0,1,.08-.19l.06-.17,0-.09a.72.72,0,0,1,1.37.42l0,.15,0,.13a1.82,1.82,0,0,1-.07.25c0,.16-.1.31-.15.47-.1.31-.22.62-.34.92-.23.6-.5,1.18-.77,1.76-.56,1.15-1.17,2.27-1.82,3.36-.16.28-.32.55-.49.82s-.33.54-.5.81l-.51.8-.54.8a30.9,30.9,0,0,1-2.42,3.08,24,24,0,0,1-6.26,5,19,19,0,0,1-1.87.9,18.06,18.06,0,0,1-4.09,1.17c-.36,0-.73.1-1.11.12-.19,0-.38,0-.58,0h-.71a2.41,2.41,0,1,1,.6-4.78Z"/><path class="cls-1" d="M235.3,244.67a111.76,111.76,0,0,0,21.42.19c26.11-1.94,71-12.38,105.56-57.6,4.5-5.89,26.29-8.3,20.6-20.58-1.72-3.72-6.24-4.51-6.24-4.51s6.62-2.71,5.08-9.6c-2.43-10.9-22.23-6.23-22.23-6.23s6.63-7,8.09-13.54a9,9,0,0,0-5-9.86c-8.1-3.12-24.74,9.11-34.87,15.95-9.54,6.44-15.68,14.77-22,23.33-9.88,13.33-20.25,27.2-44.78,35.27a138.94,138.94,0,0,1-29.93,5.9l2.94,27.84Z"/><g class="cls-3"><path class="cls-2" d="M235.3,244.67a111.76,111.76,0,0,0,21.42.19c26.11-1.94,71-12.38,105.56-57.6,3.81-5,20-7.48,21.43-15.55-1.79-3.82-16.78,7.06-20.79,8.19-7.77,2.19-9.47-2.54-9.8-4.61-1.22-7.87,28-12,28.33-18.88.47-8.79-8.89,6.69-30.93,7.13-7,.13-8.7-8.47-9-7.87-7.9,17.82,5.66,30-2.26,41.67-23.66,34.82-59.41,29.38-81.52,31a112.22,112.22,0,0,1-21.42-.2l-1.42-13.44L233.7,203.1c-.91.11-1.83.2-2.76.29l2.94,27.84Z"/></g><path class="cls-2" d="M246.52,248a90.91,90.91,0,0,1-11.59-.62,2.73,2.73,0,1,1,.75-5.4c.18,0,18.76,2.47,43.29-3.27,22.56-5.28,54.94-18.78,81.14-53.09,1.93-2.53,5.73-4.27,9.75-6.11,4.61-2.1,9.83-4.49,11-7.62a5.14,5.14,0,0,0-.45-4c-1.06-2.29-4.06-2.94-4.25-3a2.72,2.72,0,0,1-.56-5.21c.52-.22,4.45-2.09,3.47-6.49a5.06,5.06,0,0,0-2.4-3.35c-4.48-2.81-13.47-1.53-16.55-.81a2.72,2.72,0,0,1-2.6-4.53c.06-.07,6.13-6.53,7.41-12.26a6.29,6.29,0,0,0-3.36-6.72c-1.69-.65-5.27-.62-12.71,3.2a168.24,168.24,0,0,0-16.76,10.49l-2.89,2c-9.08,6.12-15,14.07-21.2,22.48-6.73,9.09-13.7,18.5-25.19,26.29C269.87,198.7,253,204,231.21,206.11a2.73,2.73,0,1,1-.53-5.43c46.43-4.52,59.91-22.71,72.94-40.3,6.23-8.41,12.67-17.11,22.52-23.75l2.88-2a172.89,172.89,0,0,1,17.33-10.83c7.63-3.92,13.09-5,17.17-3.45a11.73,11.73,0,0,1,6.73,13,28.84,28.84,0,0,1-4.41,9.31l.4,0c5.68-.32,10.17.52,13.32,2.49A10.89,10.89,0,0,1,382,161.57a10,10,0,0,1,3.38,4,10.46,10.46,0,0,1,.61,8.23c-1.94,5.25-8.26,8.14-13.83,10.7-3.24,1.47-6.58,3-7.69,4.45A150.62,150.62,0,0,1,322,227.19a146.16,146.16,0,0,1-42,16.87A148.9,148.9,0,0,1,246.52,248Z"/><path class="cls-1" d="M6.56,295.25c12.29,14.47,30.18-2.82,30.18-2.82S50.37,330.26,79,338.12c24.06,6.6,53.89-9.22,53.89-9.22s101.86,28.27,123.83-84a219.9,219.9,0,0,0,3.33-25.14q.81-10.46.82-22.23,0-6.17-.25-12.68l-84.45-7.62-9.73-.88-2.43-.22q-.19.81-.42,1.62c-4.18,15.3-12.42,26.89-21.24,36.12C131.16,225.56,119,233.48,113,240.35A80.54,80.54,0,0,0,105.2,251a60.53,60.53,0,0,0-5,9.66c-3.71,2.93-15.48,11.42-25.2,5.07-3.37-2.2-5.66-5.94-7.67-10-3.56-7.21-6.27-15.47-12.67-18.16-9.25-3.87-19.87-.36-28.7,6.13a55.39,55.39,0,0,0-13.71,14.58C6.49,267.41-2.43,284.68,6.56,295.25Z"/><g class="cls-3"><path class="cls-2" d="M4.48,292.1a15.33,15.33,0,0,0,2.08,3.15c12.29,14.47,30.18-2.82,30.18-2.82S50.37,330.26,79,338.12c24.06,6.6,53.89-9.22,53.89-9.22S232,356.41,255.78,249.33c-23.94,75-89.86,70.82-111.88,67.14a25.58,25.58,0,0,0-14.05,1.6c-10.2,4.23-30.1,10.77-47.11,6.11-28.63-7.86-35.7-44.88-48-48C31.8,275.44,26.07,306.56,4.48,292.1Z"/></g><path class="cls-2" d="M91.8,342.46a50.92,50.92,0,0,1-13.52-1.71,50.22,50.22,0,0,1-19.76-11,80.45,80.45,0,0,1-13.65-15.87,109.65,109.65,0,0,1-9.25-16.93c-3.67,2.77-10.24,6.83-17.33,6.83l-.9,0A17.7,17.7,0,0,1,4.48,297c-4.55-5.36-5.64-12.6-3.24-21.51A70.2,70.2,0,0,1,10,256.8,57.15,57.15,0,0,1,29.82,238a37.32,37.32,0,0,1,12.76-4.49A24.78,24.78,0,0,1,55.75,235C62,237.66,65.08,244.3,68,250.72c2.32,5.05,4.73,10.27,8.49,12.73,3.4,2.22,7.58,2.44,12.42.67A35.28,35.28,0,0,0,98,259a78,78,0,0,1,13-20.39c3-3.4,7.2-6.92,12.1-11,13.45-11.17,31.87-26.45,38.29-52.16a2.73,2.73,0,0,1,5.3,1.33c-6.86,27.43-26.07,43.38-40.11,55-4.72,3.91-8.79,7.3-11.47,10.36a71.53,71.53,0,0,0-12.28,19.46l-.27.71-.6.48a41.19,41.19,0,0,1-11.1,6.44c-6.46,2.37-12.44,1.95-17.29-1.22-5.07-3.32-7.81-9.26-10.46-15S58,241.88,53.64,240.07c-13-5.43-30.38,6-39,19.65a64.61,64.61,0,0,0-8.08,17.22C4.6,284,5.32,289.58,8.63,293.48a12.32,12.32,0,0,0,9,4.8c8.52.43,17.12-7.73,17.2-7.81l3-2.92,1.42,3.95a100.87,100.87,0,0,0,10.17,19.42c6.11,9.1,16.31,20.75,30.25,24.57,11.77,3.23,25.18.65,34.36-2.09a106.86,106.86,0,0,0,17.53-6.91l1-.51,1.05.29a112.89,112.89,0,0,0,28.76,3.05c15.07-.26,36.94-3.67,55.62-18.44,28.72-22.72,42.14-65.1,39.89-126a2.73,2.73,0,1,1,5.46-.2c1.24,33.6-2.3,62.11-10.53,84.76-7.06,19.42-17.65,34.8-31.48,45.72a88.06,88.06,0,0,1-30.27,15.42,109.43,109.43,0,0,1-28.79,4.17l-2,0a118.82,118.82,0,0,1-27.1-3,116.42,116.42,0,0,1-17.46,6.8,92,92,0,0,1-17.94,3.59C95.76,342.37,93.75,342.46,91.8,342.46Z"/><path class="cls-1" d="M324.1,145.23c6.75-10.58,21.14-13.13,24-12.59,2.15.42,7.26,7.3,2,11.46s-9.63,4.06-9.56,6.15,3.64,9.5-2.09,16.77"/><path class="cls-2" d="M323.33,144.74a22.36,22.36,0,0,1,5.74-7.45,31.24,31.24,0,0,1,8.08-5,34.65,34.65,0,0,1,4.5-1.56c.77-.21,1.56-.39,2.36-.54a21.69,21.69,0,0,1,2.52-.31l.34,0h.36l.8,0,.5.07a5.71,5.71,0,0,1,.71.19,5.8,5.8,0,0,1,1,.5,7.87,7.87,0,0,1,1.32,1,11.17,11.17,0,0,1,1,1.1,11.79,11.79,0,0,1,1.5,2.42,11,11,0,0,1,.89,2.81,8.43,8.43,0,0,1-.05,3.2,8.2,8.2,0,0,1-1.34,3,7.68,7.68,0,0,1-.5.63c-.17.21-.36.38-.54.57a6.58,6.58,0,0,1-.57.5l-.15.12-.14.11-.25.19c-.66.48-1.34.94-2,1.37a31.37,31.37,0,0,1-4.33,2.11c-.71.28-1.42.54-2,.78-.26.11-.47.23-.51.24a.67.67,0,0,0,.09-.15,1,1,0,0,0,.12-.45.27.27,0,0,0,0-.09v0h0v.09c0,.11,0,.26.05.42.05.32.12.68.19,1.05.14.75.27,1.54.37,2.33a19.14,19.14,0,0,1,0,4.9,14.79,14.79,0,0,1-1.44,4.72,14.94,14.94,0,0,1-2.79,3.88.91.91,0,0,1-1.44-1.1v0a15.81,15.81,0,0,0,1.67-3.78,13.43,13.43,0,0,0,.42-2,14.6,14.6,0,0,0,.11-2,16.47,16.47,0,0,0-.14-2c-.09-.66-.23-1.32-.38-2s-.35-1.33-.56-2c-.1-.35-.21-.71-.31-1.11-.06-.21-.11-.42-.16-.68l0-.2s0-.08,0-.12v-.13l0-.13v-.53a3.54,3.54,0,0,1,.48-1.49,4.27,4.27,0,0,1,.82-1,7.73,7.73,0,0,1,1.37-.93c.8-.42,1.46-.72,2.11-1s1.26-.62,1.85-1,1.16-.68,1.71-1,1.09-.76,1.6-1.17l.19-.16.08-.07.06-.06a1.93,1.93,0,0,0,.25-.24,2.92,2.92,0,0,0,.4-.5,2.57,2.57,0,0,0,.42-1c0-.09,0-.19,0-.28s0-.2,0-.3,0-.21,0-.32v-.16l0-.17a6.39,6.39,0,0,0-1.32-2.76,4.57,4.57,0,0,0-.49-.56,3.14,3.14,0,0,0-.42-.36s-.05,0,0,0h0l.06,0h0l-.32,0h-.41a16.68,16.68,0,0,0-1.91.17c-.66.09-1.33.2-2,.35s-1.34.3-2,.47-1.33.38-2,.6a35.11,35.11,0,0,0-7.56,3.45,28.5,28.5,0,0,0-6.45,5.4h0a.91.91,0,0,1-1.29.08A.92.92,0,0,1,323.33,144.74Z"/><path class="cls-1" d="M256.2,260.86l-30.27,39.86-30.56,3-16.16,1.58s-12.46-4.78-15.46-6c-4.09-1.63-2.43-6.57-.53-9.32a96.93,96.93,0,0,0,7.93-13.85c3.4-7.23,5.63-14,7.69-19.46a10.56,10.56,0,0,1,11-6.82c28.63,3.08,56.8,2.94,56.8,2.94Z"/><path class="cls-2" d="M179.21,307.7a2.58,2.58,0,0,1-.87-.16c-.51-.2-12.5-4.8-15.49-6a6.1,6.1,0,0,1-3.76-4c-.91-3,.51-6.62,2.14-9,7.17-10.37,10.93-20.69,14-29,.48-1.33.94-2.59,1.39-3.81a13,13,0,0,1,13.54-8.38c28.16,3,56.25,2.94,56.53,2.93a2.44,2.44,0,0,1,1.57.57l9.55,8.07a2.41,2.41,0,0,1,.37,3.31l-30.27,39.87a2.42,2.42,0,0,1-1.69.94l-46.73,4.55Zm9.51-55.49a8.16,8.16,0,0,0-7.62,5.31c-.45,1.19-.9,2.44-1.38,3.76-3.11,8.56-7,19.2-14.52,30.08-1.16,1.69-1.8,3.76-1.48,4.83.08.28.26.6.92.86,2.61,1,12.49,4.84,14.9,5.77l45.11-4.4,28.24-37.19-7.12-6c-5.05,0-30.58-.21-56.18-3A8.44,8.44,0,0,0,188.72,252.21Z"/><g class="cls-4"><path class="cls-2" d="M195.37,303.7l-16.16,1.58s-12.46-4.78-15.46-6-2.89-4.42-1.77-7.08a12.43,12.43,0,0,1,1.24-2.23,97.56,97.56,0,0,0,7.93-13.86c.65,2.05,2.58-.08,7.7-1.68,6.05-1.88,9-7,12.52-8.22C201.71,262.7,198,292.16,195.37,303.7Z"/></g><path class="cls-1" d="M237,286.81c-1.41,3.81-2.73,8.67-2.73,8.67s-8-2.11-8.62-2.34c-2.07-.77-2.12-5.82-.1-11.28s5.34-9.26,7.41-8.5c1.52.56,8,2.19,8,2.19S237.58,285.35,237,286.81Z"/><ellipse class="cls-1" cx="237.53" cy="285.48" rx="10.54" ry="5.33" transform="translate(-112.62 409.22) rotate(-69.7)"/><path class="cls-1" d="M255.47,263c-2.17,3.89-5.6,10.09-9.4,16.46-5.43,9.13-11.6,18.61-15.85,22.19-7.4,6.22-34,5.85-51,3.59-4.45-.6-7-5.27-4.51-9,4.08-6.12,7.6-12.2,10.45-17.52,2.7-5.05,4.81-9.41,6.23-12.51a7,7,0,0,1,7.42-4c26.87,4.06,46.06.26,54.42-2.08A2,2,0,0,1,255.47,263Z"/><g class="cls-4"><path class="cls-2" d="M239.06,290.68a72.89,72.89,0,0,1-7.35,9.59c-.52.54-1,1-1.49,1.42-7.4,6.22-34,5.85-51,3.59-4.45-.6-7-5.28-4.51-9,4.08-6.12,7.6-12.2,10.45-17.53.87,4.82,4.71,15.21,21.75,18.82a25.89,25.89,0,0,0,13.59-1.17c-.66-2.07-.27-5.77,1.17-9.68,2-5.46,5.34-9.27,7.41-8.5,1.27.47,6,1.68,7.48,2.07a2.45,2.45,0,0,1,.7.16c1.46.53,2.32,2.28,2.5,4.6A16.41,16.41,0,0,1,239.06,290.68Z"/></g><g class="cls-4"><path class="cls-2" d="M239.06,290.68a16.41,16.41,0,0,0,.68-5.65c2.27-1.84,4.4-3.72,6.33-5.53C243.8,283.32,241.4,287.2,239.06,290.68Z"/></g><path class="cls-2" d="M202.37,309.2a183.73,183.73,0,0,1-23.48-1.53,8.69,8.69,0,0,1-6.89-5,7.86,7.86,0,0,1,.68-7.75,223,223,0,0,0,16.49-29.7l2.2,1-2.2-1a9.47,9.47,0,0,1,10-5.38c26.07,3.94,44.65.42,53.41-2a4.41,4.41,0,0,1,5,6.39l-.53,1c-5.83,10.45-18,32.21-25.29,38.37-3.79,3.2-11.65,5.06-23.37,5.55C206.47,309.16,204.45,309.2,202.37,309.2Zm-4.62-44.63a4.63,4.63,0,0,0-4.19,2.67,228.2,228.2,0,0,1-16.86,30.37,3.07,3.07,0,0,0-.29,3.07,3.91,3.91,0,0,0,3.11,2.2c18.9,2.52,43.06,2.07,49.14-3.05,6.64-5.59,18.93-27.62,24.17-37l0-.05c-9.49,2.52-28.41,5.8-54.43,1.87A5.19,5.19,0,0,0,197.75,264.57Z"/><path class="cls-5" d="M237,286.81c-1.41,3.81-2.73,8.67-2.73,8.67s-8-2.11-8.62-2.34c-2.07-.77-2.12-5.82-.1-11.28s5.34-9.26,7.41-8.5c1.52.56,8,2.19,8,2.19S237.58,285.35,237,286.81Z"/><g class="cls-6"><path class="cls-1" d="M241,275.55s-3.37,9.79-3.91,11.26c-1.42,3.81-2.73,8.67-2.73,8.67l-.43-.11c.49-1.58,1.09-3.49,1.72-5.18.54-1.47,3.92-11.26,3.92-11.26s-6.44-1.63-8-2.19c-1.68-.62-4.19,1.77-6.15,5.62l.18-.5c2-5.46,5.34-9.26,7.41-8.5C234.52,273.92,241,275.55,241,275.55Z"/></g><g class="cls-4"><path class="cls-2" d="M236.4,288.64c-1.15,3.37-2.09,6.84-2.09,6.84s-8-2.11-8.62-2.34c-2.07-.77-2.12-5.81-.1-11.28A24.9,24.9,0,0,1,228,277c-1.4,4.75-1.16,8.84.68,9.52C229.16,286.71,234.3,288.08,236.4,288.64Z"/></g><path class="cls-2" d="M234.31,297.5a1.86,1.86,0,0,1-.52-.07c-2.43-.64-8.16-2.16-8.8-2.4-3.88-1.44-3.39-8.19-1.29-13.86a23.6,23.6,0,0,1,4.06-7.21c2.68-3.08,4.87-2.88,5.94-2.49s6,1.69,7.75,2.13a2,2,0,0,1,1.41,2.61c-.14.4-3.39,9.83-3.94,11.3-1.36,3.68-2.66,8.45-2.67,8.5A2,2,0,0,1,234.31,297.5Zm-7.83-6.22c.68.2,3.49,1,6.43,1.75.52-1.8,1.36-4.54,2.24-6.92.37-1,2.17-6.2,3.19-9.15-2-.52-4.82-1.28-5.94-1.67-.76.18-3.12,2.4-4.92,7.27S226,290.63,226.48,291.28ZM237,286.81Z"/><ellipse class="cls-5" cx="237.53" cy="285.48" rx="10.54" ry="5.33" transform="translate(-112.62 409.22) rotate(-69.7)"/><g class="cls-6"><path class="cls-1" d="M242.51,287.32q-.19.54-.42,1.05c.94-4.35.13-8.09-2.15-8.94-2.58-.95-6.13,2.14-8.23,7a21,21,0,0,1,.81-2.81c2-5.46,5.9-9.06,8.66-8S244.54,281.86,242.51,287.32Z"/></g><g class="cls-4"><path class="cls-2" d="M242.33,287.79c-2.06,5.2-5.79,8.56-8.47,7.58s-3.35-6.28-1.34-11.74a16.63,16.63,0,0,1,4.27-6.64l-.18.45c-2,5.46-1.42,10.72,1.35,11.73C239.27,289.66,240.83,289.1,242.33,287.79Z"/></g><path class="cls-2" d="M234.86,297.56a4.85,4.85,0,0,1-1.69-.3c-3.93-1.46-5-7.62-2.53-14.33a19,19,0,0,1,4.57-7.23c2.22-2.06,4.59-2.77,6.67-2,3.92,1.45,5,7.61,2.53,14.32a19.06,19.06,0,0,1-4.57,7.23A7.51,7.51,0,0,1,234.86,297.56Zm5.33-20.13a3.89,3.89,0,0,0-2.24,1.23,16.61,16.61,0,0,0-4.54,12.28c.15,1.34.6,2.33,1.15,2.54s1.55-.26,2.54-1.18A16.61,16.61,0,0,0,241.64,280c-.15-1.34-.61-2.34-1.16-2.54A.88.88,0,0,0,240.19,277.43Z"/><path class="cls-2" d="M199,308.76a2,2,0,0,1-1.74-3l9.58-16.68-4.59-4.1a2,2,0,0,1-.5-2.3l8.55-19.79a2,2,0,0,1,3.7,1.6l-8,18.45,4.72,4.22a2,2,0,0,1,.4,2.51l-10.39,18.09A2,2,0,0,1,199,308.76Z"/><path class="cls-2" d="M72.1,338a2.39,2.39,0,0,1-1.72-.72c-5.24-5.31-8.23-12.48-8.89-21.32-.51-6.86.4-14.75,2.68-23.44a132.44,132.44,0,0,1,10.5-26.92,2.42,2.42,0,1,1,4.25,2.31,129.34,129.34,0,0,0-10.09,25.92c-3.31,12.62-5.13,29.81,5,40a2.42,2.42,0,0,1,0,3.42A2.44,2.44,0,0,1,72.1,338Z"/><path class="cls-2" d="M312.46,231.77h-.17c-13.33-.93-22.76-9.43-27.25-24.59a73.51,73.51,0,0,1-2.74-22.12,2.42,2.42,0,1,1,4.83.25,69.58,69.58,0,0,0,2.58,20.6c3.93,13.18,11.64,20.25,22.92,21a2.42,2.42,0,0,1-.17,4.83Z"/><path class="cls-2" d="M377.8,164.29c-.39.28-.8.54-1.21.8-.2.13-.42.24-.63.35l-.65.33c-.43.22-.89.39-1.33.57a13.85,13.85,0,0,1-1.37.47,31.49,31.49,0,0,1-5.48,1.06c-1.78.21-3.47.38-5.17.66s-3.4.67-5.16,1.13h0a.35.35,0,0,1-.43-.25.37.37,0,0,1,.1-.35,20.8,20.8,0,0,1,4.55-3.25,38.77,38.77,0,0,1,5.1-2.19c1.69-.61,3.28-1.2,4.8-1.78.38-.15.77-.28,1.14-.44l.56-.23.29-.1c.09,0,.18-.09.27-.12l1.14-.46c.37-.15.75-.3,1.15-.43l.17-.05a2.43,2.43,0,0,1,2.17,4.28Z"/><path class="cls-2" d="M361.38,147.84l-.17.29-.15.23c-.1.15-.2.3-.31.44s-.43.56-.66.82a15.16,15.16,0,0,1-1.44,1.45,26.12,26.12,0,0,1-3.22,2.43c-1.12.74-2.28,1.42-3.47,2.06-.6.31-1.21.61-1.82.89l-.95.41c-.31.13-.63.25-1,.37a.37.37,0,0,1-.47-.23.39.39,0,0,1,0-.3h0c.17-.3.36-.59.55-.87s.37-.56.57-.84q.57-.82,1.17-1.62c.78-1.06,1.6-2.09,2.4-3.1s1.62-2,2.47-2.93c.43-.47.86-.92,1.31-1.34.22-.22.44-.43.67-.63l.34-.29.16-.13.08-.06,0,0h0l1.16-.37a2.29,2.29,0,0,1,2.64,3.36Z"/><path class="cls-1" d="M101.86,255.66c11.31,36.7,70,42.62,75.62,23.76,1.9-6.38-3.27-10.38-3.27-10.38s-49.71.2-62.75-31C111.46,238,97.94,242.94,101.86,255.66Z"/><g class="cls-4"><path class="cls-2" d="M101.86,255.65c11.32,36.7,70,42.63,75.62,23.77a9.34,9.34,0,0,0-.31-6.38c-11.58,18.72-69.25,5.36-72.24-28.84a13.17,13.17,0,0,0-.39-1.47C102,245.57,100.06,249.78,101.86,255.65Z"/></g><path class="cls-2" d="M155.05,292.6A68.13,68.13,0,0,1,122.57,284c-11.75-6.62-19.81-16.13-23.31-27.5-2.43-7.89.84-13.24,4-16.35a22.73,22.73,0,0,1,7.24-4.66A2.73,2.73,0,0,1,114,237c5.06,12.11,16.62,20.72,34.36,25.61a108.88,108.88,0,0,0,25.87,3.74h0a2.7,2.7,0,0,1,1.67.57c.28.21,6.62,5.24,4.21,13.31-2.28,7.7-11.54,12.34-24.75,12.41Zm-44.9-50.9a16.25,16.25,0,0,0-3.16,2.43c-3,3-3.82,6.5-2.52,10.72,6.48,21,30.83,32.3,50.58,32.3h.26c10.52-.06,18-3.32,19.55-8.51a7,7,0,0,0-1.74-6.89A114.69,114.69,0,0,1,147,267.87a74,74,0,0,1-21.76-9.57A44.1,44.1,0,0,1,110.15,241.7Z"/><path class="cls-1" d="M10.54,225.4s-.69,4.61,1.93,8.11a28.33,28.33,0,0,0,6,5.43A83.06,83.06,0,0,0,26,243.68a122.26,122.26,0,0,0,15.76,7.46,82.39,82.39,0,0,0,25.62,4.57A130.28,130.28,0,0,0,105.2,251c11.4-3.14,21.86-7.65,29.88-13l5.7-8.44,7.8-11.53,27.59-40.8,6.27-9.27c-.27.15-6.35,3.62-16,8.39l-2.85,1.4A372.67,372.67,0,0,1,122.06,195c-24.64,8.39-51.88,13.92-71.5,7.42-22.85-7.58-33.64-13.12-39.36-7.08s1.18,14.31,1.18,14.31-5,3.58-5.08,8.77A10.26,10.26,0,0,0,10.54,225.4Z"/><g class="cls-3"><path class="cls-2" d="M41.72,219.49A12.68,12.68,0,0,0,43,222.84C42.3,220.81,41.72,219.49,41.72,219.49Z"/></g><g class="cls-3"><path class="cls-2" d="M18.46,238.94A83.06,83.06,0,0,0,26,243.68a121.64,121.64,0,0,0,15.76,7.46,82.39,82.39,0,0,0,25.62,4.57A130.32,130.32,0,0,0,105.2,251c11.4-3.14,21.85-7.65,29.88-13h0a3.33,3.33,0,0,0-3.84-5c-15.58,5.31-41.1,12.79-54.3,9.95-23.35-5-31.33-14.89-34-20,1.93,5.82,4.51,17.4-4.41,19.47C35.14,243.1,24.73,241.59,18.46,238.94Z"/></g><path class="cls-2" d="M182.9,168.7c-.8.7-1.61,1.35-2.44,2s-1.67,1.24-2.53,1.83q-2.55,1.77-5.21,3.37c-3.54,2.13-7.2,4-10.89,5.88-7.38,3.69-15,6.83-22.7,9.83-3.85,1.49-7.71,3-11.6,4.37s-7.81,2.71-11.76,3.94a204,204,0,0,1-24.16,6c-4.1.74-8.24,1.32-12.42,1.67a98.39,98.39,0,0,1-12.63.31L65,207.79l-.79,0-.79-.07-1.59-.15c-.53-.05-1.06-.13-1.59-.2-1.06-.12-2.11-.31-3.17-.49-.26,0-.53-.09-.79-.15l-.79-.16-.79-.17-.39-.09-.39-.1-1.57-.4-.39-.1-.39-.12-.77-.24c-1.06-.31-2-.64-3-1l-5.84-2c-3.88-1.34-7.74-2.72-11.58-4-1.91-.63-3.83-1.23-5.73-1.74l-1.41-.36c-.47-.12-.94-.21-1.41-.31a24.72,24.72,0,0,0-2.73-.41,12.11,12.11,0,0,0-2.49,0,5.83,5.83,0,0,0-2,.59A5.32,5.32,0,0,0,13,197.4a5.67,5.67,0,0,0-1.06,1.76,5.51,5.51,0,0,0-.31,2,8.61,8.61,0,0,0,.42,2.26,13.44,13.44,0,0,0,1,2.32c.21.38.44.75.68,1.11.12.19.25.36.37.54s.13.17.19.25l.16.19,1.78,2.25L14,211.84l-.12.1-.17.14q-.18.13-.36.3c-.23.21-.46.43-.68.66a12.28,12.28,0,0,0-1.19,1.44,7.69,7.69,0,0,0-1.34,3.08c0,.13,0,.26,0,.38s0,.26,0,.39v.56a1.25,1.25,0,0,0,0,.19c0,.12,0,.25.05.38l.09.38a7.37,7.37,0,0,0,1.08,2.26l.12.18.14.18c.08.12.18.23.27.34a3,3,0,0,0,.29.32c0,.06.09.1.13.15l.07.06,0,0,.9,2.45h0v0a.28.28,0,0,1,0,.09c0,.07,0,.13,0,.2s0,.28,0,.42,0,.3,0,.44v.44a9.52,9.52,0,0,0,.25,1.71,6.71,6.71,0,0,0,.22.8,7.32,7.32,0,0,0,.29.75,7.49,7.49,0,0,0,.36.69c.07.11.15.21.21.31l.11.16a1.55,1.55,0,0,0,.13.17,19.46,19.46,0,0,0,2.68,2.7c1,.87,2.13,1.69,3.27,2.49,2.29,1.59,4.73,3,7.22,4.44s5.05,2.68,7.64,3.89c1.29.61,2.6,1.2,3.91,1.76l2,.8c.65.26,1.29.5,2,.73l2,.67,2,.59.5.15.51.13,1,.25,1,.26,1,.22A90.33,90.33,0,0,0,68.36,253c1.42,0,2.84,0,4.27,0l1.07,0c.36,0,.71,0,1.07,0l2.14-.09c2.85-.17,5.7-.39,8.53-.76A134.2,134.2,0,0,0,102.3,249c2.76-.72,5.51-1.54,8.19-2.51l.51-.17.5-.19,1-.37c.67-.26,1.34-.49,2-.76l2-.77,2-.78,1-.39,1-.4,1-.39.5-.19.49-.21c.65-.27,1.31-.54,2-.79s1.31-.55,2-.8,1.32-.53,2-.79l1-.38c.18-.06.34-.13.51-.2l.5-.19,1-.38.52-.18.51-.19c.68-.26,1.38-.5,2.11-.71h0a.94.94,0,0,1,1.17.64.92.92,0,0,1-.19.88c-.5.58-1,1.13-1.57,1.67-.27.27-.55.52-.83.77s-.57.5-.87.74c-.57.5-1.17.95-1.78,1.39s-1.22.9-1.86,1.29-1.28.81-1.92,1.19-1.32.73-2,1.08l-.5.26-.5.25-1,.49-1,.48c-.33.16-.68.3-1,.45a78,78,0,0,1-8.44,3l-2.15.64c-.71.21-1.43.4-2.15.6l-1.08.31-1.08.29-2.16.57a137.55,137.55,0,0,1-17.54,3.3c-3,.38-5.93.62-8.91.79l-2.24.1c-.37,0-.75,0-1.12,0l-1.12,0c-1.49,0-3,0-4.48,0a95.87,95.87,0,0,1-17.9-2c-.37-.08-.74-.15-1.1-.24l-1.11-.28-1.1-.27-.55-.14-.55-.16-2.18-.65c-.73-.23-1.44-.48-2.17-.73s-1.44-.51-2.14-.79-1.4-.57-2.09-.86c-1.38-.59-2.74-1.2-4.09-1.83q-4-1.91-8-4.07a89.24,89.24,0,0,1-7.69-4.73,46.09,46.09,0,0,1-3.69-2.81,24.64,24.64,0,0,1-3.47-3.52c-.06-.09-.13-.16-.2-.26l-.2-.3c-.14-.2-.28-.39-.4-.6A13.36,13.36,0,0,1,9,233a11.5,11.5,0,0,1-.51-1.29c-.13-.44-.27-.87-.36-1.31a15.77,15.77,0,0,1-.38-2.62l0-.65c0-.22,0-.44,0-.66s0-.44,0-.67l0-.35a1.41,1.41,0,0,1,0-.18v-.1l0-.13.89,2.44-.19-.17-.14-.14-.26-.27c-.17-.18-.32-.36-.48-.54s-.3-.36-.44-.55L7,225.49l-.2-.29a13.78,13.78,0,0,1-1.38-2.54,13,13,0,0,1-.48-1.41l-.17-.75c0-.24-.07-.5-.11-.75s0-.26,0-.39l0-.39v-.38a2.54,2.54,0,0,1,0-.39,6.62,6.62,0,0,1,0-.77c0-.25.06-.5.1-.75a11.62,11.62,0,0,1,.85-2.85A14.45,14.45,0,0,1,7,211.36a17,17,0,0,1,1.74-2.11c.31-.32.63-.63,1-.94.17-.15.34-.3.52-.44l.28-.23.14-.11.19-.14-.49,4-.18-.22L10,211l-.27-.36c-.18-.24-.35-.48-.51-.73-.32-.49-.63-1-.91-1.5a18.85,18.85,0,0,1-1.45-3.3,14,14,0,0,1-.67-3.77,10.71,10.71,0,0,1,2.7-7.5,10.67,10.67,0,0,1,3.2-2.54,11.59,11.59,0,0,1,3.84-1.15,18.53,18.53,0,0,1,3.64,0A38.26,38.26,0,0,1,26,191.34c2.07.55,4.06,1.18,6,1.83,3.94,1.3,7.79,2.68,11.66,4l5.79,2c1,.32,1.94.67,2.85.93l.69.21.35.11.35.09,1.41.36.35.09.36.07.71.16.72.15c.24,0,.47.1.72.13,1,.16,1.92.35,2.9.45.48.06,1,.14,1.46.19l1.47.13.73.07.74,0,1.48.09a95,95,0,0,0,11.92-.29c4-.34,8-.9,11.92-1.61a200.83,200.83,0,0,0,23.51-5.85c3.87-1.2,7.71-2.5,11.53-3.87s7.62-2.81,11.38-4.36l2.81-1.18,2.8-1.21q2.79-1.22,5.57-2.48l11.11-5c3.7-1.68,7.39-3.4,11.15-5q2.81-1.2,5.67-2.32c1-.37,1.92-.74,2.89-1.09s1.94-.69,2.92-1h0a.93.93,0,0,1,.89,1.58Z"/><path class="cls-1" d="M314.41,153.16c-62.93,130.17-246.78,49.24-200-81.91C175.65-63.52,365.61,20.31,314.41,153.16Z"/><path class="cls-1" d="M314.41,153.16c-62.93,130.17-246.78,49.24-200-81.91C175.65-63.52,365.61,20.31,314.41,153.16Z"/><g class="cls-3"><path class="cls-2" d="M118.81,194.33a110.86,110.86,0,0,0,20.62,19.17c2.07,1.47,4.17,2.88,6.33,4.22,25.5,15.82,57.18,21.58,86.68,13.45A99.79,99.79,0,0,0,259,219.48q.83-10.64.83-22.59,0-6.25-.25-12.89l-85.81-7.75,6.37-9.41c-.28.15-6.46,3.68-16.26,8.53l-2.47-.23-.42,1.65A378.56,378.56,0,0,1,118.81,194.33Z"/></g><path class="cls-1" d="M314.41,153.16c-62.93,130.17-246.78,49.24-200-81.91C175.65-63.52,365.61,20.31,314.41,153.16Z"/><path class="cls-2" d="M216.77,221.17A113.41,113.41,0,0,1,173,212.24a115.46,115.46,0,0,1-33.51-21.38,107.35,107.35,0,0,1-24.09-32.06c-13-26.58-14-57.08-2.88-88.21l.06-.16C127,38.8,149.51,16.77,177.77,6.74a104.37,104.37,0,0,1,40-5.82,114.39,114.39,0,0,1,39,8.89,115.88,115.88,0,0,1,34,21.79A107.26,107.26,0,0,1,315,64.26c12.93,27.14,13.35,58.12,1.22,89.61l-.07.15c-14.79,30.6-37.35,51.85-65.25,61.48A104.81,104.81,0,0,1,216.77,221.17ZM116.23,72c-23.88,67.09,13.47,117.84,58.31,136.6a111.05,111.05,0,0,0,42.71,8.71c35.94,0,72.87-18.5,95.35-64.93,26.15-68-11.36-119.64-57.28-138.91C209.83-5.62,146.92,4.56,116.23,72Zm198.18,81.17Z"/><g class="cls-3"><path class="cls-2" d="M314.41,153.16C262,266.53,100.6,222.78,107.13,102.92,117.59,140.64,131,141,152.89,158.79c67.64,58.68,161,3.12,166.54-75.43A108,108,0,0,1,314.41,153.16Z"/></g><path class="cls-7" d="M216.77,222a114.26,114.26,0,0,1-44.07-9A116.28,116.28,0,0,1,139,191.45a107.85,107.85,0,0,1-24.27-32.3c-13.09-26.77-14.09-57.49-2.92-88.83l0-.11.05-.11C126.34,38.27,149,16.1,177.5,6A105.2,105.2,0,0,1,217.83.12a115.27,115.27,0,0,1,39.32,9A116.68,116.68,0,0,1,291.36,31a107.86,107.86,0,0,1,24.4,32.91c13,27.33,13.45,58.54,1.24,90.24l0,.1,0,.11C302,185.16,279.3,206.56,251.2,216.25A105.55,105.55,0,0,1,216.77,222ZM117,72.29c-23.68,66.59,13.39,116.94,57.88,135.57,45.53,19.06,105.55,9.18,137-55.8C337.8,84.61,300.58,33.31,255,14.19,209.88-4.74,147.44,5.37,117,72.29Zm197.45,80.87Z"/><path class="cls-2" d="M216.77,222a114.26,114.26,0,0,1-44.07-9A116.28,116.28,0,0,1,139,191.45a107.85,107.85,0,0,1-24.27-32.3c-13.09-26.77-14.09-57.49-2.92-88.83l0-.11.05-.11C126.34,38.27,149,16.1,177.5,6A105.2,105.2,0,0,1,217.83.12a115.27,115.27,0,0,1,39.32,9A116.68,116.68,0,0,1,291.36,31a107.86,107.86,0,0,1,24.4,32.91c13,27.33,13.45,58.54,1.24,90.24l0,.1,0,.11C302,185.16,279.3,206.56,251.2,216.25A105.55,105.55,0,0,1,216.77,222ZM117,72.29c-23.68,66.59,13.39,116.94,57.88,135.57,45.53,19.06,105.55,9.18,137-55.8C337.8,84.61,300.58,33.31,255,14.19,209.88-4.74,147.44,5.37,117,72.29Zm197.45,80.87Z"/><path class="cls-2" d="M300.43,177.07c-99,79.46-209.07-33.55-137.56-118.63C248.75-32,374.73,71.46,300.43,177.07Z"/><path class="cls-8" d="M318.62,98.49C335.48,212,174.45,244.87,142,143.65,202.86,197.26,296.12,157.83,318.62,98.49Z"/><path class="cls-2" d="M227.35,217.78a98.72,98.72,0,0,1-31.09-5.09A104.32,104.32,0,0,1,165.05,196,101.34,101.34,0,0,1,141,169.42a97.16,97.16,0,0,1-13.28-34.8,106.54,106.54,0,0,1,1.15-41.13l0-.07a102,102,0,0,1,19.87-39.75,118.06,118.06,0,0,1,76-42.53A102.94,102.94,0,0,1,269.42,15l.22.07.21.11c24,12.46,41.94,34.41,50.52,61.83,8.1,25.89,6.86,54-3.42,77.24h0A121.75,121.75,0,0,1,293,190a93.5,93.5,0,0,1-30.26,20.72,90.51,90.51,0,0,1-33.35,7.08ZM134.26,94.71C122,150.79,157.06,193.86,198,207.42c35.64,11.81,86.84,4.39,113.88-55.39,18.89-42.63,5.55-105.7-44.37-131.78-26.3-8.32-56.23-4.77-82.18,9.75S140.81,68.09,134.26,94.71Zm180.15,58.45Z"/><path class="cls-2" d="M230.15,206.84q-2.7,0-5.4-.15a93.74,93.74,0,0,1-61.92-28.13,88.46,88.46,0,0,1-25.47-56.4c-1.37-23,6.71-45.67,23.38-65.51l.12-.12c20.3-21.39,44.29-33.59,69.35-35.29a88.61,88.61,0,0,1,62.32,20.07,90.25,90.25,0,0,1,32.5,59c3.23,25.94-4.49,53.05-22.33,78.41l-.22.32-.31.24C279.58,197.36,254.79,206.84,230.15,206.84ZM164.93,60.29c-35.09,41.81-24.36,87.58,1.86,114.39,28.88,29.53,80.73,41.09,131.6.47C335.63,121.92,319.67,70.71,289,45.6,258.2,20.35,207.89,15.11,164.93,60.29Zm135.5,116.78h0Z"/><path class="cls-1" d="M96.81,150.42c14,49,64.34,39.05,55.65-9.09C139.62,89.43,85.85,100.06,96.81,150.42Z"/><g class="cls-3"><path class="cls-2" d="M133.72,182.37c15.1-2.88,23.66-22.92,18.15-43.54-6.61,23.27-34.59-9.91-37.61-20.09C76.52,133.85,106.1,188.24,133.72,182.37Z"/></g><path class="cls-2" d="M129.19,185.43a29.19,29.19,0,0,1-17.67-6.36c-7.85-6-13.86-15.62-17.38-27.89l0-.17c-2.61-12-1.86-22.78,2.19-31.17,3.73-7.75,10-13,17.71-14.79a25.67,25.67,0,0,1,12.13.15,31.13,31.13,0,0,1,11.86,6c8,6.36,14,16.56,17.16,29.5l0,.17c2.08,11.5,1,21.8-3,29.78-3.75,7.41-9.89,12.43-17.3,14.16A24.9,24.9,0,0,1,129.19,185.43ZM99.5,149.74c7,24.21,22.56,32.33,34.12,29.64,5.78-1.35,10.62-5.35,13.61-11.26,3.49-6.88,4.36-15.94,2.51-26.21-2.9-11.7-8.16-20.82-15.19-26.4-6-4.76-12.86-6.56-19.3-5.06-6,1.4-11,5.59-14,11.79C97.79,129.49,97.17,139,99.5,149.74Z"/><path class="cls-1" d="M95.21,153.47c11.43,39.7,49.24,32.88,42.21-6.06C127.1,104.83,86,112.29,95.21,153.47Z"/><path class="cls-2" d="M120.71,182.91a22.79,22.79,0,0,1-14.32-5.57c-6.15-5-10.94-13-13.84-23.11l0-.16c-2.2-9.82-1.79-18.61,1.16-25.42,2.78-6.41,7.63-10.71,13.67-12.12,6.34-1.47,13.31.54,19.12,5.51,6.33,5.42,11,14,13.65,24.72l0,.16c1.68,9.32,1,17.63-2,24-2.8,6.05-7.52,10.13-13.28,11.47A18.05,18.05,0,0,1,120.71,182.91ZM97.9,152.78c2.59,9,6.74,16,12,20.27,4.42,3.6,9.3,5,13.75,4,7.77-1.81,14.2-11.49,11.06-29-4.87-20-16.82-28.22-26.11-26.06-4.29,1-7.78,4.17-9.84,8.92C96.28,136.56,96,144.15,97.9,152.78Z"/><g class="cls-9"><path class="cls-1" d="M159.3,119.05c8.49,19.71,31,10.4,26.58-7.87C178.94,88.45,152.18,99,159.3,119.05Z"/></g><g class="cls-9"><path class="cls-1" d="M176,149.55c3.68,7.35,13.62,3.47,10.36-4.89C182.68,137.31,172.73,141.19,176,149.55Z"/></g><g class="cls-9"><path class="cls-1" d="M308.54,108.85c3.56-81.94-80.92-82-104-61.79C258.3,44.06,286,74,308.54,108.85Z"/></g><g class="cls-3"><path class="cls-2" d="M140.61,156.34a36.63,36.63,0,0,0-4.25-16.83c-3.8,28.31-32.87,19.67-41.73.82C93.62,181.61,137.19,195.38,140.61,156.34Z"/></g><path class="cls-2" d="M145,111.41a9.25,9.25,0,0,1-4.68-1.49,2.77,2.77,0,1,1,2.81-4.78,3.7,3.7,0,0,0,1.88.72,5.43,5.43,0,0,0,.74-3,19.93,19.93,0,0,0-.07-3,2.77,2.77,0,1,1,5.5-.69,24.44,24.44,0,0,1,.09,4.18c-.24,3.48-1.33,5.88-3.23,7.13A5.45,5.45,0,0,1,145,111.41Z"/><path class="cls-1" d="M54.44,204.83c-16.89-4.81-30-4-31.66.54-1.21,3.29-.19,8.63,6.72,10.92,4.72,1.57,11.5,1.28,11.5,1.28s3.52,10.56,9.17,14.84"/><path class="cls-2" d="M53.69,207.45a95,95,0,0,0-14-2.79,48.36,48.36,0,0,0-7-.35,27.87,27.87,0,0,0-3.35.27,12.57,12.57,0,0,0-2.91.77,4.7,4.7,0,0,0-.55.27,2.91,2.91,0,0,0-.41.28,1.66,1.66,0,0,0-.23.22l0,0,0,0,0,0v0l0,.07a5.18,5.18,0,0,0-.26,2.43,5.43,5.43,0,0,0,.93,2.37,7.15,7.15,0,0,0,2,1.92,16,16,0,0,0,6.09,2.11c1.14.19,2.32.33,3.49.43l1.78.11.89,0h2.3l.39,1.25.15.48.17.5c.11.34.23.67.35,1,.23.67.48,1.34.74,2,.51,1.33,1.06,2.65,1.66,3.94a39,39,0,0,0,2,3.8c.09.15.18.31.28.46s.18.3.28.45l.3.45.3.44a21.54,21.54,0,0,0,1.36,1.7h0a.22.22,0,0,1,0,.32.21.21,0,0,1-.26,0,14.44,14.44,0,0,1-3.65-2.77,25.84,25.84,0,0,1-2.9-3.55c-.22-.31-.43-.63-.64-.95s-.4-.65-.59-1c-.4-.65-.76-1.32-1.12-2s-.68-1.35-1-2.05l-.45-1-.22-.53c-.08-.18-.14-.35-.22-.56l1.84,1.26-.51,0-.48,0-1,0H37.2c-1.28,0-2.57-.1-3.87-.24a25.88,25.88,0,0,1-4-.73,17.31,17.31,0,0,1-2-.66,17.51,17.51,0,0,1-1.95-1,11.92,11.92,0,0,1-3.44-3A10.23,10.23,0,0,1,20,209.53a10.38,10.38,0,0,1-.14-2.43,9.39,9.39,0,0,1,.46-2.44l0-.15.08-.2c.05-.13.11-.26.17-.39l.2-.37c.07-.12.15-.24.23-.35a5.92,5.92,0,0,1,1-1.14,7.07,7.07,0,0,1,1.08-.81,9.82,9.82,0,0,1,1.09-.6,16.73,16.73,0,0,1,4.18-1.27,28,28,0,0,1,4-.45,53,53,0,0,1,7.79.24,81.54,81.54,0,0,1,14.95,3,2.73,2.73,0,0,1-1.49,5.25Z"/><path class="cls-2" d="M89.75,256.7a2.42,2.42,0,0,1-1.63-4.2c7.42-6.78,9.57-16.75,6.4-29.62a71.8,71.8,0,0,0-7.37-18.06,2.42,2.42,0,1,1,4.11-2.54,75,75,0,0,1,7.93,19.32,44.7,44.7,0,0,1,1.15,17.55,28.2,28.2,0,0,1-9,16.92A2.42,2.42,0,0,1,89.75,256.7Z"/><path class="cls-2" d="M14.07,207.88c.42.3.83.62,1.23.94s.8.62,1.19.94c.19.16.39.31.59.46l.59.45c.19.16.4.28.59.43l.6.43c.81.54,1.62,1.08,2.5,1.59l1.34.78,1.4.77a64.56,64.56,0,0,1,5.72,3.43l1.37,1c.45.33.89.68,1.33,1l.65.51.64.55c.42.36.83.73,1.24,1.11a.35.35,0,0,1,0,.5.37.37,0,0,1-.37.09h0c-1.06-.34-2.08-.75-3.11-1.1l-1.53-.55-1.53-.53c-2-.7-4.07-1.33-6.15-2l-1.59-.54-.8-.29c-.27-.09-.54-.21-.81-.32l-.4-.17a2.87,2.87,0,0,1-.4-.18l-.81-.38c-.27-.12-.53-.28-.79-.42l-.78-.45c-.25-.16-.51-.32-.75-.49l-.38-.25c-.12-.09-.25-.17-.36-.26-.47-.37-.95-.72-1.38-1.11l-.65-.59c-.21-.2-.43-.4-.63-.61-.4-.42-.78-.84-1.15-1.28A2.43,2.43,0,0,1,14,207.8Z"/><path class="cls-2" d="M12.43,223.89a9.63,9.63,0,0,0,1.44,1,12.7,12.7,0,0,0,1.8.81c1.36.5,3,1,4.72,1.53a40.87,40.87,0,0,1,5,2.07A33.4,33.4,0,0,1,30.05,232a.35.35,0,0,1-.23.64h0c-1.78-.16-3.52-.37-5.24-.58s-3.43-.4-5.09-.55a27.59,27.59,0,0,1-5.44-.83,10.85,10.85,0,0,1-2.95-1.33,8.06,8.06,0,0,1-2.45-2.45,2.43,2.43,0,0,1,3.59-3.17Z"/><path class="cls-2" d="M36.13,265.91a42.79,42.79,0,0,0-.5,6.67c0,.56,0,1.11,0,1.66l.07,1.66.13,1.64c0,.28.06.55.09.82l.1.82.1.81.13.81c.09.54.17,1.08.27,1.61.24,1.07.44,2.13.74,3.16a46.8,46.8,0,0,0,2.06,6.05l0,.08a2.75,2.75,0,1,1-5.1,2.06,2.63,2.63,0,0,1-.15-.53,51.21,51.21,0,0,1-.9-7c-.09-1.16-.07-2.33-.08-3.49,0-.58,0-1.17.05-1.74l0-.87.07-.86.07-.86c0-.29,0-.57.09-.86l.21-1.71.27-1.69c.1-.56.22-1.12.33-1.68A42.42,42.42,0,0,1,36.13,265.91Z"/></svg>