<?xml version="1.0" encoding="utf-8"?>
<!-- Generator: Adobe Illustrator 16.0.0, SVG Export Plug-In . SVG Version: 6.00 Build 0)  -->
<!DOCTYPE svg PUBLIC "-//W3C//DTD SVG 1.1//EN" "http://www.w3.org/Graphics/SVG/1.1/DTD/svg11.dtd">
<svg version="1.1" id="Capa_1" xmlns="http://www.w3.org/2000/svg" xmlns:xlink="http://www.w3.org/1999/xlink" x="0px" y="0px"
	 width="528.74px" height="448.162px" viewBox="0 0 528.74 448.162" enable-background="new 0 0 528.74 448.162"
	 xml:space="preserve">
<g>
	<g>
		<g>
			<g>
				<g>
					<g>
						<path fill="#F5D52F" d="M485.489,171.89c-41.914,29.299-99.637,19.077-128.941-22.835c-5.08-7.265-8.969-15.004-11.709-22.988
							c-1.197-3.474-2.176-6.996-2.938-10.54c-7.341-34.12,5.082-70.775,34.295-93.071c1.039-0.804,2.103-1.579,3.188-2.337
							c3.146-2.2,6.383-4.176,9.688-5.924c11.482-6.115,23.824-9.57,36.227-10.52c0.802-0.063,1.604-0.11,2.408-0.152
							c13.224-0.669,26.463,1.509,38.768,6.361c16.342,6.437,31.03,17.593,41.852,33.066c5.968,8.54,10.297,17.732,13.05,27.214
							C532.143,107.207,518.862,148.56,485.489,171.89z"/>
					</g>
				</g>
			</g>
		</g>
		<g>
			<g opacity="0.35">
				<g>
					<g>
						<g>
							<path fill="#362045" d="M340.073,103.046c0.341,2.991,0.824,5.973,1.461,8.936c0.762,3.544,1.741,7.066,2.938,10.54
								c2.741,7.984,6.63,15.724,11.71,22.988c29.304,41.913,87.027,52.135,128.942,22.835
								c28.171-19.697,42.018-52.234,39.171-84.182c-0.313-2.871-0.745-5.735-1.329-8.583c0.107,29.33-13.686,58.225-39.543,76.302
								c-41.914,29.299-99.637,19.078-128.941-22.835c-5.08-7.266-8.969-15.004-11.709-22.989
								c-1.198-3.474-2.176-6.996-2.939-10.541c-0.06-0.288-0.119-0.577-0.18-0.865c0.014,3.677,0.252,7.359,0.706,11.027
								C340.253,104.802,340.155,103.924,340.073,103.046z"/>
						</g>
					</g>
				</g>
			</g>
		</g>
		<g opacity="0.4">
			<g>
				<g>
					<g>
						<path fill="#FFFFFF" d="M507.437,41.728c-10.732-14.833-25.06-25.58-40.963-31.845c-12.305-4.853-25.544-7.031-38.768-6.361
							c-0.804,0.042-1.606,0.089-2.408,0.152c-12.402,0.95-24.744,4.405-36.227,10.52c-3.305,1.749-6.541,3.724-9.688,5.924
							c-1.085,0.758-2.148,1.533-3.188,2.337c-29.212,22.296-41.635,58.951-34.295,93.071c0.763,3.544,1.741,7.066,2.938,10.54
							c0.271,0.788,0.561,1.571,0.854,2.354c-9.733-37.119,3.933-77.993,37.227-101.27c3.156-2.208,6.402-4.194,9.719-5.96
							c0.059,0.25,0.135,0.497,0.222,0.738c1.888,5.181,9.933,7.007,17.978,4.078c8.043-2.927,13.037-9.5,11.15-14.681l-0.006-0.016
							C453.106,6.32,485.628,17.184,507.437,41.728z"/>
					</g>
				</g>
			</g>
		</g>
		<g>
			<g>
				<g>
					<g>
						<path fill="#362045" d="M433.003,191.666c-5.603,0-11.213-0.495-16.805-1.485c-12.252-2.169-23.785-6.609-34.277-13.195
							c-10.865-6.82-20.133-15.653-27.543-26.253c-7.41-10.601-12.523-22.336-15.197-34.883
							c-2.583-12.117-2.793-24.473-0.622-36.726c2.171-12.252,6.61-23.785,13.196-34.278c6.82-10.865,15.652-20.131,26.253-27.542
							c10.6-7.411,22.337-12.524,34.883-15.198c12.116-2.583,24.473-2.792,36.726-0.622c12.252,2.17,23.785,6.61,34.277,13.196
							c10.865,6.82,20.131,15.653,27.543,26.253c7.41,10.6,12.523,22.336,15.197,34.882c2.582,12.116,2.791,24.473,0.621,36.726
							c-2.17,12.252-6.609,23.785-13.196,34.277c-6.819,10.866-15.653,20.132-26.253,27.543c-10.6,7.41-22.336,12.523-34.883,15.198
							C446.337,190.963,439.677,191.666,433.003,191.666z M432.718,6.441c-18.148,0-35.832,5.532-51.016,16.147
							c-19.564,13.677-32.631,34.155-36.794,57.661c-4.163,23.505,1.077,47.225,14.755,66.789
							c13.676,19.565,34.154,32.631,57.658,36.794c5.264,0.932,10.54,1.393,15.775,1.393c18.148,0.001,35.831-5.532,51.015-16.147
							c19.564-13.677,32.632-34.154,36.794-57.66c4.164-23.505-1.076-47.225-14.754-66.789
							c-13.677-19.564-34.154-32.632-57.66-36.794C443.229,6.902,437.952,6.441,432.718,6.441z"/>
					</g>
				</g>
			</g>
		</g>
		<g opacity="0.35">
			<g>
				<g>
					<g>
						<path fill="#362045" d="M404.804,54.747c-11.148,1.334-19.84-3.494-19.416-10.782c0.425-7.289,9.805-14.279,20.951-15.612
							c11.148-1.334,19.841,3.493,19.416,10.782C425.331,46.423,415.951,53.413,404.804,54.747z"/>
					</g>
				</g>
			</g>
		</g>
		<g>
			<g>
				<g>
					<g>
						<path fill="#F5D52F" d="M404.926,54.073c-9.669,1.487-16.877-1.117-16.1-5.817c0.776-4.699,9.248-9.714,18.918-11.201
							c9.67-1.486,16.878,1.118,16.101,5.817C423.066,47.572,414.597,52.586,404.926,54.073z"/>
					</g>
				</g>
			</g>
		</g>
		<g>
			<g>
				<g>
					<g>
						<path fill="#362045" d="M421.771,30.185c0.845,0.463,1.644,1.039,2.371,1.722c0.355,0.349,0.695,0.721,1.006,1.122
							c0.307,0.404,0.587,0.834,0.835,1.286c0.244,0.455,0.449,0.933,0.615,1.427l0.115,0.373c0.035,0.125,0.063,0.253,0.095,0.379
							l0.09,0.383c0.023,0.128,0.041,0.257,0.063,0.386c0.157,1.035,0.14,2.096-0.026,3.121c-0.169,1.025-0.479,2.013-0.887,2.944
							c-0.41,0.931-0.915,1.806-1.481,2.628c-0.564,0.824-1.208,1.578-1.882,2.295c-0.336,0.361-0.69,0.699-1.047,1.036
							l-0.549,0.487c-0.183,0.164-0.374,0.313-0.562,0.469c-0.756,0.614-1.539,1.196-2.355,1.716
							c-0.404,0.271-0.823,0.509-1.237,0.761c-0.424,0.233-0.842,0.479-1.273,0.694c-1.714,0.892-3.511,1.603-5.347,2.177
							c-0.46,0.142-0.926,0.266-1.389,0.394c-0.468,0.112-0.932,0.239-1.404,0.333c-0.939,0.215-1.894,0.365-2.852,0.494
							c-1.918,0.229-3.865,0.321-5.816,0.174c-1.949-0.135-3.906-0.475-5.813-1.102c-1.898-0.637-3.77-1.545-5.398-2.91
							c-0.811-0.681-1.557-1.475-2.173-2.383c-0.614-0.908-1.09-1.928-1.381-2.996c-0.295-1.066-0.403-2.181-0.33-3.265
							c0.071-1.085,0.31-2.137,0.666-3.119c0.36-0.982,0.835-1.896,1.38-2.744c0.14-0.208,0.273-0.422,0.421-0.625l0.446-0.6
							l0.472-0.573c0.159-0.19,0.329-0.367,0.493-0.551c0.668-0.719,1.379-1.386,2.127-1.997c0.752-0.605,1.528-1.168,2.332-1.682
							c0.809-0.504,1.635-0.975,2.48-1.396c0.851-0.411,1.709-0.802,2.591-1.125c1.753-0.671,3.563-1.161,5.388-1.491
							c0.32-0.058,0.628,0.154,0.686,0.476c0.052,0.287-0.114,0.564-0.38,0.66l-0.014,0.005c-0.843,0.306-1.686,0.6-2.5,0.96
							c-0.412,0.167-0.813,0.356-1.218,0.536c-0.202,0.093-0.399,0.193-0.598,0.29c-0.199,0.097-0.397,0.193-0.592,0.299
							l-0.584,0.31l-0.575,0.326l-0.287,0.161l-0.28,0.171c-0.188,0.114-0.377,0.226-0.563,0.343
							c-0.736,0.473-1.454,0.967-2.142,1.496c-0.681,0.538-1.34,1.093-1.958,1.685c-0.609,0.598-1.186,1.221-1.709,1.875
							c-1.046,1.306-1.871,2.749-2.315,4.233c-0.224,0.74-0.347,1.488-0.354,2.22c-0.006,0.731,0.099,1.446,0.316,2.125
							c0.433,1.355,1.328,2.539,2.522,3.478c1.198,0.936,2.659,1.633,4.212,2.12c1.564,0.47,3.215,0.761,4.893,0.859
							c1.679,0.104,3.381,0.044,5.072-0.157c1.688-0.218,3.377-0.541,5.021-1.023c0.411-0.124,0.823-0.238,1.228-0.377
							c0.408-0.127,0.809-0.278,1.211-0.423c0.8-0.304,1.589-0.633,2.358-1c0.39-0.175,0.763-0.377,1.146-0.569
							c0.369-0.207,0.75-0.402,1.11-0.626c0.732-0.43,1.441-0.895,2.122-1.396c0.682-0.497,1.327-1.036,1.938-1.605
							c0.609-0.569,1.184-1.174,1.696-1.817c0.513-0.641,0.97-1.317,1.347-2.025c0.381-0.706,0.684-1.445,0.875-2.202
							c0.196-0.756,0.283-1.531,0.244-2.304l-0.014-0.29l-0.036-0.288c-0.015-0.096-0.022-0.194-0.039-0.29l-0.056-0.287
							c-0.086-0.379-0.197-0.756-0.339-1.125c-0.146-0.367-0.321-0.727-0.524-1.076c-0.205-0.347-0.441-0.68-0.698-1.003
							c-0.257-0.325-0.542-0.631-0.841-0.927c-0.304-0.293-0.631-0.569-0.965-0.839l-0.013-0.011
							c-0.315-0.253-0.365-0.715-0.111-1.03C421.073,30.086,421.464,30.017,421.771,30.185z"/>
					</g>
				</g>
			</g>
		</g>
		<g>
			<g>
				<g>
					<g>
						<path fill="#362045" d="M412.209,61.147c-0.666,0.543-1.388,1.019-2.143,1.439c-0.755,0.423-1.546,0.787-2.357,1.101
							c-1.626,0.627-3.342,1.024-5.077,1.224c-1.736,0.206-3.494,0.198-5.232,0.023c-1.736-0.188-3.456-0.546-5.121-1.083
							c-1.664-0.536-3.281-1.237-4.803-2.122c-0.38-0.222-0.756-0.451-1.123-0.693c-0.367-0.247-0.728-0.501-1.082-0.768
							c-0.708-0.528-1.374-1.118-2.008-1.743c-1.253-1.262-2.346-2.721-3.084-4.369c-0.742-1.636-1.111-3.469-0.922-5.215
							c0.035-0.328,0.33-0.564,0.658-0.529c0.256,0.028,0.457,0.216,0.516,0.455l0.003,0.011c0.718,3.036,2.651,5.395,5.005,7.203
							c2.359,1.819,5.133,3.125,8.018,4.011c2.895,0.879,5.921,1.336,8.957,1.332c1.518-0.002,3.041-0.127,4.554-0.385
							c0.758-0.127,1.513-0.292,2.266-0.486c0.755-0.195,1.505-0.427,2.262-0.68l0.013-0.005c0.389-0.129,0.809,0.081,0.938,0.47
							C412.546,60.639,412.441,60.958,412.209,61.147z"/>
					</g>
				</g>
			</g>
		</g>
		<g opacity="0.35">
			<g>
				<g>
					<g>
						<path fill="#362045" d="M384.278,111.778c0.27,11.247-5.375,19.458-12.603,18.34C364.446,129,358.37,118.977,358.1,107.73
							c-0.269-11.247,5.374-19.458,12.603-18.341C377.933,90.508,384.01,100.532,384.278,111.778z"/>
					</g>
				</g>
			</g>
		</g>
		<g>
			<g>
				<g>
					<g>
						<path fill="#F5D52F" d="M383.569,111.548c0.561,9.768-2.719,16.695-7.322,15.475c-4.604-1.221-8.791-10.128-9.352-19.897
							c-0.561-9.768,2.717-16.696,7.322-15.474C378.821,92.872,383.009,101.78,383.569,111.548z"/>
					</g>
				</g>
			</g>
		</g>
		<g>
			<g>
				<g>
					<g>
						<path fill="#362045" d="M361.391,92.51c0.542-0.797,1.19-1.538,1.94-2.197c0.38-0.321,0.782-0.625,1.212-0.895
							c0.432-0.268,0.886-0.506,1.36-0.709c0.475-0.201,0.971-0.358,1.479-0.477l0.382-0.08c0.128-0.023,0.257-0.038,0.387-0.057
							l0.388-0.054c0.131-0.012,0.262-0.017,0.392-0.026c1.046-0.059,2.101,0.06,3.104,0.324c1.004,0.266,1.958,0.668,2.847,1.162
							c0.886,0.499,1.71,1.083,2.474,1.725c0.768,0.642,1.457,1.353,2.106,2.093c0.327,0.368,0.63,0.753,0.932,1.14l0.434,0.592
							c0.146,0.197,0.275,0.403,0.413,0.604c0.54,0.812,1.045,1.646,1.484,2.509c0.23,0.428,0.428,0.868,0.641,1.304
							c0.191,0.443,0.396,0.883,0.569,1.333c0.725,1.792,1.263,3.647,1.658,5.53c0.099,0.471,0.178,0.946,0.261,1.42
							c0.067,0.476,0.148,0.95,0.199,1.43c0.123,0.955,0.182,1.919,0.219,2.885c0.045,1.932-0.047,3.878-0.379,5.808
							c-0.321,1.927-0.844,3.844-1.65,5.681c-0.815,1.829-1.895,3.606-3.41,5.096c-0.754,0.744-1.615,1.411-2.578,1.938
							c-0.962,0.524-2.023,0.902-3.113,1.09c-1.09,0.191-2.208,0.193-3.281,0.018c-1.074-0.173-2.098-0.512-3.041-0.959
							c-0.943-0.452-1.809-1.012-2.601-1.634c-0.194-0.159-0.396-0.313-0.581-0.478l-0.556-0.502l-0.526-0.525
							c-0.173-0.176-0.334-0.362-0.5-0.542c-0.654-0.734-1.25-1.504-1.787-2.307c-0.531-0.806-1.017-1.633-1.451-2.482
							c-0.428-0.853-0.815-1.719-1.152-2.602c-0.33-0.886-0.638-1.777-0.875-2.686c-0.5-1.809-0.816-3.657-0.971-5.504
							c-0.027-0.325,0.213-0.611,0.537-0.638c0.293-0.024,0.551,0.167,0.623,0.44l0.003,0.014c0.224,0.869,0.437,1.735,0.717,2.581
							c0.128,0.426,0.278,0.844,0.419,1.264c0.072,0.208,0.154,0.415,0.231,0.622c0.077,0.207,0.153,0.414,0.241,0.617l0.253,0.611
							l0.271,0.603l0.133,0.301l0.143,0.297c0.096,0.197,0.189,0.395,0.288,0.591c0.401,0.778,0.825,1.54,1.286,2.274
							c0.47,0.729,0.959,1.438,1.49,2.107c0.537,0.666,1.104,1.298,1.703,1.881c1.201,1.166,2.56,2.125,3.996,2.707
							c0.715,0.294,1.448,0.488,2.175,0.565c0.728,0.076,1.449,0.039,2.146-0.113c1.392-0.302,2.654-1.082,3.703-2.181
							c1.046-1.103,1.878-2.492,2.51-3.992c0.616-1.512,1.063-3.127,1.32-4.788c0.262-1.661,0.365-3.361,0.326-5.064
							c-0.056-1.703-0.217-3.413-0.541-5.096c-0.084-0.42-0.159-0.842-0.259-1.257c-0.088-0.419-0.2-0.832-0.306-1.246
							c-0.229-0.824-0.48-1.642-0.771-2.442c-0.138-0.404-0.304-0.796-0.457-1.194c-0.172-0.389-0.33-0.785-0.519-1.165
							c-0.358-0.771-0.754-1.521-1.188-2.244c-0.429-0.727-0.905-1.421-1.413-2.083c-0.51-0.66-1.057-1.29-1.646-1.86
							c-0.59-0.572-1.222-1.091-1.89-1.535c-0.667-0.446-1.372-0.816-2.108-1.08c-0.733-0.268-1.498-0.429-2.27-0.462l-0.291-0.015
							l-0.291,0.01c-0.096,0.004-0.195,0.003-0.291,0.01l-0.291,0.029c-0.387,0.05-0.771,0.125-1.153,0.229
							c-0.38,0.111-0.753,0.252-1.12,0.42c-0.365,0.172-0.719,0.376-1.064,0.602c-0.348,0.222-0.68,0.478-1.003,0.749
							c-0.321,0.274-0.626,0.571-0.927,0.879l-0.012,0.013c-0.283,0.289-0.748,0.294-1.037,0.011
							C361.226,93.194,361.193,92.798,361.391,92.51z"/>
					</g>
				</g>
			</g>
		</g>
		<g>
			<g>
				<g>
					<g>
						<path fill="#362045" d="M391.304,104.97c0.477,0.715,0.882,1.479,1.229,2.271c0.349,0.792,0.636,1.614,0.87,2.452
							c0.471,1.678,0.701,3.424,0.736,5.17c0.039,1.748-0.136,3.497-0.475,5.211c-0.353,1.711-0.873,3.388-1.565,4.995
							c-0.691,1.606-1.542,3.149-2.567,4.579c-0.257,0.358-0.522,0.709-0.797,1.053c-0.281,0.342-0.568,0.677-0.867,1.003
							c-0.594,0.654-1.244,1.263-1.926,1.834c-1.375,1.127-2.933,2.076-4.643,2.654c-1.699,0.584-3.559,0.778-5.279,0.422
							c-0.323-0.066-0.531-0.382-0.464-0.704c0.052-0.255,0.259-0.438,0.501-0.471l0.012-0.001c3.092-0.428,5.623-2.128,7.647-4.299
							c2.033-2.175,3.598-4.811,4.753-7.599c1.152-2.798,1.894-5.767,2.179-8.789c0.142-1.513,0.161-3.039,0.048-4.571
							c-0.054-0.766-0.146-1.533-0.268-2.302c-0.123-0.769-0.282-1.537-0.463-2.316l-0.002-0.012
							c-0.092-0.399,0.156-0.798,0.557-0.89C390.829,104.588,391.138,104.722,391.304,104.97z"/>
					</g>
				</g>
			</g>
		</g>
		<g opacity="0.35">
			<g>
				<g>
					<g>
						<path fill="#362045" d="M437.45,78.063c9.197-2.664,18.551,1.522,20.892,9.351s-3.22,16.333-12.418,18.997
							s-18.552-1.523-20.892-9.35C422.692,89.232,428.252,80.727,437.45,78.063z"/>
					</g>
				</g>
			</g>
		</g>
		<g>
			<g>
				<g>
					<g>
						<path fill="#F5D52F" d="M440.883,87.72c7.16,0.644,12.397,5.845,11.699,11.617c-0.7,5.771-7.072,9.929-14.232,9.285
							c-7.161-0.644-12.398-5.845-11.698-11.617C427.351,91.233,433.722,87.076,440.883,87.72z"/>
					</g>
				</g>
			</g>
		</g>
		<g>
			<g>
				<g>
					<g>
						<path fill="#362045" d="M445.915,106.352l0.612-0.255c0.202-0.085,0.409-0.159,0.608-0.252l0.595-0.282
							c0.197-0.097,0.397-0.181,0.586-0.293l0.577-0.31l0.287-0.154l0.277-0.171c0.371-0.229,0.742-0.447,1.091-0.706l0.53-0.371
							l0.508-0.397l0.252-0.198c0.087-0.064,0.17-0.133,0.248-0.206l0.48-0.425l0.24-0.212l0.229-0.224l0.453-0.449
							c0.15-0.149,0.285-0.314,0.428-0.469c0.14-0.16,0.287-0.311,0.418-0.477l0.396-0.494c0.064-0.082,0.132-0.163,0.195-0.247
							l0.179-0.258l0.362-0.514c0.114-0.175,0.218-0.356,0.327-0.532c0.23-0.349,0.413-0.722,0.608-1.086
							c0.103-0.18,0.177-0.373,0.264-0.56c0.082-0.189,0.173-0.373,0.248-0.564l0.213-0.576c0.034-0.096,0.073-0.19,0.105-0.287
							l0.086-0.293l0.174-0.583c0.046-0.198,0.1-0.394,0.136-0.592c0.165-0.79,0.254-1.588,0.272-2.382
							c0.019-1.588-0.268-3.165-0.866-4.619c-0.58-1.46-1.477-2.778-2.58-3.906c-1.096-1.142-2.438-2.052-3.88-2.769
							c-0.722-0.361-1.48-0.653-2.257-0.896l-0.291-0.092l-0.295-0.079c-0.198-0.05-0.393-0.111-0.592-0.152l-0.599-0.135
							l-0.604-0.108c-6.462-1.066-13.656,1.463-17.781,6.673c-0.514,0.647-0.98,1.332-1.387,2.051
							c-0.405,0.718-0.744,1.471-1.02,2.246c-0.545,1.551-0.825,3.202-0.741,4.858c0.035,0.828,0.163,1.652,0.357,2.47
							c0.199,0.815,0.489,1.609,0.847,2.379c0.362,0.767,0.805,1.505,1.32,2.197c0.506,0.697,1.095,1.352,1.726,1.961l0.003,0.003
							c0.236,0.227,0.242,0.601,0.015,0.835c-0.204,0.211-0.527,0.238-0.76,0.076c-0.785-0.542-1.506-1.168-2.181-1.859
							c-0.67-0.694-1.264-1.469-1.787-2.295c-1.044-1.658-1.719-3.559-1.994-5.534c-0.281-1.977-0.117-4.02,0.412-5.95
							c0.516-1.939,1.422-3.756,2.563-5.391c2.309-3.261,5.609-5.758,9.293-7.227c0.926-0.361,1.865-0.68,2.826-0.928
							c0.964-0.238,1.94-0.429,2.932-0.551c0.988-0.116,1.986-0.174,2.986-0.161c1.001,0.021,2.001,0.107,2.993,0.259
							c0.993,0.146,1.976,0.385,2.939,0.687c0.963,0.303,1.91,0.672,2.819,1.128c0.912,0.451,1.787,0.982,2.616,1.586
							c0.831,0.601,1.607,1.284,2.316,2.036c0.709,0.753,1.345,1.579,1.896,2.459c0.553,0.879,1.019,1.818,1.367,2.797
							c0.719,1.948,1.017,4.049,0.877,6.105c-0.072,1.026-0.238,2.043-0.513,3.023c-0.063,0.247-0.143,0.487-0.216,0.729
							l-0.259,0.713l-0.13,0.356c-0.047,0.117-0.102,0.231-0.15,0.346l-0.311,0.689c-0.882,1.806-2.074,3.423-3.452,4.818
							c-1.385,1.391-2.977,2.542-4.677,3.445c-0.418,0.236-0.861,0.43-1.295,0.631l-0.326,0.149l-0.335,0.131l-0.668,0.26
							c-0.22,0.09-0.451,0.152-0.678,0.226l-0.68,0.212c-0.458,0.127-0.921,0.231-1.382,0.341c-0.391,0.094-0.785-0.148-0.879-0.541
							c-0.084-0.354,0.104-0.709,0.43-0.845L445.915,106.352z"/>
					</g>
				</g>
			</g>
		</g>
		<g>
			<g>
				<g>
					<g>
						<path fill="#362045" d="M418.579,89.831c-0.169,0.849-0.304,1.698-0.366,2.55c-0.077,0.85-0.095,1.7-0.053,2.542
							c0.081,1.685,0.382,3.341,0.901,4.917c0.12,0.396,0.283,0.778,0.426,1.165c0.069,0.195,0.164,0.38,0.248,0.568l0.256,0.563
							c0.374,0.734,0.764,1.458,1.232,2.132c0.115,0.169,0.226,0.342,0.346,0.508l0.369,0.49l0.184,0.246l0.197,0.235l0.396,0.47
							c0.133,0.156,0.279,0.3,0.418,0.45c0.144,0.146,0.275,0.303,0.425,0.442l0.442,0.427c0.074,0.07,0.146,0.144,0.223,0.212
							l0.232,0.201l0.464,0.403c0.159,0.129,0.322,0.252,0.483,0.379c0.317,0.259,0.658,0.488,0.992,0.728
							c0.163,0.123,0.338,0.231,0.512,0.341l0.519,0.332l0.535,0.307c0.181,0.099,0.353,0.211,0.539,0.299
							c1.456,0.769,2.993,1.389,4.583,1.847c1.584,0.473,3.227,0.757,4.88,0.911c1.653,0.154,3.323,0.14,4.984-0.001
							c3.317-0.298,6.603-1.183,9.641-2.583c3.034-1.407,5.821-3.357,8.134-5.78l0.22-0.225l0.208-0.233l0.418-0.468
							c0.274-0.317,0.533-0.645,0.798-0.971c0.5-0.67,0.993-1.349,1.425-2.067c0.87-1.43,1.611-2.949,2.121-4.553
							c0.515-1.6,0.851-3.268,0.945-4.966c0.012-0.425,0.045-0.852,0.025-1.277l-0.014-0.642l-0.049-0.64
							c-0.018-0.431-0.088-0.854-0.14-1.284c-0.021-0.215-0.071-0.425-0.108-0.638l-0.117-0.64l-0.007-0.044
							c-0.058-0.319,0.154-0.625,0.474-0.684c0.292-0.052,0.57,0.118,0.663,0.389c0.148,0.436,0.319,0.869,0.442,1.316
							c0.121,0.447,0.26,0.895,0.346,1.352l0.141,0.686l0.1,0.694c0.076,0.463,0.1,0.931,0.143,1.399
							c0.025,0.234,0.019,0.469,0.029,0.704c0.004,0.235,0.018,0.471,0.012,0.707l-0.027,0.707l-0.014,0.354l-0.032,0.353
							l-0.067,0.706c-0.024,0.235-0.067,0.467-0.102,0.701c-0.063,0.471-0.166,0.932-0.266,1.396
							c-0.043,0.233-0.105,0.462-0.166,0.691l-0.188,0.686l-0.22,0.677c-0.075,0.225-0.144,0.453-0.232,0.672
							c-0.173,0.442-0.331,0.892-0.536,1.321l-0.293,0.649l-0.322,0.635c-0.865,1.693-1.943,3.275-3.174,4.724
							c-1.236,1.442-2.614,2.768-4.119,3.93c-0.185,0.15-0.377,0.289-0.57,0.428l-0.578,0.419c-0.389,0.273-0.79,0.526-1.186,0.791
							c-0.407,0.246-0.816,0.487-1.228,0.727c-0.419,0.223-0.836,0.454-1.26,0.668c-1.698,0.855-3.479,1.54-5.304,2.066
							c-1.824,0.532-3.704,0.883-5.601,1.069c-3.794,0.365-7.677,0.022-11.346-1.12c-1.831-0.576-3.609-1.34-5.28-2.303
							c-1.671-0.96-3.227-2.136-4.613-3.487c-1.395-1.342-2.59-2.895-3.553-4.572c-0.49-0.835-0.891-1.719-1.26-2.608
							c-0.085-0.226-0.163-0.454-0.244-0.679c-0.078-0.229-0.168-0.453-0.229-0.686c-0.131-0.463-0.278-0.919-0.379-1.39
							c-0.871-3.741-0.567-7.691,0.769-11.151c0.144-0.378,0.569-0.567,0.947-0.421c0.339,0.13,0.524,0.483,0.456,0.827
							L418.579,89.831z"/>
					</g>
				</g>
			</g>
		</g>
		<g opacity="0.35">
			<g>
				<g>
					<g>
						<path fill="#362045" d="M468.014,28.8c5.071-0.314,9.432,2.937,9.737,7.262c0.306,4.325-3.559,8.086-8.631,8.401
							c-5.072,0.314-9.432-2.937-9.738-7.262C459.077,32.876,462.941,29.115,468.014,28.8z"/>
					</g>
				</g>
			</g>
		</g>
		<g>
			<g>
				<g>
					<g>
						<path fill="#F5D52F" d="M468.673,34.199c3.635,1.163,5.744,4.462,4.713,7.371c-1.029,2.908-4.811,4.325-8.445,3.162
							c-3.633-1.163-5.743-4.463-4.714-7.372C461.258,34.451,465.038,33.036,468.673,34.199z"/>
					</g>
				</g>
			</g>
		</g>
		<g>
			<g>
				<g>
					<g>
						<path fill="#362045" d="M469.117,44.352c1.837-0.306,3.571-0.999,4.959-2.099c0.167-0.144,0.345-0.271,0.501-0.426l0.24-0.223
							c0.078-0.076,0.15-0.158,0.225-0.235c0.305-0.31,0.565-0.653,0.809-1.001c0.109-0.183,0.237-0.353,0.331-0.541l0.151-0.277
							c0.044-0.095,0.093-0.188,0.134-0.285c0.169-0.38,0.3-0.773,0.396-1.171c0.373-1.595,0.076-3.288-0.795-4.656
							c-0.857-1.385-2.248-2.454-3.82-3.088c-3.147-1.273-7.092-0.822-9.788,1.334c-1.347,1.062-2.356,2.562-2.673,4.259
							c-0.082,0.423-0.12,0.856-0.117,1.295c0.006,0.438,0.058,0.875,0.146,1.311c0.184,0.868,0.55,1.714,1.048,2.496l0.002,0.002
							c0.112,0.175,0.061,0.41-0.115,0.521c-0.155,0.099-0.354,0.07-0.477-0.058c-0.353-0.37-0.661-0.778-0.939-1.215
							c-0.274-0.439-0.5-0.913-0.683-1.407c-0.364-0.99-0.499-2.068-0.425-3.142c0.075-1.076,0.396-2.137,0.896-3.096
							c0.495-0.964,1.184-1.819,1.973-2.549c1.594-1.456,3.623-2.39,5.735-2.734c2.106-0.35,4.324-0.154,6.347,0.645
							c0.508,0.195,0.998,0.436,1.471,0.709c0.473,0.274,0.93,0.581,1.356,0.929c0.854,0.694,1.608,1.537,2.181,2.505
							c0.567,0.968,0.965,2.056,1.102,3.179c0.146,1.12,0.053,2.271-0.27,3.342c-0.162,0.535-0.372,1.053-0.635,1.537
							c-0.064,0.123-0.135,0.24-0.203,0.36l-0.223,0.345c-0.143,0.234-0.318,0.443-0.48,0.662c-0.683,0.845-1.504,1.55-2.396,2.115
							c-1.801,1.108-3.881,1.651-5.904,1.588c-0.258-0.008-0.463-0.224-0.453-0.483c0.005-0.227,0.174-0.412,0.39-0.447
							L469.117,44.352z"/>
					</g>
				</g>
			</g>
		</g>
		<g>
			<g>
				<g>
					<g>
						<path fill="#362045" d="M456.946,32.748c-0.717,1.677-1.033,3.468-0.829,5.194c0.092,0.862,0.3,1.703,0.62,2.495
							c0.313,0.795,0.732,1.543,1.242,2.23c1.013,1.375,2.361,2.5,3.877,3.324c1.516,0.832,3.202,1.353,4.928,1.584
							c1.728,0.228,3.508,0.154,5.221-0.207c1.711-0.367,3.359-1.035,4.824-2c0.736-0.475,1.416-1.036,2.034-1.658
							c0.613-0.626,1.173-1.313,1.624-2.069c0.462-0.751,0.827-1.566,1.083-2.423c0.249-0.856,0.39-1.755,0.422-2.672V36.54
							c0.007-0.207,0.181-0.371,0.39-0.363c0.184,0.005,0.332,0.142,0.36,0.317c0.156,0.975,0.157,1.985,0.013,2.983
							c-0.037,0.248-0.084,0.496-0.137,0.745l-0.094,0.366c-0.03,0.123-0.064,0.245-0.104,0.365l-0.116,0.362
							c-0.039,0.122-0.088,0.238-0.131,0.357c-0.085,0.24-0.191,0.47-0.294,0.703c-0.421,0.928-0.983,1.789-1.631,2.577
							c-0.647,0.792-1.394,1.499-2.205,2.118c-1.627,1.234-3.511,2.13-5.493,2.623c-1.982,0.499-4.049,0.626-6.083,0.376
							c-2.032-0.252-4.03-0.889-5.822-1.922c-0.892-0.52-1.735-1.131-2.499-1.835c-0.763-0.705-1.441-1.508-2.008-2.384
							c-0.572-0.872-1.014-1.833-1.316-2.831c-0.156-0.498-0.26-1.011-0.347-1.521c-0.028-0.259-0.065-0.515-0.082-0.774
							c-0.013-0.259-0.034-0.516-0.03-0.774c0.008-1.032,0.158-2.059,0.461-3.029c0.153-0.484,0.34-0.955,0.556-1.408
							c0.223-0.451,0.469-0.887,0.752-1.295c0.147-0.213,0.439-0.266,0.652-0.118c0.187,0.128,0.251,0.369,0.164,0.569
							L456.946,32.748z"/>
					</g>
				</g>
			</g>
		</g>
		<g>
			<g>
				<g>
					<g>
						<path fill="#362045" d="M491.405,58.162c-0.962,0.624-1.842,1.329-2.641,2.102c-0.789,0.789-1.507,1.627-2.109,2.534
							c-1.213,1.808-2.014,3.841-2.395,5.948c-0.379,2.108-0.36,4.285,0.025,6.403c0.372,2.121,1.105,4.184,2.133,6.098
							c1.025,1.914,2.336,3.691,3.879,5.255c0.785,0.765,1.594,1.514,2.477,2.17l0.66,0.496l0.688,0.456
							c0.452,0.32,0.939,0.578,1.416,0.856c0.237,0.146,0.487,0.263,0.734,0.387l0.744,0.371l0.766,0.323l0.383,0.165
							c0.127,0.058,0.261,0.094,0.391,0.143l0.787,0.277c0.131,0.05,0.266,0.087,0.399,0.124l0.4,0.115l0.404,0.116
							c0.134,0.04,0.269,0.079,0.405,0.104c0.273,0.057,0.547,0.117,0.82,0.178c0.273,0.07,0.551,0.103,0.828,0.145
							c0.278,0.038,0.557,0.09,0.836,0.124l0.843,0.072c0.141,0.01,0.282,0.027,0.423,0.034l0.425,0.008l0.853,0.017l0.854-0.041
							l0.433-0.017l0.425-0.05c0.285-0.035,0.573-0.065,0.863-0.094l0.049-0.005c0.325-0.033,0.614,0.204,0.647,0.528
							c0.026,0.274-0.14,0.523-0.388,0.613c-0.291,0.104-0.584,0.208-0.879,0.307l-0.445,0.15l-0.451,0.116l-0.912,0.224
							c-0.308,0.057-0.617,0.103-0.928,0.152l-0.467,0.073c-0.156,0.02-0.313,0.029-0.47,0.042l-0.944,0.071
							c-0.314,0.014-0.631,0.006-0.947,0.007c-0.316-0.002-0.635,0.004-0.949-0.028c-0.315-0.022-0.631-0.047-0.947-0.074
							c-0.16-0.009-0.316-0.032-0.473-0.058l-0.471-0.071l-0.471-0.072c-0.158-0.022-0.316-0.048-0.471-0.087l-0.93-0.213
							c-0.154-0.039-0.313-0.066-0.464-0.114l-0.458-0.138l-0.914-0.282l-0.895-0.342c-0.298-0.115-0.601-0.223-0.887-0.365
							c-2.33-1.05-4.504-2.478-6.392-4.223c-1.891-1.74-3.497-3.799-4.745-6.071c-0.627-1.133-1.148-2.327-1.573-3.558
							c-0.423-1.23-0.723-2.503-0.92-3.793c-0.377-2.583-0.282-5.254,0.393-7.794c0.662-2.539,1.904-4.936,3.638-6.875
							c0.208-0.249,0.442-0.475,0.669-0.706c0.224-0.234,0.468-0.447,0.707-0.661c0.235-0.219,0.492-0.414,0.745-0.612
							c0.25-0.201,0.506-0.39,0.771-0.569c0.529-0.36,1.08-0.683,1.645-0.971c0.57-0.279,1.146-0.536,1.741-0.738
							c0.385-0.13,0.804,0.076,0.935,0.461c0.109,0.326-0.021,0.675-0.297,0.854L491.405,58.162z"/>
					</g>
				</g>
			</g>
		</g>
		<g opacity="0.35">
			<g>
				<g>
					<g>
						<path fill="#362045" d="M511.87,69.563c3.533,7.095,1.654,15.268-4.197,18.256s-13.458-0.339-16.991-7.433
							c-3.532-7.094-1.653-15.268,4.196-18.256C500.729,59.141,508.337,62.468,511.87,69.563z"/>
					</g>
				</g>
			</g>
		</g>
		<g>
			<g>
				<g>
					<g>
						<path fill="#F5D52F" d="M504.884,86.688c-4.071,1.153-8.977-0.501-12.374-4.597c-4.522-5.453-4.657-13.168-0.306-17.236
							c0.615-0.575,1.287-1.044,2.002-1.413c3.328,0.411,6.711,2.249,9.304,5.372C508.103,74.354,508.592,82.012,504.884,86.688z"/>
					</g>
				</g>
			</g>
		</g>
		<g>
			<g>
				<g>
					<g>
						<path fill="#362045" d="M510.112,67.733c-0.966-0.847-2.008-1.572-3.103-2.157c-1.099-0.581-2.253-1.021-3.431-1.287
							c-2.35-0.54-4.797-0.388-6.838,0.534l-0.378,0.182l-0.189,0.089l-0.185,0.101c-0.24,0.136-0.473,0.283-0.699,0.438
							c-0.225,0.156-0.441,0.324-0.65,0.501c-0.209,0.174-0.404,0.374-0.599,0.563c-0.757,0.787-1.354,1.708-1.763,2.719
							c-0.414,1.009-0.621,2.109-0.669,3.225c-0.039,1.118,0.114,2.253,0.415,3.355c0.609,2.205,1.883,4.258,3.582,5.881
							l0.317,0.306c0.11,0.097,0.226,0.188,0.337,0.283l0.337,0.284l0.354,0.26l0.354,0.263l0.37,0.239
							c0.124,0.078,0.244,0.164,0.371,0.238l0.386,0.214c1.029,0.562,2.132,1.003,3.276,1.263c1.144,0.27,2.327,0.345,3.491,0.247
							c0.145-0.016,0.292-0.023,0.438-0.043l0.432-0.074c0.29-0.043,0.575-0.108,0.856-0.184c0.567-0.151,1.116-0.364,1.648-0.619
							c1.063-0.514,2.04-1.242,2.858-2.142c0.819-0.898,1.471-1.976,1.939-3.163l0.003-0.009c0.12-0.304,0.464-0.453,0.767-0.334
							c0.264,0.104,0.412,0.379,0.367,0.648c-0.233,1.397-0.75,2.784-1.563,4.011c-0.804,1.233-1.882,2.302-3.14,3.124
							c-0.628,0.414-1.304,0.758-2.005,1.039c-0.352,0.138-0.708,0.268-1.073,0.361l-0.548,0.151
							c-0.184,0.044-0.369,0.076-0.554,0.113c-1.484,0.291-3.015,0.308-4.505,0.092c-2.979-0.452-5.798-1.813-8.043-3.813
							c-0.142-0.125-0.285-0.247-0.422-0.375l-0.399-0.399c-0.133-0.133-0.266-0.266-0.396-0.402l-0.374-0.424
							c-0.484-0.575-0.947-1.175-1.355-1.813c-0.409-0.638-0.782-1.302-1.099-1.996c-0.313-0.696-0.581-1.414-0.796-2.149
							c-0.221-0.736-0.372-1.494-0.467-2.262c-0.093-0.767-0.133-1.543-0.1-2.324c0.066-1.559,0.411-3.123,1.039-4.582
							c0.641-1.453,1.572-2.791,2.73-3.877c1.15-1.078,2.541-1.94,4.006-2.451c1.465-0.542,3.017-0.772,4.53-0.746
							c0.189-0.006,0.378,0.013,0.566,0.027l0.563,0.045c0.188,0.009,0.373,0.042,0.559,0.072l0.553,0.089
							c0.734,0.144,1.453,0.338,2.147,0.587c2.777,1.001,5.168,2.829,6.835,5.103c0.238,0.328,0.17,0.787-0.158,1.026
							c-0.283,0.208-0.665,0.183-0.918-0.04L510.112,67.733z"/>
					</g>
				</g>
			</g>
		</g>
		<g>
			<g>
				<g>
					<g>
						<path fill="#F5D52F" d="M483.905,134.779c4.569,1.833,8.297,4.813,10.627,8.867c4.223,7.347,2.672,16.107-2.82,24.247
							c-3.605,5.34-9.003,10.224-15.797,13.831c-17.155,9.104-36.73,6.62-43.723-5.547c-2.604-4.527-3.096-9.757-1.807-15.009
							c2.178-8.863,9.652-17.352,20.424-23.068"/>
					</g>
				</g>
			</g>
		</g>
		<g>
			<g>
				<g>
					<g>
						<path fill="#362045" d="M495.275,143.219c1.175,1.721,2.063,3.677,2.579,5.744c0.525,2.066,0.679,4.23,0.522,6.359
							c-0.157,2.13-0.614,4.226-1.292,6.23c-0.336,1.003-0.73,1.984-1.168,2.941c-0.439,0.957-0.91,1.897-1.434,2.806
							c-1.041,1.811-2.217,3.568-3.547,5.188c-1.318,1.631-2.771,3.145-4.312,4.558c-0.383,0.353-0.779,0.692-1.174,1.036
							c-0.404,0.328-0.805,0.664-1.214,0.987c-0.822,0.642-1.658,1.267-2.52,1.854c-1.721,1.171-3.516,2.235-5.365,3.185
							c-3.706,1.885-7.654,3.315-11.732,4.177c-1.021,0.215-2.047,0.398-3.079,0.545c-1.033,0.145-2.073,0.246-3.115,0.314
							c-2.082,0.139-4.181,0.109-6.265-0.088c-1.043-0.099-2.08-0.251-3.111-0.443c-1.031-0.193-2.055-0.436-3.063-0.734
							c-2.018-0.589-3.979-1.394-5.816-2.429c-1.834-1.037-3.54-2.313-5.005-3.821c-0.734-0.752-1.406-1.561-2.009-2.413
							c-0.594-0.859-1.127-1.755-1.565-2.692c-0.161-0.347-0.012-0.76,0.336-0.922c0.308-0.145,0.669-0.041,0.86,0.227l0.004,0.006
							c0.556,0.783,1.15,1.53,1.806,2.216c0.647,0.691,1.339,1.336,2.079,1.917c1.479,1.163,3.097,2.128,4.811,2.876
							c3.432,1.504,7.178,2.223,10.934,2.351c3.764,0.13,7.548-0.314,11.217-1.214c0.918-0.229,1.83-0.483,2.733-0.76
							c0.903-0.278,1.798-0.589,2.683-0.926c0.883-0.339,1.762-0.691,2.626-1.076c0.864-0.387,1.718-0.798,2.558-1.233
							c1.68-0.877,3.319-1.828,4.883-2.889c1.572-1.048,3.08-2.193,4.502-3.43c1.425-1.232,2.761-2.562,4.009-3.965
							c1.244-1.409,2.378-2.901,3.397-4.486c1.021-1.579,1.904-3.233,2.635-4.945c0.715-1.716,1.263-3.494,1.566-5.313
							c0.309-1.816,0.365-3.672,0.13-5.508c-0.237-1.835-0.767-3.647-1.571-5.373l-0.002-0.006
							c-0.202-0.431-0.016-0.943,0.415-1.145C494.589,142.743,495.043,142.876,495.275,143.219z"/>
					</g>
				</g>
			</g>
		</g>
		<g opacity="0.35">
			<g>
				<g>
					<g>
						<path fill="#362045" d="M458.282,140.964c14.035-4.484,27.677,0.292,30.469,10.669c2.791,10.377-6.322,22.425-20.357,26.91
							c-14.035,4.484-27.677-0.292-30.469-10.669S444.247,145.449,458.282,140.964z"/>
					</g>
				</g>
			</g>
		</g>
		<g>
			<g>
				<g>
					<g>
						<path fill="#F5D52F" d="M460.251,151.141c12.143-2.905,23.051,1.067,24.363,8.874c1.312,7.807-7.469,16.491-19.611,19.396
							c-12.145,2.905-23.052-1.069-24.365-8.875C439.327,162.729,448.107,154.046,460.251,151.141z"/>
					</g>
				</g>
			</g>
		</g>
		<g>
			<g>
				<g>
					<g>
						<path fill="#362045" d="M447.38,179.787c-0.617-0.209-1.234-0.431-1.831-0.708c-0.302-0.129-0.595-0.281-0.894-0.426
							c-0.29-0.156-0.586-0.306-0.869-0.479c-1.146-0.675-2.221-1.497-3.193-2.443c-1.943-1.897-3.373-4.373-4.082-7.058
							c-0.351-1.343-0.523-2.73-0.537-4.112c-0.008-1.382,0.146-2.757,0.432-4.094c0.287-1.338,0.707-2.637,1.22-3.89l0.196-0.469
							c0.064-0.156,0.133-0.312,0.207-0.463c0.146-0.304,0.289-0.611,0.439-0.912l0.479-0.89c0.16-0.297,0.341-0.579,0.51-0.869
							c0.168-0.292,0.354-0.57,0.54-0.851c0.184-0.28,0.364-0.563,0.564-0.831c0.197-0.271,0.389-0.546,0.59-0.813l0.621-0.787
							c0.85-1.03,1.748-2.016,2.706-2.94c1.92-1.84,4.04-3.459,6.302-4.834c4.518-2.739,9.601-4.606,14.913-5.236
							c1.329-0.15,2.668-0.23,4.013-0.232c1.344,0.009,2.695,0.11,4.037,0.303c2.683,0.384,5.355,1.184,7.819,2.501
							c1.23,0.657,2.406,1.449,3.476,2.384c1.064,0.935,2.025,2.006,2.83,3.186c0.805,1.178,1.455,2.462,1.918,3.811
							c0.465,1.347,0.744,2.75,0.846,4.151c0.1,1.403,0.02,2.801-0.198,4.158c-0.219,1.359-0.595,2.675-1.069,3.936
							c-0.479,1.261-1.059,2.469-1.727,3.617c-0.67,1.146-1.424,2.231-2.242,3.256c-0.813,1.028-1.699,1.991-2.637,2.891
							c-0.462,0.456-0.952,0.882-1.438,1.31c-0.244,0.211-0.5,0.41-0.75,0.614c-0.125,0.101-0.25,0.204-0.377,0.303l-0.387,0.29
							c-1.024,0.782-2.1,1.491-3.197,2.149l-0.832,0.478c-0.28,0.153-0.564,0.299-0.846,0.449c-0.559,0.309-1.146,0.562-1.718,0.837
							c-0.344,0.166-0.759,0.021-0.924-0.323c-0.153-0.317-0.042-0.695,0.247-0.882l0.027-0.016
							c1.032-0.666,2.059-1.329,3.021-2.076c0.969-0.736,1.913-1.498,2.79-2.328l0.335-0.307c0.107-0.104,0.214-0.212,0.32-0.318
							l0.639-0.636c0.414-0.438,0.83-0.87,1.217-1.327l0.295-0.338c0.098-0.113,0.188-0.232,0.283-0.348
							c0.186-0.233,0.379-0.46,0.559-0.697l0.534-0.714c0.177-0.239,0.338-0.489,0.508-0.731c0.655-0.984,1.267-1.993,1.779-3.044
							c0.509-1.051,0.945-2.126,1.283-3.222c0.335-1.096,0.575-2.21,0.695-3.322c0.118-1.112,0.114-2.223-0.021-3.304
							c-0.127-1.081-0.391-2.133-0.785-3.126c-0.395-0.992-0.918-1.932-1.549-2.79c-0.633-0.858-1.377-1.633-2.21-2.313
							c-0.829-0.685-1.75-1.274-2.732-1.765c-0.981-0.494-2.023-0.885-3.095-1.203c-1.073-0.315-2.182-0.549-3.311-0.687
							c-1.129-0.141-2.271-0.206-3.42-0.209c-1.149,0.011-2.302,0.089-3.45,0.226c-4.599,0.574-9.098,2.183-13.136,4.551
							c-1.016,0.582-1.987,1.235-2.935,1.916c-0.948,0.683-1.84,1.436-2.712,2.206c-0.863,0.781-1.674,1.615-2.439,2.483
							c-0.764,0.872-1.467,1.79-2.109,2.746c-0.644,0.953-1.212,1.953-1.699,2.983c-0.487,1.03-0.887,2.095-1.188,3.182
							c-0.307,1.084-0.5,2.193-0.562,3.306c-0.069,1.11-0.012,2.225,0.191,3.313c0.195,1.09,0.535,2.156,1.014,3.167l0.178,0.381
							l0.198,0.371c0.064,0.125,0.136,0.246,0.209,0.366c0.074,0.119,0.144,0.243,0.221,0.361c0.157,0.233,0.309,0.473,0.481,0.697
							c0.161,0.233,0.344,0.452,0.52,0.676c0.73,0.875,1.57,1.676,2.511,2.371c0.925,0.716,1.956,1.307,3.024,1.843l0.022,0.011
							c0.425,0.213,0.596,0.73,0.383,1.153C448.229,179.746,447.779,179.923,447.38,179.787z"/>
					</g>
				</g>
			</g>
		</g>
	</g>
	<g>
		<g>
			<g>
				<g>
					<g>
						<path fill="#FFFFFF" d="M118.207,367.341c-1.704,10.424-10.104,14.568-26.648,11.297c-16.546-3.27-22.912,3.74-24.011,5.088
							c-3.717,4.557-30.563,47.799-5.019,60.066c18.017,8.652,36.849-19.627,36.849-19.627s42.491,28.492,101.439-36.295"/>
					</g>
				</g>
			</g>
		</g>
		<g>
			<g>
				<g>
					<g>
						<path fill="#362045" d="M145.891,424c-5.052,0-9.883-0.855-14.333-2.563c-14.311-5.486-24.867-19.393-31.374-41.332
							c-0.428-1.445,0.396-2.963,1.84-3.393c1.445-0.428,2.963,0.396,3.393,1.84c5.998,20.229,15.45,32.941,28.095,37.791
							c17.635,6.76,35.761-4.156,35.942-4.268c1.284-0.789,2.963-0.387,3.752,0.898c0.788,1.285,0.385,2.965-0.899,3.752
							c-0.209,0.129-5.22,3.174-12.695,5.291C154.938,423.339,150.329,424,145.891,424z"/>
					</g>
				</g>
			</g>
		</g>
		<g opacity="0.35">
			<g>
				<g>
					<g>
						<path fill="#362045" d="M62.529,443.796c18.017,8.648,36.847-19.629,36.847-19.629s42.489,28.488,101.44-36.295
							l-54.053-13.436c-19.146,35.217-49.628,33.859-49.628,33.859s-10.39,34.908-37.369,26.363
							c-7.262-2.301-6.101-11.244-7.821-14.342C50.697,430.062,52.855,439.148,62.529,443.796z"/>
					</g>
				</g>
			</g>
		</g>
		<g>
			<g>
				<g>
					<g>
						<path fill="#362045" d="M69.673,448.162c-2.884,0-5.669-0.635-8.325-1.908c-6.32-3.037-10.285-7.986-11.785-14.715
							c-1.791-8.033-0.014-18.318,5.283-30.57c3.891-9.002,8.817-16.795,10.588-18.967c1.863-2.285,9.293-9.471,26.654-6.039
							c8.852,1.75,15.265,1.301,19.066-1.338c2.351-1.633,3.778-4.158,4.361-7.725c0.243-1.486,1.645-2.494,3.132-2.252
							c1.487,0.244,2.496,1.646,2.253,3.133c-0.823,5.031-3.056,8.842-6.636,11.328c-5.133,3.561-12.732,4.283-23.236,2.207
							c-14.749-2.916-20.386,2.932-21.366,4.135c-2.312,2.834-18.474,28.303-14.773,44.9c1.134,5.084,4.019,8.676,8.819,10.982
							c15.665,7.523,33.223-18.418,33.399-18.682l1.517-2.273l2.272,1.521c0.095,0.063,10.349,6.699,27.344,5.666
							c15.824-0.963,40.91-8.949,70.556-41.531c1.014-1.115,2.741-1.195,3.854-0.182c1.115,1.014,1.197,2.74,0.182,3.854
							c-13.661,15.014-27.613,26.313-41.47,33.584c-11.207,5.879-22.385,9.16-33.226,9.746c-1.208,0.066-2.388,0.098-3.533,0.098
							c-12.113,0-20.589-3.434-24.436-5.391c-1.965,2.627-5.766,7.32-10.68,11.549C82.649,445.177,75.93,448.162,69.673,448.162z"/>
					</g>
				</g>
			</g>
		</g>
		<g>
			<g>
				<g>
					<g>
						<g>
							<path fill="#FFFFFF" d="M193.679,261.682c-1.725-0.3-38.018-17.372-62.363-17.024c-20.298,0.29-58.97,68.832-52.162,86.846
								c6.309,16.693,41.43,31.869,41.43,31.869L193.679,261.682z"/>
						</g>
					</g>
				</g>
			</g>
			<g>
				<g>
					<g>
						<g>
							<path fill="#FFFFFF" d="M193.678,261.683l-11.879,16.527l-61.216,85.162c0,0-17.03-7.359-29.5-17.469
								c-5.44-4.401-10.008-9.328-11.927-14.4c-6.809-18.012,31.863-86.558,52.163-86.846
								C155.662,244.31,191.953,261.382,193.678,261.683z"/>
						</g>
					</g>
				</g>
			</g>
			<g opacity="0.35">
				<g>
					<g>
						<g>
							<path fill="#362045" d="M181.798,278.21l-61.216,85.162c0,0-0.012-0.002-0.028-0.01c-0.078-0.037-0.326-0.145-0.73-0.326
								c-0.08-0.037-0.168-0.076-0.263-0.121c-0.017-0.004-0.031-0.012-0.053-0.021c-0.085-0.039-0.178-0.084-0.273-0.123
								c-0.225-0.109-0.482-0.225-0.766-0.355c-0.068-0.035-0.143-0.064-0.215-0.102c-0.068-0.029-0.13-0.063-0.199-0.092
								c-0.083-0.043-0.172-0.082-0.261-0.127c-0.907-0.426-2.009-0.961-3.255-1.584c-0.152-0.072-0.308-0.152-0.464-0.232
								c-0.469-0.238-0.958-0.486-1.462-0.748c-0.166-0.088-0.338-0.176-0.51-0.262c-0.199-0.1-0.4-0.211-0.608-0.316
								c-0.248-0.135-0.504-0.268-0.763-0.404c-0.079-0.037-0.15-0.078-0.223-0.121c-0.186-0.102-0.374-0.197-0.564-0.301
								c-0.534-0.291-1.078-0.582-1.631-0.887c-0.017-0.008-0.037-0.023-0.057-0.033c-0.382-0.211-0.775-0.43-1.167-0.654
								c-0.01-0.002-0.021-0.01-0.03-0.018c-0.285-0.16-0.568-0.318-0.857-0.484c-0.181-0.1-0.36-0.207-0.546-0.314
								c-0.684-0.396-1.385-0.803-2.086-1.225c-0.452-0.27-0.907-0.551-1.367-0.834c-0.416-0.251-0.834-0.514-1.253-0.777
								c-0.418-0.264-0.836-0.533-1.26-0.803c-0.416-0.275-0.838-0.55-1.26-0.826c-0.42-0.28-0.836-0.561-1.251-0.846
								c-0.42-0.285-0.834-0.572-1.248-0.867c-0.006,0.004-0.006,0.004-0.004-0.002c-0.414-0.291-0.826-0.588-1.234-0.883
								c-0.412-0.303-0.818-0.604-1.223-0.904c-0.066-0.045-0.131-0.097-0.19-0.143c-0.34-0.26-0.68-0.521-1.014-0.779
								c-0.397-0.313-0.791-0.627-1.183-0.943c-5.44-4.401-10.008-9.328-11.927-14.4c-3.552-9.399,5.279-32.559,17.425-52.598
								c-5.397,12.727-8.126,24.219-5.874,30.182c0.789,2.088,2.024,4.148,3.588,6.158c1.827,2.351,3.874,4.393,6.086,6.117
								c13.689-24.422,39.053-52.839,52.642-51.488c7.858,0.785,16.755,3.529,25.25,6.896
								C179.455,277.242,180.636,277.722,181.798,278.21z"/>
						</g>
					</g>
				</g>
			</g>
			<g>
				<g>
					<g>
						<g>
							<path fill="#362045" d="M121.518,366.748l-2.017-0.869c-0.365-0.158-9.069-3.941-18.694-9.855
								c-13.227-8.129-21.369-16.053-24.205-23.555c-2.707-7.162,0.818-19.246,4.251-28.123
								c4.348-11.24,11.088-23.926,18.494-34.807c6.969-10.24,20.384-27.443,31.93-27.609c8.958-0.129,20.455,1.99,34.167,6.298
								c11.047,3.47,20.625,7.427,25.769,9.554c1.361,0.561,2.65,1.094,3.063,1.236l4.16,0.723L121.518,366.748z M132.054,247.381
								c-0.234,0-0.467,0.002-0.699,0.005c-6.435,0.092-16.97,9.757-27.497,25.223c-7.183,10.551-13.712,22.836-17.915,33.705
								c-4.305,11.129-5.85,19.959-4.236,24.225c2.359,6.246,9.934,13.438,21.9,20.801c6.641,4.086,12.963,7.178,16.067,8.623
								l69.74-97.021c-0.093-0.039-0.188-0.078-0.285-0.117C179.833,258.981,151.764,247.381,132.054,247.381z M194.342,259.039
								L194.342,259.039L194.342,259.039z"/>
						</g>
					</g>
				</g>
			</g>
			<g>
				<g>
					<g>
						<g>
							<path fill="#362045" d="M129.951,243.49c0.892,0.969,1.741,1.922,2.598,2.891c0.854,0.968,1.7,1.939,2.536,2.92
								c1.677,1.958,3.327,3.939,4.932,5.963c1.605,2.023,3.187,4.07,4.684,6.197c0.188,0.265,0.379,0.525,0.564,0.793l0.549,0.812
								c0.362,0.544,0.74,1.071,1.082,1.634c0.346,0.559,0.705,1.105,1.04,1.676l0.982,1.729c0.426,0.748,0.164,1.699-0.584,2.125
								c-0.732,0.416-1.659,0.174-2.097-0.537l-0.03-0.049c-1.278-2.084-2.785-4.09-4.34-6.055
								c-1.555-1.969-3.208-3.881-4.885-5.768c-1.677-1.89-3.403-3.743-5.154-5.572c-0.874-0.916-1.757-1.824-2.646-2.725
								c-0.886-0.898-1.788-1.803-2.676-2.666l-0.007-0.008c-0.953-0.926-0.975-2.453-0.048-3.406
								c0.927-0.955,2.454-0.977,3.407-0.049C129.888,243.423,129.923,243.458,129.951,243.49z"/>
						</g>
					</g>
				</g>
			</g>
			<g>
				<g>
					<g>
						<g>
							<path fill="#FFFFFF" d="M94.238,281.384l17.156,13.432c1.531,1.199,2.064,3.277,1.289,5.063
								c-2.842,6.531-10.187,21.275-18.854,21.973c-7.195,0.578-14.54-4.965-16.483-11.745c-2.174-7.585,6.244-21.235,10.734-27.776
								C89.477,280.295,92.296,279.863,94.238,281.384z"/>
						</g>
					</g>
				</g>
			</g>
			<g opacity="0.35">
				<g>
					<g>
						<g>
							<path fill="#362045" d="M112.68,299.878c-2.838,6.531-10.186,21.277-18.852,21.971c-7.196,0.579-14.54-4.963-16.484-11.746
								c-1.333-4.666,1.336-11.625,4.634-17.811c-1.123,3.439-1.419,6.646-0.862,9.254c3.19,14.93,16.959,9.045,16.959,9.045
								s-0.514,3.322,0.33,4.094c3.53,3.227,10.944-9.621,14.624-16.357C113.015,298.847,112.901,299.373,112.68,299.878z"/>
						</g>
					</g>
				</g>
			</g>
			<g>
				<g>
					<g>
						<g>
							<path fill="#362045" d="M92.807,324.621c-7.904,0-15.843-5.943-18.084-13.764c-2.321-8.1,4.759-20.823,11.108-30.072
								c1.09-1.588,2.806-2.666,4.708-2.957c1.903-0.293,3.865,0.221,5.382,1.408l0,0l17.155,13.432
								c2.512,1.967,3.379,5.379,2.109,8.299c-1.591,3.654-4.187,8.994-7.523,13.67c-4.441,6.223-9.021,9.564-13.615,9.936
								C93.634,324.605,93.22,324.621,92.807,324.621z M91.603,283.203c-0.091,0-0.171,0.008-0.236,0.018
								c-0.246,0.039-0.708,0.174-1.038,0.652c-7.803,11.367-11.676,20.893-10.362,25.481c1.573,5.487,7.315,9.81,12.82,9.81
								c0.274,0,0.549-0.01,0.822-0.032c5.899-0.474,12.428-10.819,16.57-20.343c0.278-0.641,0.086-1.391-0.468-1.824
								l-17.156-13.432C92.217,283.267,91.864,283.203,91.603,283.203z"/>
						</g>
					</g>
				</g>
			</g>
			<g>
				<g>
					<g>
						<g>
							<path fill="#362045" d="M83.475,316.011c-0.007,0-0.027-0.002-0.025-0.001l0.007,0.001c0.005,0.002,0.008,0.004,0.021,0.006
								l0.063,0.012c0.051,0.006,0.099,0.014,0.156,0.019c0.108,0.013,0.229,0.021,0.349,0.024c0.242,0.015,0.495,0.012,0.75,0.006
								c0.514-0.02,1.04-0.074,1.567-0.162c0.528-0.088,1.057-0.211,1.582-0.363c0.527-0.148,1.048-0.334,1.564-0.543
								c2.063-0.84,4.016-2.111,5.765-3.672c0.876-0.779,1.705-1.627,2.492-2.523l0.584-0.682l0.577-0.712
								c0.194-0.235,0.38-0.478,0.568-0.718c0.185-0.242,0.378-0.48,0.557-0.727c0.737-0.972,1.437-1.969,2.082-2.992
								c0.317-0.514,0.63-1.031,0.911-1.56c0.142-0.263,0.276-0.528,0.403-0.794c0.06-0.133,0.124-0.268,0.178-0.398
								c0.027-0.066,0.056-0.132,0.081-0.195l0.064-0.168l0.033-0.084c0.141-0.371,0.557-0.555,0.927-0.412
								c0.339,0.129,0.522,0.488,0.442,0.832l-0.035,0.15l-0.033,0.127c-0.022,0.086-0.046,0.166-0.07,0.247
								c-0.047,0.163-0.1,0.317-0.15,0.474c-0.108,0.311-0.221,0.615-0.34,0.916c-0.238,0.602-0.505,1.184-0.778,1.762
								c-0.556,1.152-1.166,2.271-1.812,3.363c-0.16,0.277-0.328,0.544-0.492,0.816c-0.164,0.271-0.329,0.543-0.502,0.809
								l-0.511,0.801l-0.544,0.803c-0.739,1.064-1.54,2.098-2.42,3.079c-1.753,1.961-3.834,3.714-6.251,5.038
								c-0.604,0.329-1.227,0.635-1.873,0.9c-0.644,0.27-1.305,0.508-1.987,0.703c-0.683,0.197-1.382,0.355-2.105,0.467
								c-0.363,0.053-0.729,0.1-1.109,0.124c-0.189,0.014-0.382,0.022-0.583,0.026c-0.098,0.002-0.205,0.002-0.31,0.002
								l-0.169-0.006L83,320.801l-0.05-0.003l-0.083-0.008c-1.319-0.168-2.253-1.375-2.085-2.694
								C80.949,316.777,82.155,315.843,83.475,316.011z"/>
						</g>
					</g>
				</g>
			</g>
		</g>
		<g>
			<g>
				<g>
					<g>
						<path fill="#FFFFFF" d="M235.3,319.501c0,0,8.363,1.162,21.418,0.193c26.115-1.943,71.04-12.385,105.563-57.6
							c4.5-5.892,26.286-8.305,20.6-20.578c-1.725-3.725-6.244-4.514-6.244-4.514s6.622-2.711,5.085-9.604
							c-2.433-10.892-22.234-6.223-22.234-6.223s6.628-6.977,8.097-13.543c1.025-4.602-2.188-8.764-5.043-9.862
							c-8.1-3.114-24.746,9.115-34.872,15.952c-9.542,6.438-15.681,14.772-22.017,23.327c-9.885,13.334-20.256,27.205-44.786,35.27
							c-8.216,2.697-18.018,4.75-29.925,5.906l2.938,27.836L235.3,319.501z"/>
					</g>
				</g>
			</g>
		</g>
		<g opacity="0.35">
			<g>
				<g>
					<g>
						<path fill="#362045" d="M235.3,319.501c0,0,8.363,1.162,21.418,0.193c26.115-1.943,71.04-12.385,105.563-57.6
							c3.809-4.98,19.982-7.479,21.433-15.557c-1.789-3.82-16.783,7.063-20.789,8.193c-7.772,2.191-9.477-2.541-9.8-4.609
							c-1.228-7.867,27.961-11.99,28.326-18.875c0.465-8.792-8.894,6.688-30.927,7.121c-6.97,0.137-8.7-8.468-8.97-7.861
							c-7.9,17.82,5.653,30.01-2.266,41.663c-23.66,34.823-59.408,29.383-81.517,31.028c-13.055,0.969-21.417-0.193-21.417-0.193
							l-1.422-13.439l-1.229-11.633c-0.908,0.107-1.832,0.203-2.763,0.293l2.938,27.836L235.3,319.501z"/>
					</g>
				</g>
			</g>
		</g>
		<g>
			<g>
				<g>
					<g>
						<path fill="#362045" d="M246.521,322.822c-6.987,0-11.23-0.566-11.595-0.617c-1.492-0.207-2.534-1.584-2.327-3.076
							c0.207-1.493,1.583-2.535,3.077-2.328c0.182,0.025,18.763,2.469,43.296-3.273c22.556-5.277,54.942-18.773,81.142-53.089
							c1.928-2.524,5.728-4.263,9.749-6.103c4.607-2.109,9.832-4.498,10.988-7.627c0.425-1.152,0.279-2.475-0.447-4.041
							c-1.06-2.289-4.06-2.938-4.249-2.977c-1.212-0.195-2.145-1.166-2.276-2.389c-0.131-1.223,0.569-2.369,1.711-2.819
							c0.516-0.224,4.449-2.089,3.467-6.487c-0.329-1.468-1.091-2.535-2.4-3.354c-4.479-2.807-13.462-1.535-16.546-0.808
							c-1.175,0.276-2.392-0.25-2.992-1.297c-0.601-1.047-0.443-2.364,0.388-3.238c0.061-0.063,6.131-6.523,7.412-12.259
							c0.736-3.286-1.793-6.123-3.354-6.723c-1.69-0.65-5.27-0.62-12.718,3.206c-5.653,2.904-11.807,7.109-16.754,10.488
							c-1.012,0.69-1.98,1.353-2.897,1.971c-9.073,6.124-14.961,14.069-21.193,22.481c-6.736,9.093-13.702,18.494-25.193,26.29
							c-12.936,8.774-29.814,14.069-51.6,16.188c-1.5,0.143-2.833-0.952-2.98-2.451c-0.145-1.5,0.953-2.835,2.453-2.98
							c46.427-4.514,59.903-22.704,72.936-40.295c6.232-8.412,12.676-17.11,22.526-23.757c0.908-0.613,1.868-1.269,2.871-1.954
							c5.072-3.465,11.382-7.776,17.338-10.836c7.631-3.919,13.086-5.015,17.168-3.446c4.285,1.646,8.009,7.266,6.725,13.007
							c-0.742,3.315-2.593,6.648-4.406,9.313c0.131-0.009,0.263-0.017,0.396-0.024c5.687-0.319,10.169,0.522,13.321,2.497
							c2.555,1.601,4.18,3.885,4.828,6.788c0.939,4.214-0.468,7.419-2.406,9.603c1.293,0.908,2.556,2.184,3.381,3.965
							c1.348,2.911,1.554,5.68,0.612,8.227c-1.942,5.258-8.262,8.148-13.837,10.699c-3.235,1.479-6.58,3.01-7.681,4.451
							c-12.025,15.75-26.311,28.627-42.46,38.273c-12.924,7.721-27.055,13.396-42.004,16.871
							C266.335,322.067,254.595,322.822,246.521,322.822z"/>
					</g>
				</g>
			</g>
		</g>
		<g>
			<g>
				<g>
					<g>
						<path fill="#FFFFFF" d="M6.559,370.078c12.295,14.475,30.182-2.82,30.182-2.82s13.63,37.838,42.259,45.693
							c24.059,6.6,53.893-9.221,53.893-9.221S234.747,432,256.718,319.695c1.503-7.699,2.637-16.064,3.333-25.139
							c0.538-6.979,0.815-14.383,0.815-22.236c-0.008-4.104-0.087-8.33-0.247-12.682l-84.445-7.621l-9.732-0.873l-2.429-0.221
							c-0.137,0.543-0.274,1.078-0.42,1.615c-4.183,15.305-12.419,26.898-21.242,36.127c-11.194,11.722-23.329,19.643-29.322,26.521
							c-3.303,3.787-5.882,7.473-7.825,10.641c-3.482,5.65-4.961,9.662-4.961,9.662c-3.711,2.936-15.484,11.424-25.206,5.074
							c-3.369-2.204-5.654-5.946-7.663-10.023c-3.56-7.213-6.269-15.469-12.676-18.154c-9.247-3.874-19.863-0.363-28.702,6.127
							c-5.518,4.051-10.34,9.271-13.703,14.582C6.487,342.244-2.428,359.511,6.559,370.078z"/>
					</g>
				</g>
			</g>
		</g>
		<g opacity="0.35">
			<g>
				<g>
					<g>
						<path fill="#362045" d="M4.481,366.933c0.548,1.102,1.234,2.154,2.077,3.145c12.295,14.475,30.182-2.82,30.182-2.82
							s13.63,37.838,42.259,45.693c24.059,6.6,53.893-9.221,53.893-9.221s99.123,27.512,122.893-79.57
							C231.84,399.201,165.916,394.984,143.9,391.3c-4.744-0.793-9.606-0.246-14.048,1.598c-10.197,4.234-30.098,10.777-47.11,6.111
							c-28.629-7.855-35.7-44.879-48.051-48.01C31.805,350.267,26.067,381.388,4.481,366.933z"/>
					</g>
				</g>
			</g>
		</g>
		<g>
			<g>
				<g>
					<g>
						<path fill="#362045" d="M91.804,417.289c-4.855,0-9.384-0.57-13.522-1.703c-6.933-1.902-13.582-5.615-19.761-11.035
							c-4.872-4.271-9.467-9.611-13.655-15.873c-4.55-6.799-7.604-13.146-9.248-16.928c-3.668,2.775-10.242,6.832-17.329,6.832
							c-0.296,0-0.594-0.008-0.894-0.021c-4.995-0.246-9.341-2.504-12.918-6.713c-4.551-5.357-5.639-12.592-3.232-21.504
							c1.536-5.689,4.476-11.984,8.739-18.711c4.85-7.654,12.079-14.514,19.832-18.818c4.302-2.389,8.595-3.898,12.762-4.49
							c4.696-0.668,9.127-0.146,13.169,1.545c6.267,2.625,9.329,9.264,12.289,15.685c2.328,5.05,4.735,10.271,8.495,12.728
							c3.396,2.221,7.575,2.443,12.42,0.668c2.894-1.063,6.003-2.84,9.029-5.158c1.055-2.555,4.956-11.168,12.993-20.393
							c2.961-3.4,7.195-6.914,12.097-10.982c13.45-11.162,31.87-26.451,38.294-52.154c0.366-1.461,1.846-2.352,3.31-1.984
							c1.461,0.365,2.351,1.846,1.984,3.308c-6.856,27.438-26.072,43.386-40.104,55.03c-4.72,3.916-8.797,7.301-11.469,10.367
							c-8.694,9.982-12.252,19.362-12.288,19.457l-0.265,0.712l-0.599,0.476c-3.651,2.891-7.491,5.119-11.104,6.444
							c-6.458,2.368-12.436,1.946-17.285-1.222c-5.073-3.316-7.815-9.262-10.466-15.011c-2.639-5.726-5.132-11.132-9.44-12.937
							c-12.982-5.434-30.375,5.969-39.046,19.65c-3.97,6.264-6.688,12.055-8.08,17.213c-1.91,7.074-1.196,12.643,2.123,16.549
							c2.593,3.051,5.541,4.619,9.01,4.795c8.517,0.428,17.113-7.732,17.199-7.814l3.032-2.914l1.429,3.953
							c0.033,0.092,3.418,9.361,10.165,19.414c6.107,9.1,16.313,20.75,30.255,24.574c11.768,3.229,25.177,0.645,34.354-2.09
							c10.109-3.014,17.46-6.877,17.533-6.916l0.96-0.508l1.047,0.289c0.12,0.033,12.293,3.338,28.765,3.055
							c15.062-0.262,36.936-3.676,55.614-18.447c28.725-22.717,42.146-65.099,39.894-125.965c-0.056-1.506,1.121-2.771,2.625-2.826
							c1.504-0.055,2.772,1.119,2.829,2.625c1.243,33.598-2.3,62.113-10.529,84.756c-7.059,19.42-17.649,34.803-31.477,45.725
							c-8.81,6.957-18.994,12.146-30.268,15.42c-8.981,2.607-18.667,4.012-28.788,4.172c-0.664,0.01-1.324,0.016-1.972,0.016
							c-13.601,0-23.877-2.213-27.104-3.002c-2.374,1.178-8.909,4.244-17.462,6.803c-6.252,1.871-12.285,3.078-17.934,3.586
							C95.762,417.197,93.755,417.289,91.804,417.289z"/>
					</g>
				</g>
			</g>
		</g>
		<g>
			<g>
				<g>
					<g>
						<path fill="#FFFFFF" d="M324.097,220.063c6.758-10.581,21.139-13.13,23.965-12.588c2.152,0.413,7.258,7.299,2.004,11.458
							c-5.257,4.159-9.625,4.059-9.551,6.144c0.072,2.084,3.637,9.5-2.098,16.777"/>
					</g>
				</g>
			</g>
		</g>
		<g>
			<g>
				<g>
					<g>
						<path fill="#362045" d="M323.331,219.573c1.296-2.849,3.346-5.373,5.742-7.447c2.405-2.079,5.161-3.725,8.074-4.971
							c1.461-0.616,2.957-1.155,4.506-1.563c0.772-0.208,1.556-0.391,2.361-0.541c0.807-0.144,1.623-0.26,2.52-0.313l0.34-0.017
							c0.113-0.005,0.241-0.003,0.361-0.005c0.23-0.006,0.518,0.011,0.792,0.027c0.168,0.019,0.337,0.041,0.505,0.067
							c0.203,0.039,0.518,0.121,0.711,0.195c0.41,0.153,0.729,0.325,0.999,0.493c0.544,0.34,0.95,0.683,1.316,1.037
							c0.369,0.354,0.696,0.716,0.991,1.093c0.602,0.748,1.088,1.554,1.497,2.421c0.407,0.866,0.723,1.802,0.891,2.817
							c0.169,1.01,0.19,2.106-0.048,3.199c-0.229,1.089-0.704,2.147-1.34,3.027c-0.15,0.23-0.328,0.424-0.5,0.631
							c-0.166,0.212-0.356,0.381-0.54,0.567c-0.183,0.188-0.38,0.34-0.572,0.503l-0.146,0.12c-0.048,0.039-0.1,0.083-0.139,0.109
							l-0.248,0.185c-0.661,0.489-1.348,0.948-2.051,1.373c-1.405,0.846-2.904,1.536-4.337,2.109
							c-0.709,0.281-1.418,0.543-1.951,0.778c-0.26,0.112-0.47,0.232-0.51,0.249c-0.007-0.002,0.023-0.036,0.085-0.153
							c0.069-0.119,0.125-0.307,0.123-0.452c0.004-0.029,0.002-0.06-0.001-0.089L342.76,225c-0.001-0.007-0.001,0.001-0.001,0.001
							l-0.002,0.01l-0.002,0.011c-0.002,0.004-0.004,0.005-0.002,0.02l0.005,0.074c0.007,0.104,0.028,0.255,0.053,0.414
							c0.053,0.322,0.123,0.682,0.192,1.053c0.135,0.746,0.268,1.534,0.364,2.331c0.19,1.598,0.228,3.264-0.005,4.902
							c-0.221,1.641-0.703,3.252-1.437,4.711c-0.722,1.465-1.69,2.77-2.794,3.889c-0.354,0.359-0.934,0.365-1.293,0.01
							c-0.305-0.299-0.355-0.76-0.148-1.113l0.014-0.021c0.716-1.225,1.306-2.48,1.671-3.781c0.183-0.648,0.327-1.301,0.411-1.959
							c0.084-0.66,0.123-1.319,0.119-1.98c-0.008-0.66-0.06-1.32-0.146-1.982c-0.088-0.66-0.225-1.318-0.379-1.982
							c-0.158-0.666-0.347-1.328-0.557-2.025c-0.103-0.35-0.209-0.711-0.316-1.115c-0.053-0.204-0.106-0.417-0.156-0.679
							l-0.034-0.202c-0.006-0.03-0.011-0.075-0.016-0.118l-0.015-0.128l-0.012-0.128c-0.002-0.023-0.004-0.038-0.006-0.068
							l-0.002-0.091c0-0.122,0.002-0.246,0.009-0.368c0.04-0.515,0.215-1.061,0.474-1.499c0.259-0.433,0.549-0.736,0.818-0.984
							c0.534-0.458,0.977-0.702,1.376-0.927c0.796-0.428,1.462-0.726,2.11-1.045c0.645-0.312,1.259-0.618,1.848-0.949
							c0.591-0.328,1.156-0.682,1.709-1.048c0.553-0.367,1.086-0.76,1.599-1.176l0.194-0.156c0.035-0.028,0.051-0.045,0.075-0.067
							l0.065-0.061c0.085-0.083,0.183-0.159,0.252-0.245c0.154-0.165,0.291-0.328,0.4-0.494c0.221-0.332,0.35-0.662,0.417-1.027
							c0.021-0.09,0.02-0.189,0.038-0.281c-0.004-0.101,0.01-0.197,0.004-0.3c-0.01-0.104-0.002-0.206-0.02-0.316l-0.016-0.163
							l-0.029-0.168c-0.148-0.899-0.661-1.936-1.314-2.763c-0.159-0.209-0.333-0.397-0.498-0.559
							c-0.162-0.165-0.33-0.299-0.416-0.353c-0.041-0.031-0.055-0.031,0.009-0.01l0.009,0.001l0.023,0.01
							c0.018,0.005,0.035,0.012,0.055,0.016c0.018,0.005,0.036,0.009,0.055,0.012c0.015,0.002,0.049,0.005,0.035,0.004
							c-0.017,0-0.031-0.004-0.047-0.011c-0.098-0.005-0.18-0.02-0.319-0.02c-0.065,0-0.124-0.006-0.195-0.004l-0.217,0.004
							c-0.587,0.013-1.249,0.083-1.904,0.175c-0.661,0.086-1.332,0.204-2.001,0.346c-0.669,0.14-1.339,0.305-2.008,0.477
							c-0.666,0.181-1.33,0.377-1.988,0.593c-2.634,0.861-5.192,1.99-7.56,3.45c-2.372,1.455-4.538,3.249-6.444,5.408l-0.01,0.009
							c-0.334,0.38-0.916,0.416-1.296,0.08C323.249,220.369,323.169,219.932,323.331,219.573z"/>
					</g>
				</g>
			</g>
		</g>
		<g>
			<g>
				<g>
					<g>
						<g>
							<path fill="#FFFFFF" d="M256.205,335.694l-30.271,39.862l-30.563,2.979l-16.162,1.574c0,0-12.455-4.775-15.462-5.98
								c-4.084-1.625-2.428-6.57-0.527-9.313c3.251-4.697,5.815-9.377,7.926-13.857c3.405-7.23,5.633-13.957,7.696-19.455
								c1.691-4.516,6.211-7.338,11.009-6.824c28.63,3.077,56.802,2.943,56.802,2.943L256.205,335.694z"/>
						</g>
					</g>
				</g>
			</g>
			<g>
				<g>
					<g>
						<g>
							<path fill="#362045" d="M179.209,382.527c-0.296,0-0.589-0.053-0.867-0.16c-0.508-0.193-12.503-4.797-15.491-5.99
								c-1.908-0.76-3.209-2.131-3.761-3.963c-0.912-3.023,0.507-6.619,2.139-8.977c7.175-10.361,10.931-20.685,13.948-28.979
								c0.485-1.331,0.941-2.59,1.397-3.805c2.087-5.564,7.65-9.012,13.533-8.379c28.159,3.025,56.252,2.933,56.535,2.932
								c0.572-0.004,1.131,0.199,1.57,0.57l9.553,8.066c0.983,0.83,1.144,2.285,0.366,3.311l-30.272,39.865
								c-0.407,0.537-1.02,0.879-1.69,0.945l-46.726,4.553C179.365,382.523,179.288,382.527,179.209,382.527z M188.725,327.037
								c-3.356,0-6.414,2.092-7.622,5.314c-0.448,1.194-0.902,2.441-1.381,3.762c-3.113,8.555-6.986,19.201-14.518,30.078
								c-1.167,1.686-1.806,3.762-1.484,4.826c0.084,0.281,0.261,0.604,0.923,0.869c2.604,1.037,12.487,4.836,14.9,5.762
								l45.104-4.395l28.245-37.196l-7.123-6.015c-5.047-0.012-30.58-0.209-56.178-2.959
								C189.301,327.052,189.012,327.037,188.725,327.037z"/>
						</g>
					</g>
				</g>
			</g>
			<g opacity="0.3">
				<g>
					<g>
						<g>
							<path fill="#362045" d="M195.371,378.535l-16.162,1.574c0,0-12.455-4.775-15.462-5.98c-3.118-1.238-2.891-4.422-1.764-7.076
								c0.35-0.82,0.788-1.588,1.237-2.236c3.251-4.697,5.815-9.377,7.926-13.857c0.654,2.049,2.583-0.079,7.7-1.675
								c6.055-1.888,8.977-7.015,12.521-8.224C201.706,337.529,197.981,366.996,195.371,378.535z"/>
						</g>
					</g>
				</g>
			</g>
			<g>
				<g>
					<g>
						<g>
							<path fill="#FFFFFF" d="M237.037,361.644c-1.409,3.809-2.73,8.67-2.73,8.67s-7.994-2.113-8.62-2.344
								c-2.071-0.768-2.115-5.814-0.093-11.275c2.02-5.461,5.337-9.267,7.41-8.5c1.516,0.561,7.954,2.189,7.954,2.189
								S237.579,360.179,237.037,361.644z"/>
						</g>
					</g>
				</g>
			</g>
			<g>
				<g>
					<g>
						<g>
							
								<ellipse transform="matrix(0.9379 0.3469 -0.3469 0.9379 139.7502 -60.0241)" fill="#FFFFFF" cx="237.522" cy="360.31" rx="5.326" ry="10.542"/>
						</g>
					</g>
				</g>
			</g>
			<g>
				<g>
					<g>
						<g>
							<path fill="#FFFFFF" d="M255.475,337.867c-2.175,3.893-5.608,10.09-9.405,16.467c-5.434,9.125-11.602,18.609-15.852,22.186
								c-7.394,6.219-34.033,5.855-51.014,3.59c-4.458-0.596-7.017-5.273-4.517-9.014c4.087-6.123,7.605-12.201,10.456-17.529
								c2.699-5.043,4.803-9.406,6.224-12.506c1.303-2.842,4.335-4.465,7.427-4c26.868,4.061,46.052,0.258,54.42-2.078
								C254.914,334.506,256.337,336.32,255.475,337.867z"/>
						</g>
					</g>
				</g>
			</g>
			<g opacity="0.3">
				<g>
					<g>
						<g>
							<path fill="#362045" d="M239.063,365.507c-2.627,3.916-5.165,7.334-7.354,9.598c-0.517,0.541-1.015,1.016-1.491,1.414
								c-7.394,6.219-34.033,5.855-51.014,3.59c-4.458-0.596-7.017-5.273-4.517-9.014c4.087-6.123,7.605-12.201,10.456-17.529
								c0.864,4.816,4.708,15.201,21.746,18.816c4.412,0.932,9.024,0.355,13.587-1.172c-0.656-2.064-0.269-5.768,1.179-9.68
								c2.016-5.461,5.337-9.266,7.407-8.5c1.267,0.47,5.965,1.68,7.481,2.072c0.238,0.021,0.471,0.072,0.699,0.156
								c1.462,0.537,2.316,2.279,2.498,4.604C239.865,361.523,239.648,363.478,239.063,365.507z"/>
						</g>
					</g>
				</g>
			</g>
			<g opacity="0.3">
				<g>
					<g>
						<g>
							<path fill="#362045" d="M239.063,365.507c0.585-2.029,0.802-3.984,0.677-5.645c2.269-1.836,4.399-3.717,6.33-5.529
								C243.799,358.148,241.397,362.027,239.063,365.507z"/>
						</g>
					</g>
				</g>
			</g>
			<g>
				<g>
					<g>
						<g>
							<path fill="#362045" d="M202.366,384.031c-7.663,0-16.071-0.535-23.48-1.525c-3.081-0.41-5.653-2.279-6.885-5.002
								c-1.155-2.555-0.908-5.381,0.675-7.75c7.951-11.9,13.747-23.717,16.493-29.701l2.197,1.01l-2.197-1.01
								c1.742-3.793,5.849-6.007,9.986-5.383c26.069,3.938,44.649,0.426,53.405-2.018c1.718-0.479,3.539,0.115,4.642,1.516
								c1.104,1.402,1.255,3.316,0.385,4.877l-0.529,0.944c-5.829,10.456-17.962,32.216-25.285,38.376
								c-3.794,3.193-11.655,5.059-23.368,5.545C206.47,383.992,204.446,384.031,202.366,384.031z M197.75,339.4
								c-1.774,0-3.434,1.033-4.186,2.67c-2.807,6.115-8.731,18.191-16.867,30.369c-0.871,1.303-0.554,2.484-0.289,3.072
								c0.538,1.191,1.703,2.014,3.116,2.201c18.893,2.521,43.052,2.07,49.135-3.047c6.646-5.592,18.93-27.623,24.176-37.031
								l0.03-0.055c-9.494,2.523-28.414,5.801-54.434,1.872C198.205,339.417,197.977,339.4,197.75,339.4z"/>
						</g>
					</g>
				</g>
			</g>
			<g>
				<g>
					<g>
						<g>
							<g>
								<path fill="#34A2DF" d="M237.037,361.644c-1.409,3.809-2.73,8.67-2.73,8.67s-7.994-2.113-8.62-2.344
									c-2.071-0.768-2.115-5.814-0.093-11.275c2.02-5.461,5.337-9.267,7.41-8.5c1.516,0.561,7.954,2.189,7.954,2.189
									S237.579,360.179,237.037,361.644z"/>
							</g>
						</g>
					</g>
				</g>
				<g opacity="0.8">
					<g>
						<g>
							<g>
								<path fill="#FFFFFF" d="M240.954,350.386c0,0-3.376,9.789-3.916,11.258c-1.414,3.809-2.731,8.672-2.731,8.672
									s-0.158-0.043-0.429-0.111c0.489-1.586,1.094-3.492,1.721-5.184c0.545-1.467,3.923-11.262,3.923-11.262
									s-6.44-1.627-7.958-2.186c-1.679-0.625-4.19,1.768-6.156,5.621c0.063-0.168,0.119-0.332,0.182-0.5
									c2.021-5.459,5.337-9.266,7.412-8.5C234.521,348.753,240.954,350.386,240.954,350.386z"/>
							</g>
						</g>
					</g>
				</g>
				<g opacity="0.3">
					<g>
						<g>
							<g>
								<path fill="#362045" d="M236.4,363.47c-1.15,3.373-2.093,6.846-2.093,6.846s-7.992-2.115-8.621-2.348
									c-2.069-0.766-2.112-5.811-0.096-11.273c0.682-1.84,1.51-3.497,2.392-4.852c-1.403,4.748-1.165,8.836,0.677,9.518
									C229.158,361.542,234.302,362.912,236.4,363.47z"/>
							</g>
						</g>
					</g>
				</g>
				<g>
					<g>
						<g>
							<g>
								<path fill="#362045" d="M234.308,372.33c-0.171,0-0.344-0.021-0.517-0.066c-2.432-0.645-8.157-2.164-8.804-2.402
									c-3.876-1.436-3.382-8.193-1.284-13.865c1.059-2.865,2.5-5.426,4.056-7.21c2.684-3.079,4.875-2.875,5.943-2.481
									c1.16,0.43,5.986,1.682,7.748,2.127c0.546,0.139,1.011,0.5,1.278,0.996c0.268,0.496,0.316,1.082,0.133,1.615
									c-0.139,0.4-3.392,9.832-3.936,11.299c-1.36,3.68-2.662,8.453-2.675,8.502C236.007,371.74,235.194,372.33,234.308,372.33z
									 M226.479,366.109c0.68,0.207,3.489,0.967,6.429,1.75c0.522-1.793,1.359-4.533,2.239-6.914
									c0.375-1.014,2.171-6.199,3.192-9.152c-2.004-0.521-4.822-1.277-5.937-1.672c-0.762,0.176-3.117,2.398-4.92,7.273
									C225.687,362.246,226.018,365.458,226.479,366.109z M237.037,361.644h0.001H237.037z"/>
							</g>
						</g>
					</g>
				</g>
				<g>
					<g>
						<g>
							<g>
								
									<ellipse transform="matrix(0.9379 0.3469 -0.3469 0.9379 139.7502 -60.0241)" fill="#34A2DF" cx="237.522" cy="360.31" rx="5.326" ry="10.542"/>
							</g>
						</g>
					</g>
				</g>
				<g opacity="0.8">
					<g>
						<g>
							<g>
								<path fill="#FFFFFF" d="M242.514,362.156c-0.133,0.357-0.272,0.703-0.42,1.041c0.933-4.35,0.124-8.084-2.151-8.932
									c-2.578-0.952-6.136,2.135-8.237,7.006c0.199-0.916,0.471-1.859,0.819-2.807c2.021-5.461,5.896-9.065,8.653-8.041
									C243.937,351.441,244.538,356.695,242.514,362.156z"/>
							</g>
						</g>
					</g>
				</g>
				<g opacity="0.3">
					<g>
						<g>
							<g>
								<path fill="#362045" d="M242.335,362.621c-2.06,5.201-5.791,8.564-8.473,7.576c-2.758-1.02-3.353-6.271-1.337-11.732
									c1.057-2.855,2.616-5.201,4.262-6.646c-0.061,0.151-0.12,0.303-0.174,0.455c-2.016,5.461-1.421,10.715,1.343,11.732
									C239.266,364.496,240.833,363.927,242.335,362.621z"/>
							</g>
						</g>
					</g>
				</g>
				<g>
					<g>
						<g>
							<g>
								<path fill="#362045" d="M234.862,372.39c-0.581,0-1.148-0.102-1.696-0.303c-3.925-1.453-5.012-7.611-2.527-14.324
									c1.084-2.932,2.707-5.498,4.567-7.229c2.22-2.063,4.59-2.773,6.673-2.002c3.925,1.451,5.012,7.609,2.527,14.322
									c-1.084,2.932-2.706,5.5-4.567,7.229C238.204,371.603,236.486,372.39,234.862,372.39z M240.19,352.263
									c-0.572,0-1.41,0.45-2.242,1.225c-1.387,1.289-2.675,3.355-3.531,5.674c-0.858,2.316-1.225,4.723-1.011,6.605
									c0.153,1.34,0.607,2.336,1.157,2.541c0.552,0.203,1.545-0.26,2.533-1.178c1.388-1.287,2.675-3.355,3.531-5.672
									s1.226-4.725,1.011-6.605c-0.152-1.34-0.607-2.338-1.157-2.541C240.394,352.279,240.297,352.263,240.19,352.263z"/>
							</g>
						</g>
					</g>
				</g>
			</g>
			<g>
				<g>
					<g>
						<g>
							<path fill="#362045" d="M198.983,383.595c-0.339,0-0.685-0.086-1-0.268c-0.966-0.555-1.298-1.785-0.745-2.75l9.578-16.678
								l-4.582-4.1c-0.646-0.578-0.85-1.506-0.505-2.301l8.547-19.785c0.442-1.021,1.628-1.49,2.65-1.049
								c1.021,0.441,1.491,1.627,1.05,2.648l-7.973,18.451l4.717,4.221c0.709,0.635,0.878,1.68,0.404,2.504l-10.391,18.094
								C200.359,383.232,199.682,383.595,198.983,383.595z"/>
						</g>
					</g>
				</g>
			</g>
		</g>
		<g>
			<g>
				<g>
					<g>
						<path fill="#362045" d="M72.099,412.789c-0.624,0-1.248-0.24-1.721-0.719c-5.242-5.309-8.231-12.48-8.885-21.314
							c-0.509-6.865,0.393-14.754,2.679-23.449c3.849-14.645,10.229-26.426,10.499-26.92c0.64-1.172,2.108-1.604,3.281-0.965
							c1.173,0.639,1.604,2.107,0.965,3.279c-0.082,0.15-6.405,11.85-10.09,25.92c-3.306,12.617-5.122,29.809,4.994,40.051
							c0.938,0.951,0.929,2.482-0.022,3.42C73.326,412.556,72.713,412.789,72.099,412.789z"/>
					</g>
				</g>
			</g>
		</g>
		<g>
			<g>
				<g>
					<g>
						<path fill="#362045" d="M312.465,306.597c-0.057,0-0.114-0.002-0.171-0.006c-13.337-0.926-22.76-9.428-27.251-24.59
							c-3.274-11.055-2.766-21.672-2.741-22.119c0.068-1.334,1.205-2.357,2.54-2.289c1.333,0.07,2.358,1.207,2.288,2.541
							c-0.008,0.174-0.473,10.37,2.581,20.6c3.933,13.175,11.644,20.25,22.919,21.033c1.331,0.092,2.337,1.247,2.244,2.58
							C314.786,305.623,313.724,306.597,312.465,306.597z"/>
					</g>
				</g>
			</g>
		</g>
		<g>
			<g>
				<g>
					<g>
						<path fill="#362045" d="M377.804,239.121c-0.391,0.285-0.799,0.545-1.21,0.799c-0.204,0.131-0.421,0.239-0.635,0.352
							c-0.214,0.113-0.432,0.219-0.648,0.328c-0.432,0.225-0.888,0.389-1.335,0.574c-0.449,0.186-0.909,0.324-1.367,0.471
							c-1.84,0.57-3.709,0.835-5.479,1.053c-1.775,0.213-3.473,0.387-5.172,0.668c-1.7,0.275-3.399,0.666-5.158,1.129h-0.005
							c-0.19,0.051-0.386-0.063-0.436-0.253c-0.033-0.13,0.009-0.263,0.099-0.349c1.342-1.277,2.893-2.361,4.552-3.252
							s3.416-1.58,5.1-2.191c1.687-0.609,3.276-1.195,4.802-1.778c0.377-0.155,0.767-0.282,1.137-0.444l0.564-0.225l0.283-0.105
							c0.094-0.041,0.186-0.082,0.279-0.119c0.372-0.16,0.754-0.297,1.131-0.453s0.757-0.309,1.154-0.434l0.174-0.055
							c1.283-0.404,2.65,0.307,3.053,1.59C379.009,237.445,378.62,238.521,377.804,239.121z"/>
					</g>
				</g>
			</g>
		</g>
		<g>
			<g>
				<g>
					<g>
						<path fill="#362045" d="M361.384,222.674l-0.172,0.284c-0.049,0.079-0.099,0.159-0.151,0.236
							c-0.1,0.15-0.204,0.301-0.31,0.441c-0.21,0.287-0.432,0.552-0.656,0.814c-0.454,0.518-0.937,0.998-1.44,1.449
							c-1.003,0.911-2.106,1.69-3.228,2.43c-1.119,0.744-2.279,1.426-3.47,2.059c-0.6,0.313-1.204,0.613-1.821,0.896
							c-0.312,0.139-0.623,0.275-0.941,0.404c-0.314,0.132-0.636,0.256-0.962,0.373c-0.19,0.066-0.4-0.032-0.468-0.224
							c-0.038-0.106-0.023-0.218,0.028-0.309l0.004-0.005c0.177-0.297,0.36-0.587,0.55-0.869c0.186-0.285,0.375-0.563,0.57-0.838
							c0.38-0.555,0.773-1.092,1.17-1.623c0.788-1.065,1.599-2.091,2.407-3.103c0.815-1.005,1.614-2.011,2.469-2.932
							c0.425-0.464,0.856-0.913,1.303-1.34c0.222-0.211,0.444-0.422,0.672-0.621c0.114-0.099,0.223-0.196,0.34-0.29
							c0.053-0.047,0.108-0.09,0.165-0.135l0.078-0.058l0.04-0.028c0.011-0.007,0.015-0.003,0.022-0.007l1.158-0.364
							c1.202-0.378,2.485,0.29,2.863,1.494C361.809,221.458,361.704,222.134,361.384,222.674z"/>
					</g>
				</g>
			</g>
		</g>
		<g>
			<g>
				<g>
					<g>
						<path fill="#FFFFFF" d="M101.864,330.49c11.31,36.697,70.012,42.619,75.616,23.76c1.896-6.382-3.265-10.383-3.265-10.383
							s-49.717,0.203-62.757-31.022C111.458,312.844,97.944,317.767,101.864,330.49z"/>
					</g>
				</g>
			</g>
		</g>
		<g opacity="0.3">
			<g>
				<g>
					<g>
						<path fill="#362045" d="M101.864,330.486c11.312,36.699,70.015,42.623,75.619,23.762c0.752-2.53,0.392-4.69-0.314-6.375
							c-11.577,18.721-69.249,5.354-72.243-28.84c-0.047-0.523-0.285-0.992-0.387-1.469
							C101.963,320.401,100.056,324.611,101.864,330.486z"/>
					</g>
				</g>
			</g>
		</g>
		<g>
			<g>
				<g>
					<g>
						<path fill="#362045" d="M155.054,367.433c-10.912,0-22.732-3.141-32.48-8.637c-11.751-6.625-19.814-16.135-23.317-27.504
							c-2.431-7.887,0.848-13.244,4.028-16.348c3.271-3.195,7.079-4.605,7.238-4.664c1.37-0.498,2.891,0.167,3.452,1.513
							c5.056,12.106,16.614,20.722,34.353,25.608c13.55,3.732,25.754,3.74,25.876,3.736c0.002,0,0.006,0,0.009,0
							c0.604,0,1.194,0.201,1.672,0.572c0.271,0.211,6.611,5.238,4.21,13.316c-2.289,7.701-11.543,12.338-24.756,12.406
							C155.246,367.433,155.149,367.433,155.054,367.433z M110.154,316.529c-0.968,0.576-2.118,1.381-3.167,2.428
							c-2.996,2.993-3.818,6.502-2.516,10.729c6.476,21.016,30.834,32.291,50.581,32.291c0.087,0,0.173,0,0.26,0
							c10.518-0.055,18.009-3.313,19.551-8.504c1-3.36-0.755-5.828-1.741-6.891c-3.403-0.08-14.118-0.597-26.118-3.885
							c-8.449-2.314-15.771-5.535-21.764-9.568C118.503,328.593,113.439,323.017,110.154,316.529z"/>
					</g>
				</g>
			</g>
		</g>
		<g>
			<g>
				<g>
					<g>
						<path fill="#FFFFFF" d="M10.538,300.228c0,0-0.687,4.609,1.937,8.109c1.315,1.751,3.437,3.607,5.989,5.438
							c2.27,1.629,4.866,3.233,7.531,4.738c5.882,3.309,12.091,6.104,15.752,7.455c7.704,2.838,16.478,4.287,25.625,4.572
							c12.504,0.391,25.7-1.383,37.831-4.713c11.398-3.133,21.853-7.646,29.875-13.036l5.705-8.438l7.797-11.529l27.594-40.807
							l6.271-9.27c-0.275,0.156-6.358,3.625-16.002,8.396c-0.922,0.454-1.869,0.919-2.849,1.395
							c-10.96,5.316-25.712,11.883-41.534,17.266c-24.635,8.389-51.879,13.916-71.5,7.414c-22.852-7.576-33.644-13.12-39.362-7.078
							c-5.804,6.132,1.184,14.307,1.184,14.307s-5.046,3.586-5.077,8.777C7.271,297.341,10.538,300.228,10.538,300.228z"/>
					</g>
				</g>
			</g>
		</g>
		<g opacity="0.35">
			<g>
				<g>
					<g>
						<path fill="#362045" d="M41.716,294.318c0,0,0.213,1.313,1.251,3.35C42.302,295.646,41.716,294.318,41.716,294.318z"/>
					</g>
				</g>
			</g>
		</g>
		<g opacity="0.35">
			<g>
				<g>
					<g>
						<path fill="#362045" d="M18.463,313.775c2.27,1.629,4.866,3.233,7.531,4.738c5.882,3.309,12.091,6.104,15.752,7.455
							c7.704,2.838,16.478,4.287,25.625,4.572c12.504,0.391,25.7-1.383,37.831-4.713c11.398-3.133,21.853-7.646,29.875-13.036l0,0
							c1.792-2.651-0.81-6.058-3.838-5.024c-15.58,5.316-41.097,12.797-54.296,9.953c-23.355-5.039-31.332-14.887-33.976-20.053
							c1.931,5.824,4.516,17.405-4.409,19.471C35.143,317.931,24.734,316.417,18.463,313.775z"/>
					</g>
				</g>
			</g>
		</g>
		<g>
			<g>
				<g>
					<g>
						<path fill="#362045" d="M182.899,243.531c-0.798,0.697-1.611,1.346-2.442,1.975c-0.829,0.63-1.67,1.236-2.523,1.828
							c-1.705,1.18-3.444,2.301-5.213,3.366c-3.537,2.134-7.197,4.038-10.888,5.88c-7.379,3.689-15.021,6.828-22.707,9.834
							c-3.848,1.492-7.704,2.973-11.593,4.367c-3.889,1.395-7.809,2.715-11.762,3.941c-7.91,2.445-15.954,4.531-24.157,6.012
							c-4.102,0.736-8.242,1.32-12.422,1.672s-8.396,0.49-12.629,0.309l-1.588-0.094l-0.794-0.047
							c-0.265-0.021-0.529-0.049-0.794-0.072l-1.589-0.148c-0.529-0.055-1.058-0.133-1.588-0.199
							c-1.059-0.119-2.113-0.316-3.168-0.492c-0.265-0.039-0.528-0.094-0.79-0.15l-0.789-0.166l-0.788-0.167
							c-0.132-0.028-0.262-0.054-0.394-0.085l-0.392-0.1l-1.566-0.4c-0.13-0.035-0.261-0.066-0.391-0.104l-0.388-0.119l-0.777-0.236
							c-1.061-0.313-2.008-0.644-2.99-0.969c-1.95-0.656-3.897-1.322-5.836-1.996c-3.88-1.34-7.74-2.719-11.577-3.988
							c-1.918-0.63-3.833-1.234-5.729-1.74c-0.474-0.125-0.947-0.252-1.417-0.359c-0.472-0.119-0.938-0.213-1.405-0.313
							c-0.926-0.178-1.849-0.338-2.731-0.408c-0.881-0.072-1.729-0.078-2.493,0.018c-0.767,0.094-1.438,0.287-2.021,0.588
							c-0.582,0.3-1.093,0.713-1.575,1.264c-0.481,0.551-0.833,1.135-1.063,1.756c-0.228,0.62-0.317,1.291-0.305,2.01
							c0.02,0.719,0.172,1.486,0.415,2.26c0.252,0.776,0.597,1.56,1.019,2.32c0.212,0.379,0.44,0.756,0.683,1.117
							c0.12,0.182,0.246,0.359,0.371,0.533c0.063,0.084,0.127,0.17,0.189,0.25l0.155,0.195l1.783,2.248l-2.278,1.75l-0.123,0.096
							l-0.172,0.139c-0.117,0.096-0.235,0.197-0.353,0.303c-0.234,0.211-0.462,0.432-0.683,0.66
							c-0.44,0.457-0.842,0.943-1.191,1.442c-0.698,1.001-1.172,2.058-1.336,3.081c-0.02,0.129-0.04,0.256-0.049,0.383
							c-0.017,0.129-0.018,0.255-0.022,0.383c-0.005,0.063-0.004,0.125,0.002,0.188l0.009,0.188l0.005,0.187
							c0.005,0.063,0.018,0.126,0.027,0.188c0.021,0.125,0.024,0.252,0.057,0.379c0.03,0.125,0.059,0.252,0.085,0.379
							c0.08,0.254,0.152,0.51,0.262,0.764c0.207,0.508,0.485,1.016,0.817,1.5l0.124,0.181l0.135,0.176
							c0.086,0.12,0.183,0.229,0.274,0.345c0.095,0.108,0.19,0.223,0.287,0.32c0.048,0.053,0.095,0.102,0.138,0.145l0.063,0.063
							c0.017,0.016,0.048,0.045,0.025,0.024l0.893,2.446l0-0.004c0-0.004,0-0.004,0,0.006l-0.004,0.041
							c-0.003,0.023-0.006,0.053-0.009,0.086c-0.006,0.066-0.012,0.128-0.016,0.199c-0.01,0.137-0.014,0.281-0.019,0.426
							c-0.004,0.143,0,0.291-0.002,0.436l0.017,0.439c0.031,0.586,0.116,1.162,0.243,1.711c0.054,0.277,0.145,0.537,0.22,0.803
							c0.098,0.252,0.181,0.512,0.299,0.746c0.099,0.248,0.238,0.461,0.357,0.689c0.065,0.111,0.144,0.209,0.212,0.314l0.104,0.158
							c0.034,0.053,0.087,0.113,0.131,0.168c0.717,0.914,1.655,1.836,2.68,2.7c1.025,0.868,2.13,1.696,3.274,2.492
							c2.292,1.592,4.732,3.054,7.221,4.438c2.493,1.383,5.051,2.679,7.638,3.895c1.293,0.607,2.597,1.194,3.904,1.752
							c0.654,0.277,1.308,0.547,1.96,0.806c0.654,0.261,1.295,0.503,1.962,0.724c0.661,0.223,1.318,0.459,1.983,0.674l2.015,0.593
							l0.504,0.147l0.51,0.128l1.022,0.255l1.021,0.256c0.342,0.084,0.688,0.148,1.033,0.223c5.503,1.198,11.176,1.756,16.862,1.906
							c1.425,0.008,2.847,0.047,4.272,0.005l1.07-0.019c0.356-0.006,0.713-0.01,1.069-0.031l2.139-0.094
							c2.848-0.164,5.698-0.391,8.534-0.754c5.679-0.674,11.31-1.771,16.856-3.166c2.766-0.721,5.509-1.539,8.195-2.506l0.504-0.176
							l0.502-0.186l1.002-0.375c0.666-0.252,1.339-0.488,1.998-0.756c0.664-0.26,1.327-0.518,1.994-0.766
							c0.659-0.262,1.318-0.532,1.982-0.785c0.331-0.13,0.664-0.254,0.994-0.387l0.988-0.4l0.993-0.389l0.496-0.195l0.492-0.203
							c0.655-0.273,1.313-0.541,1.979-0.798c0.657-0.271,1.314-0.542,1.981-0.8c0.671-0.25,1.325-0.531,1.995-0.785
							c0.335-0.129,0.67-0.26,1.011-0.381c0.172-0.061,0.336-0.131,0.502-0.197l0.504-0.195c0.335-0.132,0.678-0.254,1.02-0.38
							c0.169-0.063,0.343-0.12,0.516-0.183c0.175-0.059,0.34-0.129,0.513-0.189c0.684-0.256,1.383-0.496,2.108-0.707l0.038-0.012
							c0.5-0.145,1.024,0.143,1.169,0.643c0.092,0.315,0.007,0.645-0.191,0.879c-0.5,0.58-1.027,1.131-1.571,1.668
							c-0.267,0.273-0.552,0.521-0.835,0.772c-0.286,0.248-0.571,0.499-0.863,0.741c-0.574,0.498-1.176,0.951-1.787,1.393
							c-0.611,0.447-1.221,0.894-1.86,1.291c-0.635,0.402-1.273,0.803-1.921,1.186c-0.654,0.369-1.315,0.725-1.98,1.078
							l-0.496,0.264c-0.167,0.086-0.336,0.167-0.504,0.248l-1.013,0.492l-1.018,0.48c-0.339,0.162-0.686,0.301-1.029,0.449
							c-2.742,1.217-5.587,2.152-8.44,3.039l-2.144,0.641c-0.715,0.213-1.436,0.4-2.153,0.603l-1.075,0.306
							c-0.359,0.1-0.721,0.189-1.079,0.287l-2.16,0.577c-5.776,1.454-11.63,2.593-17.548,3.298c-2.956,0.377-5.93,0.615-8.909,0.785
							l-2.237,0.1c-0.373,0.02-0.746,0.025-1.12,0.031l-1.12,0.02c-1.493,0.045-2.989,0.004-4.484-0.006
							c-5.981-0.156-11.982-0.742-17.893-2.027c-0.369-0.08-0.74-0.15-1.107-0.24l-1.104-0.273l-1.101-0.275l-0.551-0.139
							l-0.548-0.16l-2.185-0.645c-0.725-0.232-1.442-0.488-2.164-0.733c-0.719-0.239-1.444-0.513-2.146-0.792
							c-0.705-0.279-1.399-0.566-2.09-0.86c-1.377-0.587-2.737-1.198-4.086-1.833c-2.695-1.267-5.35-2.611-7.962-4.061
							c-2.612-1.453-5.188-2.992-7.693-4.73c-1.252-0.873-2.486-1.795-3.69-2.813c-1.201-1.023-2.376-2.137-3.464-3.521
							c-0.067-0.088-0.135-0.164-0.203-0.264l-0.203-0.295c-0.133-0.197-0.274-0.393-0.394-0.598c-0.23-0.41-0.474-0.82-0.654-1.248
							c-0.205-0.422-0.354-0.855-0.511-1.287c-0.132-0.434-0.271-0.869-0.361-1.307c-0.201-0.873-0.325-1.748-0.374-2.619
							l-0.024-0.656c0-0.219-0.004-0.437,0.002-0.658c0.006-0.219,0.013-0.441,0.03-0.668c0.006-0.111,0.017-0.229,0.027-0.346
							c0.005-0.057,0.011-0.119,0.02-0.186l0.011-0.096l0.018-0.133l0.893,2.445c-0.094-0.084-0.132-0.121-0.186-0.174l-0.142-0.139
							c-0.092-0.092-0.178-0.18-0.261-0.27c-0.17-0.178-0.323-0.357-0.48-0.538c-0.149-0.183-0.303-0.364-0.443-0.554l-0.213-0.283
							l-0.203-0.291c-0.538-0.779-1.005-1.625-1.378-2.535c-0.19-0.453-0.339-0.932-0.48-1.414l-0.17-0.742
							c-0.054-0.246-0.078-0.506-0.116-0.758c-0.017-0.129-0.036-0.254-0.046-0.383l-0.02-0.389l-0.015-0.387
							c-0.007-0.131-0.008-0.259-0.001-0.387c0.007-0.257,0.016-0.514,0.045-0.768c0.02-0.255,0.057-0.506,0.097-0.756
							c0.16-1.006,0.467-1.961,0.852-2.85c0.389-0.889,0.865-1.709,1.394-2.469c0.53-0.758,1.111-1.457,1.735-2.104
							c0.313-0.324,0.635-0.637,0.971-0.939c0.167-0.152,0.342-0.3,0.52-0.448l0.276-0.222l0.146-0.115l0.188-0.139l-0.494,3.998
							L10.129,286l-0.146-0.186c-0.095-0.123-0.184-0.242-0.272-0.363c-0.176-0.24-0.346-0.482-0.507-0.727
							c-0.327-0.488-0.632-0.99-0.917-1.504c-0.571-1.031-1.063-2.127-1.443-3.299c-0.371-1.176-0.634-2.436-0.672-3.766
							c-0.034-1.324,0.148-2.72,0.626-4.024c0.474-1.306,1.211-2.493,2.077-3.481c0.859-0.994,1.956-1.904,3.199-2.537
							c1.239-0.641,2.574-0.995,3.836-1.149c1.268-0.156,2.479-0.134,3.638-0.04c2.311,0.209,4.433,0.699,6.496,1.245
							c2.062,0.55,4.053,1.183,6.027,1.831c3.939,1.303,7.793,2.68,11.656,4.015c1.93,0.669,3.859,1.327,5.789,1.979
							c0.962,0.319,1.948,0.663,2.854,0.925l0.693,0.213l0.346,0.106c0.116,0.034,0.234,0.06,0.351,0.092l1.41,0.36l0.353,0.09
							c0.118,0.029,0.238,0.051,0.356,0.076l0.715,0.151l0.715,0.15c0.238,0.052,0.476,0.101,0.718,0.138
							c0.964,0.158,1.924,0.342,2.899,0.449c0.488,0.061,0.973,0.135,1.461,0.184l1.469,0.137c0.246,0.023,0.49,0.049,0.736,0.067
							l0.739,0.044l1.477,0.088c3.952,0.17,7.939,0.04,11.92-0.295c3.984-0.334,7.962-0.895,11.923-1.607
							c7.922-1.428,15.767-3.459,23.506-5.852c3.87-1.199,7.715-2.494,11.536-3.865c3.821-1.372,7.62-2.811,11.375-4.365
							l2.813-1.176l2.798-1.209c1.861-0.816,3.721-1.639,5.571-2.48l11.107-5.047c3.708-1.674,7.395-3.396,11.149-4.994
							c1.877-0.799,3.768-1.574,5.677-2.321c0.958-0.372,1.916-0.739,2.884-1.089c0.966-0.354,1.946-0.696,2.928-1.01l0.011-0.004
							c0.489-0.156,1.01,0.113,1.166,0.602C183.288,242.914,183.168,243.294,182.899,243.531z"/>
					</g>
				</g>
			</g>
		</g>
		<g>
			<g>
				<g>
					<g>
						<g>
							<path fill="#FFFFFF" d="M314.411,227.992c-62.932,130.17-246.782,49.242-200.018-81.91
								C175.651,11.308,365.614,95.138,314.411,227.992z"/>
						</g>
					</g>
				</g>
			</g>
			<g>
				<g>
					<g>
						<g>
							<path fill="#FFFFFF" d="M314.411,227.992c-62.932,130.17-246.782,49.242-200.018-81.91
								C175.651,11.308,365.614,95.138,314.411,227.992z"/>
						</g>
					</g>
				</g>
			</g>
			<g opacity="0.35">
				<g>
					<g>
						<g>
							<path fill="#362045" d="M118.813,269.16c6.031,7.262,12.986,13.693,20.619,19.168c2.064,1.473,4.173,2.883,6.33,4.223
								c25.494,15.818,57.177,21.58,86.677,13.454c9.157-2.519,18.104-6.378,26.594-11.692c0.546-7.092,0.828-14.615,0.829-22.596
								c-0.008-4.17-0.089-8.463-0.252-12.885l-85.808-7.746l6.37-9.418c-0.279,0.158-6.458,3.684-16.26,8.532l-2.468-0.226
								c-0.14,0.552-0.28,1.096-0.427,1.643C149.879,257.017,134.891,263.691,118.813,269.16z"/>
						</g>
					</g>
				</g>
			</g>
			<g>
				<g>
					<g>
						<g>
							<path fill="#FFFFFF" d="M314.411,227.992c-62.932,130.17-246.782,49.242-200.018-81.91
								C175.651,11.308,365.614,95.138,314.411,227.992z"/>
						</g>
					</g>
				</g>
			</g>
			<g>
				<g>
					<g>
						<g>
							<path fill="#362045" d="M216.773,296c-14.689,0-29.569-2.988-43.764-8.93c-12.429-5.203-23.702-12.395-33.504-21.377
								c-10.124-9.275-18.229-20.061-24.09-32.057c-12.987-26.58-13.985-57.085-2.884-88.218l0.063-0.154
								c14.378-31.637,36.916-53.662,65.175-63.694c12.701-4.509,26.166-6.468,40.022-5.821c13.326,0.622,26.465,3.615,39.054,8.897
								c12.631,5.298,24.063,12.628,33.979,21.785c10.25,9.466,18.398,20.456,24.218,32.665
								c12.931,27.132,13.352,58.118,1.214,89.608l-0.064,0.15c-14.79,30.594-37.352,51.852-65.247,61.475
								C239.974,294.115,228.432,296,216.773,296z M116.227,146.824c-23.88,67.091,13.478,117.833,58.31,136.598
								c13.354,5.591,27.954,8.714,42.711,8.714c35.947,0,72.874-18.506,95.349-64.93c26.15-67.962-11.353-119.648-57.281-138.917
								C209.833,69.208,146.92,79.391,116.227,146.824z M314.411,227.992h0.003H314.411z"/>
						</g>
					</g>
				</g>
			</g>
			<g opacity="0.35">
				<g>
					<g>
						<g>
							<path fill="#362045" d="M314.411,227.988C262.013,341.365,100.6,297.615,107.129,177.75
								c10.465,37.723,23.847,38.107,45.766,55.875c67.636,58.674,160.959,3.115,166.54-75.438
								C325.667,181.711,323.608,206.27,314.411,227.988z"/>
						</g>
					</g>
				</g>
			</g>
			<g>
				<g>
					<g>
						<g>
							<path fill="#293856" d="M216.773,296.794c-14.793,0-29.779-3.008-44.071-8.99c-12.514-5.238-23.865-12.48-33.735-21.525
								c-10.198-9.342-18.363-20.207-24.269-32.293c-13.083-26.777-14.092-57.496-2.917-88.834l0.039-0.11l0.047-0.106
								c14.473-31.838,37.168-54.009,65.635-64.116c12.798-4.544,26.365-6.519,40.326-5.867c13.418,0.626,26.649,3.64,39.325,8.958
								c12.717,5.334,24.227,12.714,34.209,21.934c10.326,9.536,18.534,20.607,24.397,32.908
								c13.028,27.333,13.456,58.537,1.239,90.237l-0.041,0.106l-0.05,0.103c-14.886,30.789-37.606,52.188-65.704,61.883
								C240.147,294.896,228.52,296.794,216.773,296.794z M116.965,147.123c-23.68,66.584,13.39,116.943,57.877,135.566
								c45.533,19.059,105.546,9.186,137.024-55.8c25.932-67.449-11.282-118.744-56.858-137.866
								C209.877,70.09,147.444,80.206,116.965,147.123z M314.411,227.992h0.003H314.411z"/>
						</g>
					</g>
				</g>
			</g>
			<g>
				<g>
					<g>
						<g>
							<path fill="#362045" d="M216.773,296.794c-14.793,0-29.779-3.008-44.071-8.99c-12.514-5.238-23.865-12.48-33.735-21.525
								c-10.198-9.342-18.363-20.207-24.269-32.293c-13.083-26.777-14.092-57.496-2.917-88.834l0.039-0.11l0.047-0.106
								c14.473-31.838,37.168-54.009,65.635-64.116c12.798-4.544,26.365-6.519,40.326-5.867c13.418,0.626,26.649,3.64,39.325,8.958
								c12.717,5.334,24.227,12.714,34.209,21.934c10.326,9.536,18.534,20.607,24.397,32.908
								c13.028,27.333,13.456,58.537,1.239,90.237l-0.041,0.106l-0.05,0.103c-14.886,30.789-37.606,52.188-65.704,61.883
								C240.147,294.896,228.52,296.794,216.773,296.794z M116.965,147.123c-23.68,66.584,13.39,116.943,57.877,135.566
								c45.533,19.059,105.546,9.186,137.024-55.8c25.932-67.449-11.282-118.744-56.858-137.866
								C209.877,70.09,147.444,80.206,116.965,147.123z M314.411,227.992h0.003H314.411z"/>
						</g>
					</g>
				</g>
			</g>
			<g>
				<g>
					<g>
						<g>
							<path fill="#362045" d="M300.435,251.902c-98.994,79.461-209.075-33.548-137.569-118.632
								C248.749,42.834,374.732,146.287,300.435,251.902z"/>
						</g>
					</g>
				</g>
			</g>
			<g>
				<g>
					<g>
						<g>
							<path fill="#21182A" d="M318.622,173.321c16.86,113.487-144.172,146.381-176.614,45.156
								C202.859,272.091,296.116,232.662,318.622,173.321z"/>
						</g>
					</g>
				</g>
			</g>
			<g>
				<g>
					<g>
						<g>
							<path fill="#362045" d="M227.346,292.611c-10.432,0-20.879-1.711-31.086-5.092c-11.278-3.738-21.781-9.346-31.214-16.668
								c-9.642-7.482-17.739-16.431-24.062-26.595c-6.655-10.696-11.124-22.407-13.28-34.804
								c-2.307-13.254-1.919-27.091,1.147-41.128l0.018-0.069c3.528-14.363,10.214-27.739,19.874-39.756
								c9.111-11.336,20.828-21.192,33.883-28.502c13.093-7.33,27.672-12.18,42.163-14.023c15.391-1.958,30.407-0.647,44.631,3.894
								l0.224,0.071l0.211,0.109c23.995,12.459,41.935,34.417,50.515,61.83c8.104,25.892,6.856,54.045-3.422,77.239l-0.009,0.019
								c-6.333,14.002-14.371,25.998-23.895,35.654c-8.911,9.035-19.092,16.008-30.26,20.724
								c-10.514,4.44-21.734,6.821-33.349,7.075C228.739,292.603,228.043,292.611,227.346,292.611z M134.262,169.543
								c-12.239,56.078,22.799,99.146,63.743,112.711c35.633,11.807,86.834,4.384,113.875-55.391
								c18.89-42.636,5.554-105.706-44.373-131.786c-26.293-8.319-56.231-4.768-82.172,9.757
								C159.424,119.343,140.811,142.926,134.262,169.543z M314.411,227.992h0.003H314.411z"/>
						</g>
					</g>
				</g>
			</g>
			<g>
				<g>
					<g>
						<g>
							<path fill="#362045" d="M230.147,281.675c-1.799,0-3.595-0.051-5.392-0.152c-23.491-1.324-45.484-11.316-61.926-28.135
								c-15.186-15.529-24.23-35.558-25.47-56.399c-1.371-23.019,6.716-45.669,23.386-65.504l0.112-0.125
								c20.307-21.384,44.29-33.586,69.353-35.284c22.531-1.527,44.667,5.599,62.325,20.064c18.07,14.803,29.612,35.739,32.5,58.953
								c3.226,25.939-4.496,53.05-22.33,78.404l-0.228,0.32l-0.306,0.246C279.585,272.193,254.793,281.675,230.147,281.675z
								 M164.935,135.117c-35.097,41.818-24.36,87.58,1.857,114.396c28.875,29.531,80.732,41.09,131.601,0.473
								c37.237-53.23,21.278-104.448-9.372-129.555C258.199,95.182,207.888,89.938,164.935,135.117z M300.435,251.902h0.002H300.435
								z"/>
						</g>
					</g>
				</g>
			</g>
			<g>
				<g>
					<g>
						<g>
							<path fill="#FFFFFF" d="M96.806,225.25c14.049,49.005,64.348,39.05,55.652-9.088
								C139.617,164.259,85.85,174.895,96.806,225.25z"/>
						</g>
					</g>
				</g>
			</g>
			<g opacity="0.35">
				<g>
					<g>
						<g>
							<path fill="#362045" d="M133.718,257.2c15.101-2.874,23.666-22.921,18.149-43.539c-6.608,23.27-34.59-9.907-37.609-20.085
								C76.522,208.679,106.1,263.074,133.718,257.2z"/>
						</g>
					</g>
				</g>
			</g>
			<g>
				<g>
					<g>
						<g>
							<path fill="#362045" d="M129.188,260.265c-6.057,0-12.171-2.176-17.672-6.362c-7.849-5.974-13.857-15.618-17.376-27.889
								l-0.044-0.175c-2.61-11.998-1.853-22.777,2.191-31.172c3.732-7.747,10.022-12.998,17.714-14.785
								c3.953-0.919,8.035-0.868,12.131,0.151c4.188,1.042,8.179,3.05,11.862,5.968c8.022,6.357,13.953,16.557,17.154,29.496
								l0.036,0.173c2.078,11.503,1.04,21.803-3.003,29.785c-3.75,7.402-9.895,12.43-17.303,14.156
								C133.002,260.048,131.096,260.265,129.188,260.265z M99.497,224.572c6.968,24.205,22.567,32.332,34.123,29.638
								c5.784-1.348,10.618-5.348,13.615-11.262c3.483-6.876,4.351-15.936,2.509-26.206c-2.908-11.696-8.161-20.822-15.194-26.396
								c-6.008-4.761-12.861-6.56-19.295-5.064c-6.022,1.399-10.984,5.587-13.973,11.791
								C97.791,204.323,97.173,213.831,99.497,224.572z"/>
						</g>
					</g>
				</g>
			</g>
			<g>
				<g>
					<g>
						<g>
							<path fill="#FFFFFF" d="M95.213,228.3c11.428,39.701,49.235,32.879,42.208-6.057
								C127.098,179.663,86.018,187.121,95.213,228.3z"/>
						</g>
					</g>
				</g>
			</g>
			<g>
				<g>
					<g>
						<g>
							<path fill="#362045" d="M120.713,257.738c-4.876,0-9.837-1.908-14.318-5.568c-6.154-5.027-10.941-13.016-13.845-23.104
								l-0.042-0.162c-2.193-9.822-1.792-18.614,1.161-25.424c2.777-6.407,7.632-10.709,13.668-12.115
								c6.342-1.477,13.312,0.532,19.126,5.51c6.324,5.416,11.044,13.962,13.652,24.715l0.034,0.161
								c1.682,9.321,1.006,17.629-1.955,24.028c-2.802,6.055-7.521,10.131-13.284,11.477
								C123.527,257.578,122.125,257.738,120.713,257.738z M97.901,227.613c2.592,8.961,6.741,15.965,12.001,20.264
								c4.414,3.605,9.296,5.018,13.746,3.979c7.773-1.814,14.2-11.496,11.059-29.039c-4.867-19.961-16.813-28.217-26.111-26.051
								c-4.285,0.998-7.779,4.166-9.84,8.92C96.281,211.396,95.986,218.977,97.901,227.613z"/>
						</g>
					</g>
				</g>
			</g>
			<g opacity="0.5">
				<g>
					<g>
						<g>
							<path fill="#FFFFFF" d="M159.302,193.879c8.493,19.711,31.044,10.406,26.575-7.871
								C178.938,163.277,152.182,173.814,159.302,193.879z"/>
						</g>
					</g>
				</g>
			</g>
			<g opacity="0.5">
				<g>
					<g>
						<g>
							<path fill="#FFFFFF" d="M175.997,224.381c3.683,7.351,13.625,3.472,10.363-4.886
								C182.676,212.146,172.735,216.024,175.997,224.381z"/>
						</g>
					</g>
				</g>
			</g>
			<g opacity="0.5">
				<g>
					<g>
						<g>
							<path fill="#FFFFFF" d="M308.542,183.677c3.557-81.931-80.922-81.968-104.012-61.79
								C258.3,118.896,286.013,148.869,308.542,183.677z"/>
						</g>
					</g>
				</g>
			</g>
			<g opacity="0.35">
				<g>
					<g>
						<g>
							<path fill="#362045" d="M140.614,231.171c0.015-5.811-1.563-11.648-4.258-16.828c-3.791,28.305-32.87,19.671-41.727,0.815
								C93.625,256.445,137.192,270.216,140.614,231.171z"/>
						</g>
					</g>
				</g>
			</g>
			<g>
				<g>
					<g>
						<g>
							<path fill="#362045" d="M145.033,186.24c-1.271,0-2.826-0.391-4.687-1.484c-1.319-0.776-1.761-2.476-0.984-3.795
								c0.776-1.32,2.475-1.761,3.794-0.985c1.193,0.701,1.757,0.727,1.888,0.72c0.178-0.185,0.614-1.02,0.734-2.972
								c0.096-1.578-0.071-2.983-0.072-2.997c-0.188-1.519,0.892-2.903,2.411-3.092c1.521-0.188,2.904,0.892,3.092,2.411
								c0.011,0.08,0.244,1.998,0.093,4.175c-0.239,3.479-1.328,5.877-3.234,7.13C147.337,185.832,146.333,186.24,145.033,186.24z"
								/>
						</g>
					</g>
				</g>
			</g>
		</g>
		<g>
			<g>
				<g>
					<g>
						<path fill="#FFFFFF" d="M54.439,279.658c-16.885-4.811-30.018-3.957-31.662,0.541c-1.206,3.293-0.184,8.63,6.726,10.924
							c4.719,1.566,11.496,1.275,11.496,1.275s3.517,10.564,9.171,14.84"/>
					</g>
				</g>
			</g>
		</g>
		<g>
			<g>
				<g>
					<g>
						<path fill="#362045" d="M53.692,282.283c-4.638-1.244-9.333-2.268-14.038-2.794c-2.347-0.267-4.698-0.419-6.987-0.351
							c-1.143,0.037-2.271,0.117-3.344,0.278c-1.07,0.161-2.101,0.411-2.913,0.762c-0.204,0.085-0.385,0.181-0.549,0.273
							c-0.164,0.093-0.303,0.188-0.407,0.276c-0.106,0.088-0.182,0.166-0.229,0.224c-0.014,0.015-0.024,0.028-0.031,0.04
							c-0.011,0.013-0.019,0.023-0.023,0.034c-0.008,0.011-0.013,0.019-0.017,0.028c-0.003,0.006-0.004,0.002-0.01,0.018
							l-0.024,0.067c-0.274,0.726-0.373,1.599-0.257,2.429c0.107,0.84,0.43,1.643,0.927,2.371c0.499,0.729,1.188,1.381,2.017,1.924
							c1.665,1.102,3.811,1.719,6.096,2.107c1.142,0.191,2.313,0.334,3.492,0.428c0.589,0.049,1.184,0.084,1.776,0.111
							c0.296,0.012,0.592,0.023,0.887,0.029l0.44,0.008l0.422,0.003l1.444,0.011l0.391,1.254l0.15,0.48l0.163,0.502
							c0.112,0.336,0.229,0.67,0.349,1.006c0.234,0.672,0.481,1.34,0.74,2.006c0.511,1.334,1.063,2.65,1.659,3.946
							c0.597,1.296,1.243,2.567,1.973,3.796c0.088,0.156,0.181,0.308,0.277,0.459c0.095,0.15,0.187,0.306,0.285,0.453l0.295,0.451
							l0.309,0.439c0.42,0.582,0.864,1.152,1.353,1.703l0.003,0.004c0.084,0.096,0.076,0.24-0.02,0.326
							c-0.073,0.064-0.175,0.074-0.257,0.032c-1.363-0.69-2.576-1.682-3.653-2.771c-1.082-1.092-2.036-2.299-2.902-3.554
							c-0.218-0.313-0.427-0.632-0.636-0.952c-0.201-0.322-0.403-0.646-0.597-0.973c-0.396-0.652-0.756-1.32-1.114-1.992
							c-0.348-0.676-0.681-1.357-0.997-2.051c-0.155-0.348-0.307-0.697-0.456-1.05l-0.22-0.533
							c-0.074-0.183-0.141-0.351-0.218-0.561l1.837,1.265l-0.504,0.029l-0.484,0.021c-0.322,0.012-0.642,0.02-0.963,0.025
							c-0.64,0.012-1.28,0.014-1.922,0c-1.285-0.025-2.574-0.093-3.875-0.24c-1.301-0.148-2.616-0.361-3.956-0.725
							c-0.673-0.17-1.336-0.404-2-0.66c-0.66-0.27-1.313-0.588-1.951-0.957c-1.272-0.744-2.48-1.738-3.445-2.998
							c-0.966-1.256-1.659-2.776-1.943-4.375c-0.143-0.801-0.199-1.616-0.146-2.434c0.052-0.816,0.194-1.635,0.464-2.439l0.05-0.15
							c0.021-0.059,0.051-0.133,0.076-0.197c0.053-0.136,0.111-0.267,0.175-0.393c0.062-0.13,0.128-0.254,0.2-0.371
							c0.069-0.123,0.144-0.238,0.222-0.348c0.307-0.446,0.656-0.822,1.012-1.141c0.357-0.322,0.722-0.586,1.085-0.814
							c0.362-0.227,0.727-0.426,1.084-0.593c1.437-0.671,2.822-1.021,4.18-1.276c1.359-0.252,2.693-0.387,4.015-0.449
							c2.642-0.125,5.23-0.012,7.787,0.24c5.11,0.535,10.098,1.581,14.949,3.031c1.444,0.43,2.266,1.951,1.833,3.395
							c-0.423,1.418-1.896,2.234-3.317,1.855L53.692,282.283z"/>
					</g>
				</g>
			</g>
		</g>
		<g>
			<g>
				<g>
					<g>
						<path fill="#362045" d="M89.751,331.531c-0.655,0-1.308-0.265-1.785-0.785c-0.9-0.986-0.833-2.516,0.154-3.418
							c7.417-6.781,9.569-16.746,6.401-29.621c-2.454-9.974-7.326-17.979-7.375-18.059c-0.698-1.137-0.343-2.625,0.794-3.324
							s2.624-0.346,3.324,0.791c0.214,0.348,5.273,8.637,7.924,19.318c1.582,6.373,1.969,12.279,1.15,17.551
							c-1.048,6.746-4.061,12.438-8.957,16.914C90.917,331.322,90.333,331.531,89.751,331.531z"/>
					</g>
				</g>
			</g>
		</g>
		<g>
			<g>
				<g>
					<g>
						<path fill="#362045" d="M14.067,282.71c0.425,0.303,0.832,0.619,1.229,0.944c0.399,0.321,0.802,0.618,1.192,0.938
							c0.195,0.164,0.393,0.309,0.592,0.455l0.589,0.451c0.193,0.16,0.397,0.287,0.595,0.433c0.2,0.14,0.395,0.288,0.592,0.433
							c0.812,0.541,1.621,1.082,2.502,1.592c0.429,0.26,0.887,0.518,1.342,0.773l1.403,0.775c1.916,1.039,3.876,2.17,5.721,3.432
							c0.458,0.32,0.915,0.645,1.368,0.969c0.449,0.33,0.887,0.678,1.325,1.023l0.654,0.518c0.215,0.178,0.423,0.363,0.636,0.545
							c0.422,0.363,0.838,0.732,1.248,1.111c0.143,0.131,0.152,0.354,0.021,0.496c-0.097,0.105-0.241,0.138-0.368,0.098
							l-0.011-0.004c-1.058-0.344-2.073-0.75-3.105-1.104l-1.535-0.547c-0.513-0.176-1.023-0.352-1.53-0.531
							c-2.041-0.699-4.063-1.324-6.148-1.992c-0.529-0.174-1.05-0.342-1.584-0.536l-0.803-0.29c-0.268-0.09-0.539-0.215-0.808-0.322
							l-0.404-0.166c-0.137-0.055-0.271-0.111-0.404-0.178l-0.805-0.386c-0.271-0.122-0.529-0.276-0.791-0.421
							c-0.263-0.146-0.522-0.295-0.783-0.447c-0.25-0.164-0.503-0.324-0.75-0.492l-0.373-0.252
							c-0.126-0.082-0.249-0.168-0.363-0.261c-0.466-0.364-0.951-0.718-1.384-1.11c-0.215-0.195-0.435-0.389-0.648-0.588
							c-0.212-0.199-0.432-0.396-0.626-0.607c-0.398-0.417-0.785-0.843-1.156-1.283c-0.863-1.027-0.73-2.559,0.297-3.422
							c0.864-0.727,2.088-0.748,2.967-0.122L14.067,282.71z"/>
					</g>
				</g>
			</g>
		</g>
		<g>
			<g>
				<g>
					<g>
						<path fill="#362045" d="M12.43,298.72c0.476,0.381,0.918,0.697,1.442,0.984c0.52,0.289,1.115,0.557,1.796,0.809
							c1.364,0.498,3.008,0.965,4.722,1.529c1.734,0.58,3.398,1.277,5.01,2.068c1.609,0.796,3.17,1.674,4.655,2.719
							c0.161,0.113,0.199,0.334,0.087,0.496c-0.076,0.107-0.201,0.16-0.324,0.149h-0.008c-1.775-0.165-3.522-0.376-5.243-0.581
							c-1.721-0.205-3.423-0.4-5.09-0.547c-1.685-0.166-3.485-0.264-5.436-0.832c-0.972-0.285-1.991-0.7-2.95-1.33
							c-0.958-0.625-1.842-1.471-2.446-2.455c-0.702-1.143-0.344-2.639,0.798-3.341c0.895-0.55,2.006-0.45,2.783,0.169L12.43,298.72
							z"/>
					</g>
				</g>
			</g>
		</g>
		<g>
			<g>
				<g>
					<g>
						<path fill="#362045" d="M36.134,340.742c-0.36,2.217-0.491,4.451-0.5,6.672c0.008,0.555-0.002,1.107,0.021,1.661l0.07,1.655
							l0.13,1.646c0.018,0.273,0.051,0.547,0.086,0.819l0.098,0.817l0.099,0.813l0.132,0.809c0.093,0.539,0.169,1.078,0.275,1.609
							c0.234,1.064,0.431,2.125,0.734,3.162c0.521,2.09,1.279,4.096,2.066,6.051l0.032,0.08c0.568,1.406-0.113,3.006-1.52,3.574
							c-1.406,0.566-3.007-0.115-3.574-1.521c-0.068-0.168-0.121-0.355-0.154-0.527c-0.432-2.348-0.794-4.684-0.894-7.029
							c-0.094-1.166-0.074-2.336-0.089-3.496c0.005-0.58,0.039-1.162,0.058-1.738l0.036-0.865l0.071-0.865l0.071-0.859
							c0.022-0.287,0.047-0.572,0.087-0.859l0.211-1.707l0.273-1.693c0.093-0.563,0.216-1.123,0.324-1.68
							C34.744,345.042,35.333,342.845,36.134,340.742z"/>
					</g>
				</g>
			</g>
		</g>
	</g>
</g>
</svg>
