<svg id="Capa_1" data-name="Capa 1" xmlns="http://www.w3.org/2000/svg" viewBox="0 0 191.67 191.67"><defs><style>.cls-1{fill:#f5d52f;}.cls-2{opacity:0.35;}.cls-3{fill:#362045;}.cls-4{opacity:0.4;}.cls-5{fill:#fff;}</style></defs><path class="cls-1" d="M148.42,171.89A92.63,92.63,0,0,1,7.77,126.07a90.8,90.8,0,0,1-2.94-10.54A92.62,92.62,0,0,1,39.12,22.46c1-.81,2.11-1.58,3.19-2.34A90.39,90.39,0,0,1,52,14.2,91.78,91.78,0,0,1,88.23,3.68c.8-.07,1.6-.11,2.4-.16a92.59,92.59,0,0,1,57.79,168.37Z"/><g class="cls-2"><path class="cls-3" d="M3,103.05c.34,3,.82,6,1.46,8.93A89.71,89.71,0,0,0,7.4,122.52,92.6,92.6,0,0,0,187.22,84.16c-.31-2.87-.74-5.73-1.33-8.58A92.61,92.61,0,0,1,5.7,106.06,90.25,90.25,0,0,1,2.76,95.52l-.18-.87a90.63,90.63,0,0,0,.71,11C3.18,104.8,3.08,103.93,3,103.05Z"/></g><g class="cls-4"><path class="cls-5" d="M170.36,41.73A92.49,92.49,0,0,0,90.63,3.52c-.8,0-1.6.09-2.41.16A91.78,91.78,0,0,0,52,14.2a90.39,90.39,0,0,0-9.69,5.92c-1.09.76-2.15,1.53-3.19,2.34A92.62,92.62,0,0,0,7.76,126.07c.28.79.57,1.57.86,2.35A94.49,94.49,0,0,1,55.56,21.19a6.34,6.34,0,0,0,.23.74c1.88,5.18,9.93,7,18,4.08s13-9.5,11.15-14.68v0A94.42,94.42,0,0,1,170.36,41.73Z"/></g><path class="cls-3" d="M95.93,191.67A96.49,96.49,0,0,1,44.85,177,95.8,95.8,0,0,1,40.93,17.3,95.85,95.85,0,0,1,177,146.82a95.82,95.82,0,0,1-81.06,44.85ZM95.64,6.44a89.39,89.39,0,0,0-73,140.6,89.36,89.36,0,0,0,161.24-35.62A89.35,89.35,0,0,0,111.42,7.84,89.69,89.69,0,0,0,95.64,6.44Z"/><g class="cls-2"><path class="cls-3" d="M67.73,54.75C56.58,56.08,47.89,51.25,48.31,44s9.81-14.28,21-15.62,19.84,3.5,19.41,10.79S78.88,53.41,67.73,54.75Z"/></g><path class="cls-1" d="M67.85,54.07C58.18,55.56,51,53,51.75,48.26S61,38.54,70.67,37.06s16.88,1.11,16.1,5.81S77.52,52.59,67.85,54.07Z"/><path class="cls-3" d="M84.7,30.19A10.37,10.37,0,0,1,88.07,33a9.53,9.53,0,0,1,.84,1.29,8.93,8.93,0,0,1,.61,1.42l.12.38.09.38.09.38c0,.13.05.26.07.38a10.26,10.26,0,0,1,0,3.13A12.34,12.34,0,0,1,89,43.33,15.73,15.73,0,0,1,87.49,46a18.76,18.76,0,0,1-1.88,2.29c-.33.36-.69.7-1,1l-.54.49-.57.46A24.36,24.36,0,0,1,81.1,52c-.41.27-.82.51-1.24.76s-.84.48-1.27.7a32.59,32.59,0,0,1-5.35,2.17l-1.39.4c-.47.11-.93.24-1.4.33-.94.21-1.9.36-2.85.49a30.55,30.55,0,0,1-5.82.18A24.32,24.32,0,0,1,56,55.89,16.6,16.6,0,0,1,50.57,53a11.79,11.79,0,0,1-2.17-2.39,10,10,0,0,1-1.38-3,9.54,9.54,0,0,1-.33-3.27,11.56,11.56,0,0,1,.66-3.12,14.35,14.35,0,0,1,1.38-2.74c.14-.21.27-.42.42-.63l.45-.6.47-.57c.16-.19.33-.37.49-.55a21.11,21.11,0,0,1,2.13-2A26.92,26.92,0,0,1,55,32.44c.81-.5,1.64-1,2.48-1.4a28.1,28.1,0,0,1,2.59-1.12,30.39,30.39,0,0,1,5.39-1.49.59.59,0,0,1,.31,1.13h0c-.84.31-1.68.6-2.5,1-.41.17-.81.36-1.21.54-.21.09-.4.19-.6.29l-.59.29-.59.31-.57.33-.29.16-.28.17-.56.35c-.74.47-1.46,1-2.15,1.49a24.36,24.36,0,0,0-2,1.69A20,20,0,0,0,52.77,38a12.87,12.87,0,0,0-2.32,4.23,8.21,8.21,0,0,0-.35,2.22,6.86,6.86,0,0,0,.31,2.13,7.37,7.37,0,0,0,2.53,3.48,13.45,13.45,0,0,0,4.21,2.12,21.4,21.4,0,0,0,4.89.86,28.69,28.69,0,0,0,5.07-.16,33.09,33.09,0,0,0,5-1c.42-.13.83-.24,1.23-.38s.81-.28,1.21-.42c.8-.31,1.59-.64,2.36-1,.39-.18.76-.38,1.15-.57s.75-.4,1.11-.63a24.94,24.94,0,0,0,2.12-1.39,21.51,21.51,0,0,0,1.94-1.61,16.12,16.12,0,0,0,1.69-1.82,12.7,12.7,0,0,0,1.35-2,10.32,10.32,0,0,0,.88-2.2,7.83,7.83,0,0,0,.24-2.31v-.29l0-.29c0-.09,0-.19,0-.29l-.06-.28a7.66,7.66,0,0,0-.33-1.13,9.66,9.66,0,0,0-.53-1.07,8.3,8.3,0,0,0-.7-1,9.06,9.06,0,0,0-.84-.92c-.3-.3-.63-.57-1-.84h0a.73.73,0,0,1,.82-1.21Z"/><path class="cls-3" d="M75.14,61.15A14.93,14.93,0,0,1,73,62.59a19.37,19.37,0,0,1-2.35,1.1,20.69,20.69,0,0,1-5.08,1.22,24.07,24.07,0,0,1-5.23,0,25.51,25.51,0,0,1-5.12-1.09,23.69,23.69,0,0,1-4.81-2.12c-.38-.22-.75-.45-1.12-.69s-.73-.5-1.08-.77a19.59,19.59,0,0,1-2-1.74,14.92,14.92,0,0,1-3.08-4.37,10.1,10.1,0,0,1-.93-5.22.6.6,0,0,1,1.18-.07h0a12.9,12.9,0,0,0,5,7.2,25,25,0,0,0,8,4,30.87,30.87,0,0,0,9,1.34A27.86,27.86,0,0,0,69.89,61c.76-.13,1.52-.29,2.27-.49s1.51-.42,2.26-.68h0a.74.74,0,0,1,.93.47A.75.75,0,0,1,75.14,61.15Z"/><g class="cls-2"><path class="cls-3" d="M47.2,111.78c.27,11.25-5.37,19.46-12.6,18.34S21.3,119,21,107.73s5.37-19.46,12.6-18.34S46.94,100.53,47.2,111.78Z"/></g><path class="cls-1" d="M46.5,111.55c.56,9.77-2.72,16.69-7.33,15.47s-8.79-10.12-9.35-19.89,2.72-16.7,7.32-15.48S45.94,101.78,46.5,111.55Z"/><path class="cls-3" d="M24.32,92.51a11.51,11.51,0,0,1,1.94-2.2,10.77,10.77,0,0,1,1.21-.89,9.75,9.75,0,0,1,1.36-.71,9.14,9.14,0,0,1,1.48-.48l.38-.08.39-.05.39-.06.39,0a10.1,10.1,0,0,1,3.1.32,12.72,12.72,0,0,1,2.85,1.16,16.55,16.55,0,0,1,2.47,1.73,18.94,18.94,0,0,1,2.11,2.09c.33.37.63.75.93,1.14l.43.59c.15.2.28.41.42.61a24.29,24.29,0,0,1,1.48,2.51c.23.42.43.86.64,1.3s.4.88.57,1.33a32.56,32.56,0,0,1,1.66,5.53c.1.47.18,1,.26,1.42s.15,1,.2,1.43c.12,1,.18,1.92.22,2.89a30.68,30.68,0,0,1-.38,5.81,23.75,23.75,0,0,1-1.65,5.68,16.55,16.55,0,0,1-3.41,5.09,11.56,11.56,0,0,1-2.58,1.94,10.28,10.28,0,0,1-3.11,1.09,10,10,0,0,1-3.28,0,11,11,0,0,1-3-1,13.75,13.75,0,0,1-2.6-1.63l-.59-.48-.55-.5-.53-.53-.5-.54a21.55,21.55,0,0,1-1.78-2.31,24.77,24.77,0,0,1-1.46-2.48c-.42-.85-.81-1.72-1.15-2.6a26.32,26.32,0,0,1-.87-2.69,29.78,29.78,0,0,1-1-5.5.59.59,0,0,1,.53-.64.61.61,0,0,1,.63.44h0c.22.87.44,1.74.72,2.58.12.43.27.85.42,1.27.07.21.15.41.23.62s.15.41.24.62l.25.61.27.6.13.3.15.3c.09.2.19.39.29.59.4.78.82,1.54,1.28,2.27s1,1.44,1.49,2.11a22,22,0,0,0,1.7,1.88,12.71,12.71,0,0,0,4,2.71,7.87,7.87,0,0,0,2.18.56,6.68,6.68,0,0,0,2.14-.11A7.25,7.25,0,0,0,41.1,126a13.13,13.13,0,0,0,2.51-4,20.82,20.82,0,0,0,1.32-4.79,27.53,27.53,0,0,0,.33-5.06,33.55,33.55,0,0,0-.54-5.1c-.08-.42-.16-.84-.26-1.26s-.2-.83-.31-1.24c-.22-.83-.48-1.64-.77-2.44-.13-.41-.3-.8-.45-1.2s-.33-.78-.52-1.16c-.36-.77-.76-1.52-1.19-2.25a23,23,0,0,0-1.41-2.08,17.26,17.26,0,0,0-1.65-1.86,13.83,13.83,0,0,0-1.89-1.54A10.26,10.26,0,0,0,34.16,91a7.71,7.71,0,0,0-2.27-.46H31l-.29,0a9,9,0,0,0-1.15.22,10.73,10.73,0,0,0-1.12.42,9.49,9.49,0,0,0-1.07.61,7.9,7.9,0,0,0-1,.75c-.32.27-.63.57-.93.87v0a.74.74,0,0,1-1,0A.73.73,0,0,1,24.32,92.51Z"/><path class="cls-3" d="M54.23,105a15.08,15.08,0,0,1,1.23,2.27,17.84,17.84,0,0,1,.87,2.45,21,21,0,0,1,.74,5.17,24.59,24.59,0,0,1-.48,5.21,25.66,25.66,0,0,1-1.56,5,25.11,25.11,0,0,1-2.57,4.58c-.26.36-.52.71-.8,1s-.57.68-.87,1a18.55,18.55,0,0,1-1.92,1.84,14.77,14.77,0,0,1-4.64,2.65,10.14,10.14,0,0,1-5.28.43.61.61,0,0,1-.47-.71.59.59,0,0,1,.5-.47h0a12.93,12.93,0,0,0,7.64-4.3,25.14,25.14,0,0,0,4.76-7.6,30.62,30.62,0,0,0,2.17-8.79,25.82,25.82,0,0,0,0-4.57,22.85,22.85,0,0,0-.27-2.3c-.12-.77-.28-1.54-.46-2.32h0a.74.74,0,0,1,1.34-.58Z"/><g class="cls-2"><path class="cls-3" d="M100.38,78.06c9.19-2.66,18.55,1.53,20.89,9.36s-3.22,16.33-12.42,19S90.3,104.89,88,97.06,91.18,80.73,100.38,78.06Z"/></g><path class="cls-1" d="M103.81,87.72c7.16.65,12.4,5.85,11.7,11.62s-7.07,9.93-14.23,9.28S88.88,102.78,89.58,97,96.65,87.08,103.81,87.72Z"/><path class="cls-3" d="M108.84,106.35l.61-.25.61-.25.6-.29c.19-.09.39-.18.58-.29l.58-.31.29-.15.27-.17c.37-.23.75-.45,1.09-.71l.53-.37.51-.4.25-.2a2.43,2.43,0,0,0,.25-.2l.48-.43.24-.21.23-.22.45-.45c.15-.15.29-.32.43-.47s.29-.31.42-.48l.4-.49c.06-.08.13-.16.19-.25l.18-.26.36-.51c.12-.18.22-.36.33-.53.23-.35.41-.72.61-1.09.1-.18.17-.37.26-.56s.17-.37.25-.56l.21-.58a2.49,2.49,0,0,0,.11-.29l.08-.29.18-.58c0-.2.1-.4.13-.59a12.88,12.88,0,0,0,.28-2.39A11.89,11.89,0,0,0,117.38,83a14.15,14.15,0,0,0-3.88-2.77,15.88,15.88,0,0,0-2.26-.9l-.29-.09-.29-.08-.6-.15-.59-.13-.61-.11a19.2,19.2,0,0,0-17.78,6.67,16.78,16.78,0,0,0-1.39,2,15.2,15.2,0,0,0-1,2.25,12.92,12.92,0,0,0-.74,4.86,14,14,0,0,0,.36,2.47,12.65,12.65,0,0,0,.85,2.37,12.34,12.34,0,0,0,1.32,2.2,14.46,14.46,0,0,0,1.72,2h0a.59.59,0,0,1,0,.83.59.59,0,0,1-.76.08,15.42,15.42,0,0,1-2.18-1.86,14.91,14.91,0,0,1-1.79-2.3,14,14,0,0,1-2-5.53,14.76,14.76,0,0,1,.41-6,17.26,17.26,0,0,1,2.56-5.39,20.89,20.89,0,0,1,9.3-7.23,25.14,25.14,0,0,1,2.82-.93,24.38,24.38,0,0,1,2.93-.55,24.85,24.85,0,0,1,3-.16,23.05,23.05,0,0,1,3,.26,18.46,18.46,0,0,1,2.94.69,19,19,0,0,1,2.82,1.12,19.45,19.45,0,0,1,2.62,1.59,15.92,15.92,0,0,1,2.31,2,15.67,15.67,0,0,1,1.9,2.46,14.17,14.17,0,0,1,1.37,2.79,15,15,0,0,1,.36,9.13c-.06.25-.14.49-.22.73l-.25.71-.13.36c0,.12-.11.23-.15.34l-.32.69a18.11,18.11,0,0,1-3.45,4.82,19.61,19.61,0,0,1-4.67,3.45c-.42.23-.87.43-1.3.63l-.33.15-.33.13L112,107c-.22.09-.45.15-.68.22l-.68.22-1.38.34a.74.74,0,0,1-.88-.54.75.75,0,0,1,.43-.85Z"/><path class="cls-3" d="M81.51,89.83a20.35,20.35,0,0,0-.37,2.55,16.6,16.6,0,0,0,0,2.54,18.44,18.44,0,0,0,.9,4.92c.12.4.28.78.42,1.17.07.19.17.38.25.56l.26.57a17.32,17.32,0,0,0,1.23,2.13l.35.51.36.49.19.24.2.24.39.47c.13.15.28.3.42.45s.27.3.42.44l.45.43.22.21.23.2.47.4c.15.13.32.26.48.38.32.26.66.49,1,.73.16.12.34.23.51.34l.52.33.54.31c.18.1.35.21.54.3A24,24,0,0,0,96,112.59a25.92,25.92,0,0,0,4.88.91,28.56,28.56,0,0,0,5,0,29.41,29.41,0,0,0,9.64-2.59,26.67,26.67,0,0,0,8.14-5.78l.22-.22.21-.23.41-.47c.28-.32.54-.65.8-1,.5-.67,1-1.35,1.43-2.07a21.17,21.17,0,0,0,2.12-4.55,19.86,19.86,0,0,0,.94-5c0-.42.05-.85,0-1.28l0-.64,0-.64a11.13,11.13,0,0,0-.14-1.28c0-.22-.07-.43-.1-.64l-.12-.64v0a.6.6,0,0,1,.48-.69.59.59,0,0,1,.66.39c.15.44.32.87.44,1.32s.26.89.35,1.35l.14.68.1.7c.07.46.1.93.14,1.4,0,.23,0,.47,0,.7s0,.47,0,.71l0,.71,0,.35,0,.35-.07.71c0,.23-.06.47-.1.7-.06.47-.17.93-.27,1.4,0,.23-.1.46-.16.69l-.19.68-.22.68c-.07.22-.14.45-.23.67-.17.44-.33.89-.54,1.32l-.29.65-.32.64a25,25,0,0,1-3.18,4.72,27.37,27.37,0,0,1-4.12,3.93c-.18.15-.37.29-.57.43l-.57.42c-.39.27-.79.52-1.19.79l-1.23.73c-.42.22-.83.45-1.26.66a30.81,30.81,0,0,1-5.3,2.07,31.45,31.45,0,0,1-5.6,1.07,29.08,29.08,0,0,1-11.35-1.12,26.89,26.89,0,0,1-5.28-2.3A23,23,0,0,1,85,110.51a20.4,20.4,0,0,1-3.55-4.57,20.2,20.2,0,0,1-1.26-2.61c-.09-.23-.17-.46-.25-.68s-.17-.45-.23-.69c-.13-.46-.28-.92-.38-1.39a19.22,19.22,0,0,1,.77-11.15.74.74,0,0,1,1.41.41Z"/><g class="cls-2"><path class="cls-3" d="M130.94,28.8c5.07-.31,9.43,2.94,9.74,7.26s-3.56,8.09-8.63,8.4-9.44-2.93-9.74-7.26S125.87,29.12,130.94,28.8Z"/></g><path class="cls-1" d="M131.6,34.2c3.63,1.16,5.74,4.46,4.71,7.37s-4.81,4.33-8.44,3.16-5.75-4.46-4.72-7.37S128,33,131.6,34.2Z"/><path class="cls-3" d="M132,44.35a10.77,10.77,0,0,0,5-2.1c.17-.14.35-.27.5-.42l.24-.22.23-.24a8.63,8.63,0,0,0,.81-1c.11-.18.23-.35.33-.54l.15-.28.13-.28a7.35,7.35,0,0,0,.4-1.17,6.1,6.1,0,0,0-.8-4.66,7.91,7.91,0,0,0-3.82-3.09,10,10,0,0,0-9.78,1.34,7.2,7.2,0,0,0-2.68,4.25,6.28,6.28,0,0,0-.11,1.3,6.48,6.48,0,0,0,.14,1.31,7.79,7.79,0,0,0,1.05,2.5h0a.38.38,0,0,1-.11.52.38.38,0,0,1-.48-.06,8.52,8.52,0,0,1-.94-1.21,8,8,0,0,1-.68-1.41,7.58,7.58,0,0,1-.43-3.14,8,8,0,0,1,.9-3.1,9.23,9.23,0,0,1,2-2.55,11.25,11.25,0,0,1,5.74-2.73,12,12,0,0,1,6.34.64,11.82,11.82,0,0,1,1.48.71,10.43,10.43,0,0,1,1.35.93,9.38,9.38,0,0,1,2.18,2.51,8.09,8.09,0,0,1,1.1,3.18,7.85,7.85,0,0,1-.27,3.34,8.21,8.21,0,0,1-.63,1.53c-.06.13-.14.24-.2.36l-.23.35a7.37,7.37,0,0,1-.48.66A9.82,9.82,0,0,1,138,43.7a10.71,10.71,0,0,1-5.91,1.58.46.46,0,0,1-.45-.48.47.47,0,0,1,.39-.45Z"/><path class="cls-3" d="M119.87,32.75a10.34,10.34,0,0,0-.83,5.19,9.54,9.54,0,0,0,.62,2.5,10.19,10.19,0,0,0,1.25,2.23A11.8,11.8,0,0,0,124.78,46a14.19,14.19,0,0,0,4.93,1.59,15.79,15.79,0,0,0,5.22-.21,14.42,14.42,0,0,0,4.83-2,12.91,12.91,0,0,0,2-1.66,10.89,10.89,0,0,0,1.62-2.07,10,10,0,0,0,1.09-2.42,10.86,10.86,0,0,0,.42-2.67h0a.38.38,0,0,1,.75,0,9.92,9.92,0,0,1,0,3c0,.25-.08.49-.14.74l-.09.37c0,.12-.06.24-.1.36l-.12.37c0,.12-.09.23-.13.35s-.19.47-.29.71A11.93,11.93,0,0,1,143.17,45a12.61,12.61,0,0,1-2.2,2.12,15.06,15.06,0,0,1-5.49,2.62,16.65,16.65,0,0,1-6.09.38,15.5,15.5,0,0,1-5.82-1.92,14.37,14.37,0,0,1-2.5-1.84,12.43,12.43,0,0,1-2-2.38,10.87,10.87,0,0,1-1.31-2.83,11.52,11.52,0,0,1-.35-1.52c0-.26-.06-.52-.08-.78s0-.51,0-.77a10.1,10.1,0,0,1,1-4.44,10.33,10.33,0,0,1,.75-1.29.47.47,0,0,1,.81.45Z"/><path class="cls-3" d="M154.33,58.16a17.58,17.58,0,0,0-2.64,2.11,15.58,15.58,0,0,0-4.5,8.48,18.11,18.11,0,0,0,0,6.4,20.6,20.6,0,0,0,2.13,6.1,23.1,23.1,0,0,0,3.88,5.25,24.23,24.23,0,0,0,2.48,2.17l.66.5.69.46c.45.32.94.57,1.41.85.24.15.49.26.74.39l.74.37.77.32.38.17c.13.06.26.09.39.14l.79.28c.13,0,.27.08.4.12l.4.12.4.11.41.11.82.17a7.58,7.58,0,0,0,.83.15c.27,0,.55.09.83.12l.84.07.43,0h1.28l.85,0h.43l.43,0,.86-.1h.05a.59.59,0,0,1,.65.52.6.6,0,0,1-.39.62l-.88.3-.45.15-.45.12-.91.22-.93.16-.46.07-.47,0-1,.07c-.31,0-.63,0-.94,0s-.64,0-.95,0l-1-.07a3.55,3.55,0,0,1-.47-.06l-.47-.07L162,95l-.47-.09-.93-.21c-.15,0-.31-.07-.46-.12l-.46-.13-.91-.29-.9-.34a8.53,8.53,0,0,1-.88-.36,23.84,23.84,0,0,1-11.14-10.3,21.38,21.38,0,0,1-1.57-3.56,20.54,20.54,0,0,1-.92-3.79,19.32,19.32,0,0,1,.39-7.79,16.58,16.58,0,0,1,3.64-6.88,8.82,8.82,0,0,1,.67-.7,8.69,8.69,0,0,1,.7-.66c.24-.22.49-.42.75-.62s.5-.39.77-.57a16,16,0,0,1,1.64-1,14.58,14.58,0,0,1,1.74-.73.73.73,0,0,1,.64,1.31Z"/><g class="cls-2"><path class="cls-3" d="M174.8,69.56c3.53,7.1,1.65,15.27-4.2,18.26s-13.46-.34-17-7.43S152,65.12,157.8,62.13,171.26,62.47,174.8,69.56Z"/></g><path class="cls-1" d="M167.81,86.69c-4.07,1.15-9-.5-12.37-4.6-4.53-5.45-4.66-13.17-.31-17.23a9,9,0,0,1,2-1.42,14.64,14.64,0,0,1,9.31,5.38C171,74.35,171.52,82,167.81,86.69Z"/><path class="cls-3" d="M173,67.73a16.87,16.87,0,0,0-3.1-2.15,14.19,14.19,0,0,0-3.44-1.29,10.85,10.85,0,0,0-6.83.53l-.38.19-.19.08-.19.11a8,8,0,0,0-.69.43c-.23.16-.45.33-.65.5s-.41.38-.6.57a8.57,8.57,0,0,0-1.77,2.72,9.74,9.74,0,0,0-.67,3.22A11.69,11.69,0,0,0,155,76a13,13,0,0,0,3.58,5.88l.32.3.34.29.33.28.36.26.35.26.37.24c.12.08.24.17.37.24l.39.21a12.54,12.54,0,0,0,3.27,1.27,11.1,11.1,0,0,0,3.49.24l.44,0,.43-.07a8.23,8.23,0,0,0,.86-.19,8.87,8.87,0,0,0,1.65-.62,9.41,9.41,0,0,0,2.86-2.14,10.27,10.27,0,0,0,1.94-3.16h0a.59.59,0,0,1,.77-.33.58.58,0,0,1,.36.64,10.4,10.4,0,0,1-1.56,4,10.73,10.73,0,0,1-3.14,3.12,11.24,11.24,0,0,1-2,1,7.91,7.91,0,0,1-1.07.36l-.55.15-.55.11a13.66,13.66,0,0,1-4.51.1,15.86,15.86,0,0,1-8-3.82l-.42-.37-.4-.4-.4-.4-.37-.43a16.06,16.06,0,0,1-1.35-1.81,14.92,14.92,0,0,1-1.1-2,15.8,15.8,0,0,1-.8-2.15,14.16,14.16,0,0,1-.47-2.26,14.91,14.91,0,0,1-.1-2.32,13,13,0,0,1,1-4.58A11.88,11.88,0,0,1,154.36,64a11.39,11.39,0,0,1,4-2.45,12.64,12.64,0,0,1,4.53-.75c.19,0,.38,0,.56,0l.57,0a5.39,5.39,0,0,1,.56.08l.55.09a14.52,14.52,0,0,1,2.15.58,14.72,14.72,0,0,1,6.83,5.11.73.73,0,0,1-1.07,1Z"/><path class="cls-1" d="M146.83,134.78a20.89,20.89,0,0,1,10.63,8.87c4.22,7.34,2.67,16.1-2.82,24.24a43.77,43.77,0,0,1-15.8,13.84c-17.15,9.1-36.73,6.61-43.72-5.55a20,20,0,0,1-1.81-15c2.18-8.86,9.65-17.35,20.43-23.07"/><path class="cls-3" d="M158.2,143.22a18,18,0,0,1,2.58,5.74,19.73,19.73,0,0,1,.52,6.36,24.84,24.84,0,0,1-1.29,6.23,29,29,0,0,1-1.17,2.94c-.44,1-.91,1.9-1.43,2.81a38.09,38.09,0,0,1-3.55,5.19,43.21,43.21,0,0,1-4.31,4.56c-.38.35-.78.69-1.17,1s-.81.67-1.22,1c-.82.64-1.66,1.27-2.52,1.85a50.8,50.8,0,0,1-5.36,3.19,47.89,47.89,0,0,1-11.74,4.17c-1,.22-2,.4-3.07.55s-2.08.25-3.12.31a39.65,39.65,0,0,1-6.26-.08c-1-.1-2.08-.26-3.12-.45a29.57,29.57,0,0,1-3.06-.73,27.68,27.68,0,0,1-5.81-2.43,22.23,22.23,0,0,1-5-3.82,20.06,20.06,0,0,1-2-2.41,18.19,18.19,0,0,1-1.56-2.7.69.69,0,0,1,.33-.92.7.7,0,0,1,.86.23h0a19.27,19.27,0,0,0,1.8,2.21A18.85,18.85,0,0,0,99.6,180a21.94,21.94,0,0,0,4.81,2.87,29.7,29.7,0,0,0,10.94,2.36A41.2,41.2,0,0,0,126.56,184c.92-.23,1.83-.48,2.74-.76s1.79-.59,2.68-.92,1.76-.7,2.63-1.08,1.71-.8,2.55-1.23a51,51,0,0,0,4.89-2.89,45.63,45.63,0,0,0,4.5-3.43,42.93,42.93,0,0,0,4-4,36.84,36.84,0,0,0,3.39-4.48,32.25,32.25,0,0,0,2.64-4.95,24.72,24.72,0,0,0,1.57-5.31,19.19,19.19,0,0,0,.13-5.51,18.18,18.18,0,0,0-1.58-5.37h0a.86.86,0,0,1,.42-1.14A.84.84,0,0,1,158.2,143.22Z"/><g class="cls-2"><path class="cls-3" d="M121.21,141c14-4.49,27.68.29,30.47,10.66s-6.32,22.43-20.36,26.91-27.68-.29-30.47-10.66S107.17,145.45,121.21,141Z"/></g><path class="cls-1" d="M123.18,151.14c12.14-2.9,23,1.07,24.36,8.88s-7.47,16.49-19.61,19.39-23.05-1.07-24.37-8.87S111,154.05,123.18,151.14Z"/><path class="cls-3" d="M110.31,179.79a16.89,16.89,0,0,1-1.83-.71c-.31-.13-.6-.28-.9-.43s-.58-.3-.87-.47a17,17,0,0,1-3.19-2.45,15.4,15.4,0,0,1-4.08-7.06,16.8,16.8,0,0,1-.54-4.11,19.32,19.32,0,0,1,.43-4.09,23.44,23.44,0,0,1,1.22-3.89l.2-.47a3.82,3.82,0,0,1,.21-.46c.14-.31.28-.61.43-.92l.48-.89c.16-.29.34-.57.51-.86s.36-.57.54-.86.37-.56.57-.83l.59-.81.62-.79a37.62,37.62,0,0,1,2.7-2.94,36,36,0,0,1,6.31-4.83,37.33,37.33,0,0,1,14.91-5.24,35.8,35.8,0,0,1,4-.23,30.38,30.38,0,0,1,4,.3,23.85,23.85,0,0,1,7.82,2.51,18,18,0,0,1,3.47,2.38,16.55,16.55,0,0,1,2.83,3.19,15.49,15.49,0,0,1,1.92,3.81,16,16,0,0,1,.85,4.15,18,18,0,0,1-.2,4.16,20.2,20.2,0,0,1-1.07,3.93,24.56,24.56,0,0,1-1.73,3.62,27.14,27.14,0,0,1-2.24,3.25,29,29,0,0,1-2.63,2.9c-.47.45-1,.88-1.44,1.31l-.75.61-.38.3-.39.29a35.61,35.61,0,0,1-3.19,2.15l-.84.48-.84.45c-.56.31-1.15.56-1.72.84a.69.69,0,0,1-.92-.33.68.68,0,0,1,.24-.88l0,0c1-.66,2.06-1.32,3-2.07a34.77,34.77,0,0,0,2.79-2.33l.34-.31.32-.31.64-.64c.41-.44.83-.87,1.21-1.33l.3-.34c.1-.11.19-.23.28-.34s.38-.46.56-.7l.53-.71c.18-.24.34-.49.51-.74a25.13,25.13,0,0,0,1.78-3,22,22,0,0,0,1.28-3.22,17.7,17.7,0,0,0,.7-3.32,14.64,14.64,0,0,0,0-3.31,12.22,12.22,0,0,0-.79-3.12,12.07,12.07,0,0,0-1.55-2.79,12.44,12.44,0,0,0-2.21-2.32,14.64,14.64,0,0,0-2.73-1.76,17.51,17.51,0,0,0-3.09-1.2,20.7,20.7,0,0,0-3.31-.69,27.91,27.91,0,0,0-3.42-.21,30.59,30.59,0,0,0-3.45.23A34.56,34.56,0,0,0,116,145.83a33.61,33.61,0,0,0-2.94,1.91c-.94.69-1.84,1.44-2.71,2.21a31.72,31.72,0,0,0-2.44,2.48,28.22,28.22,0,0,0-2.11,2.75,21.93,21.93,0,0,0-1.69,3,19.7,19.7,0,0,0-1.19,3.18,15.08,15.08,0,0,0-.56,3.31,13.11,13.11,0,0,0,.19,3.31,12.33,12.33,0,0,0,1,3.17l.18.38.2.37a2.71,2.71,0,0,0,.21.37c.07.12.14.24.22.36s.31.47.48.69.34.46.52.68a14.12,14.12,0,0,0,2.51,2.37,17.39,17.39,0,0,0,3,1.84l0,0a.86.86,0,0,1-.65,1.58Z"/></svg>