<svg id="Capa_1" data-name="Capa 1" xmlns="http://www.w3.org/2000/svg" viewBox="0 0 196.5 196.5"><defs><style>.cls-1{fill:#6cdd6c;}.cls-2{font-size:13.93px;fill:#f5f5f5;font-family:OpenSans-ExtraBold, OpenSans ExtraBold;font-weight:800;}.cls-3{letter-spacing:-0.02em;}.cls-4{font-family:OpenSans-Regular, Open Sans;font-weight:400;}.cls-5,.cls-6{fill:none;stroke:#fff;stroke-miterlimit:10;}.cls-5{stroke-width:7.82px;}.cls-6{stroke-width:3.91px;}</style></defs><circle class="cls-1" cx="98.25" cy="98.25" r="98.25"/><text class="cls-2" transform="translate(53.41 146.51)">E<tspan class="cls-3" x="6.85" y="0">C</tspan><tspan x="14.64" y="0">O</tspan><tspan class="cls-4" x="24.23" y="0">HOUSE.ES</tspan></text><path class="cls-5" d="M143.32,83.31a43.13,43.13,0,1,0-86.25,0h0v43.12h86.25V83.31Z"/><path class="cls-6" d="M102.9,124.22c-.57-5.5,4.75-7.91,5-15.15.25-6.28-1-9.82-3.73-12.29"/><path class="cls-6" d="M90.05,64.75C88.18,71,85.22,82.85,88.67,88.4a19.72,19.72,0,0,0,15.26,9.26A16.71,16.71,0,0,0,105.42,78C101.48,71.64,97.46,70.29,90.05,64.75Z"/></svg>